<svg aria-roledescription="er" role="graphics-document document" viewBox="0 0 773.525390625 964" style="max-width: 773.525px; background-color: white;" xmlns:xlink="http://www.w3.org/1999/xlink" xmlns="http://www.w3.org/2000/svg" width="100%" id="mermaid-0"><style>#mermaid-0{font-family:"trebuchet ms",verdana,arial,sans-serif;font-size:16px;fill:#000000;}#mermaid-0 .error-icon{fill:#552222;}#mermaid-0 .error-text{fill:#552222;stroke:#552222;}#mermaid-0 .edge-thickness-normal{stroke-width:2px;}#mermaid-0 .edge-thickness-thick{stroke-width:3.5px;}#mermaid-0 .edge-pattern-solid{stroke-dasharray:0;}#mermaid-0 .edge-pattern-dashed{stroke-dasharray:3;}#mermaid-0 .edge-pattern-dotted{stroke-dasharray:2;}#mermaid-0 .marker{fill:#000000;stroke:#000000;}#mermaid-0 .marker.cross{stroke:#000000;}#mermaid-0 svg{font-family:"trebuchet ms",verdana,arial,sans-serif;font-size:16px;}#mermaid-0 .entityBox{fill:#cde498;stroke:#13540c;}#mermaid-0 .attributeBoxOdd{fill:#ffffff;stroke:#13540c;}#mermaid-0 .attributeBoxEven{fill:#f2f2f2;stroke:#13540c;}#mermaid-0 .relationshipLabelBox{fill:hsl(78.1578947368, 58.4615384615%, 84.5098039216%);opacity:0.7;background-color:hsl(78.1578947368, 58.4615384615%, 84.5098039216%);}#mermaid-0 .relationshipLabelBox rect{opacity:0.5;}#mermaid-0 .relationshipLine{stroke:#000000;}#mermaid-0 .entityTitleText{text-anchor:middle;font-size:18px;fill:#000000;}#mermaid-0 :root{--mermaid-font-family:"trebuchet ms",verdana,arial,sans-serif;}</style><g/><defs><marker orient="auto" markerHeight="18" markerWidth="18" refY="9" refX="0" id="ONLY_ONE_START"><path d="M9,0 L9,18 M15,0 L15,18" fill="none" stroke="gray"/></marker></defs><defs><marker orient="auto" markerHeight="18" markerWidth="18" refY="9" refX="18" id="ONLY_ONE_END"><path d="M3,0 L3,18 M9,0 L9,18" fill="none" stroke="gray"/></marker></defs><defs><marker orient="auto" markerHeight="18" markerWidth="30" refY="9" refX="0" id="ZERO_OR_ONE_START"><circle r="6" cy="9" cx="21" fill="white" stroke="gray"/><path d="M9,0 L9,18" fill="none" stroke="gray"/></marker></defs><defs><marker orient="auto" markerHeight="18" markerWidth="30" refY="9" refX="30" id="ZERO_OR_ONE_END"><circle r="6" cy="9" cx="9" fill="white" stroke="gray"/><path d="M21,0 L21,18" fill="none" stroke="gray"/></marker></defs><defs><marker orient="auto" markerHeight="36" markerWidth="45" refY="18" refX="18" id="ONE_OR_MORE_START"><path d="M0,18 Q 18,0 36,18 Q 18,36 0,18 M42,9 L42,27" fill="none" stroke="gray"/></marker></defs><defs><marker orient="auto" markerHeight="36" markerWidth="45" refY="18" refX="27" id="ONE_OR_MORE_END"><path d="M3,9 L3,27 M9,18 Q27,0 45,18 Q27,36 9,18" fill="none" stroke="gray"/></marker></defs><defs><marker orient="auto" markerHeight="36" markerWidth="57" refY="18" refX="18" id="ZERO_OR_MORE_START"><circle r="6" cy="18" cx="48" fill="white" stroke="gray"/><path d="M0,18 Q18,0 36,18 Q18,36 0,18" fill="none" stroke="gray"/></marker></defs><defs><marker orient="auto" markerHeight="36" markerWidth="57" refY="18" refX="39" id="ZERO_OR_MORE_END"><circle r="6" cy="18" cx="9" fill="white" stroke="gray"/><path d="M21,18 Q39,0 57,18 Q39,36 21,18" fill="none" stroke="gray"/></marker></defs><path style="stroke: gray; fill: none;" marker-start="url(#ZERO_OR_ONE_START)" marker-end="url(#ONLY_ONE_END)" d="M154.636962890625,688L149.26485188802084,696.3333333333334C143.89274088541666,704.6666666666666,133.14851888020834,721.3333333333334,127.77640787760417,745.3333333333334C122.404296875,769.3333333333334,122.404296875,800.6666666666666,122.404296875,816.3333333333334L122.404296875,832" class="er relationshipLine"/><path style="stroke: gray; fill: none;" marker-start="url(#ZERO_OR_MORE_START)" marker-end="url(#ONLY_ONE_END)" d="M253.87701416015625,688L259.1074727376302,696.3333333333334C264.3379313151042,704.6666666666666,274.79884847005206,721.3333333333334,307.61622111002606,744.8897243529831C340.43359375,768.4461153726329,395.607421875,798.8922307452658,423.1943359375,814.1152884315821L450.78125,829.3383461178987" class="er relationshipLine"/><path style="stroke: gray; fill: none;" marker-start="url(#ZERO_OR_MORE_START)" marker-end="url(#ONLY_ONE_END)" d="M88.26953125,432L88.26953125,440.3333333333333C88.26953125,448.6666666666667,88.26953125,465.3333333333333,95.86395772298177,482C103.45838419596355,498.6666666666667,118.64723714192708,515.3333333333334,126.24166361490886,523.6666666666666L133.83609008789062,532" class="er relationshipLine"/><path style="stroke: gray; fill: none;" marker-start="url(#ZERO_OR_MORE_START)" marker-end="url(#ONLY_ONE_END)" d="M299.2741052350427,154L292.1515981125356,162.33333333333334C285.02909099002846,170.66666666666666,270.78407674501426,187.33333333333334,263.6615696225071,218.83333333333334C256.5390625,250.33333333333334,256.5390625,296.6666666666667,256.5390625,343C256.5390625,389.3333333333333,256.5390625,435.6666666666667,253.1784413655599,467.1666666666667C249.81782023111978,498.6666666666667,243.0965779622396,515.3333333333334,239.73595682779947,523.6666666666666L236.37533569335938,532" class="er relationshipLine"/><path style="stroke: gray; fill: none;" marker-start="url(#ZERO_OR_MORE_START)" marker-end="url(#ONLY_ONE_END)" d="M376.0863214476496,154L378.51757256054134,162.33333333333334C380.9488236734331,170.66666666666666,385.81132589921657,187.33333333333334,391.24017893057345,204C396.66903196193044,220.66666666666666,402.66423579886094,237.33333333333334,405.66183771732614,245.66666666666666L408.6594396357914,254" class="er relationshipLine"/><path style="stroke: gray; fill: none;" marker-start="url(#ZERO_OR_MORE_START)" marker-end="url(#ONLY_ONE_END)" d="M417.453125,140.13272274560626L429.6565755208333,150.77726895467188C441.8600260416667,161.4218151637375,466.2669270833333,182.71090758186878,475.47277568570144,201.68878712426772C484.67862428806956,220.66666666666666,478.68342045113906,237.33333333333334,475.68581853267386,245.66666666666666L472.6882166142086,254" class="er relationshipLine"/><path style="stroke: gray; fill: none;" marker-start="url(#ZERO_OR_MORE_START)" marker-end="url(#ONLY_ONE_END)" d="M440.673828125,432L440.673828125,440.3333333333333C440.673828125,448.6666666666667,440.673828125,465.3333333333333,418.986328125,485.44165713938554C397.298828125,505.5499809454377,353.923828125,529.0999618908753,332.236328125,540.8749523635942L310.548828125,552.649942836313" class="er relationshipLine"/><path style="stroke: gray; fill: none;" marker-start="url(#ZERO_OR_MORE_START)" marker-end="url(#ONLY_ONE_END)" d="M465.599609375,644L465.599609375,659.6666666666666C465.599609375,675.3333333333334,465.599609375,706.6666666666666,468.9602305094401,730.6666666666666C472.3208516438802,754.6666666666666,479.04209391276044,771.3333333333334,482.4027150472005,779.6666666666666L485.7633361816406,788" class="er relationshipLine"/><path style="stroke: gray; fill: none;" marker-start="url(#ZERO_OR_MORE_START)" marker-end="url(#ONLY_ONE_END)" d="M687.087890625,677L687.087890625,687.1666666666666C687.087890625,697.3333333333334,687.087890625,717.6666666666666,669.8492838541666,740.8229891268938C652.6106770833334,763.9793115871208,618.1334635416666,789.9586231742418,600.8948567708334,802.9482789678023L583.65625,815.9379347613627" class="er relationshipLine"/><g transform="translate(63.130859375,832 )" id="entity-TournamentType-1d6e59af-2c94-5ad7-a082-191e0aab481d"><rect height="68" width="118.546875" y="0" x="0" class="er entityBox"/><text style="dominant-baseline: middle; text-anchor: middle; font-size: 12px;" transform="translate(59.2734375,12)" y="0" x="0" id="text-entity-TournamentType-1d6e59af-2c94-5ad7-a082-191e0aab481d" class="er entityLabel">TournamentType</text><rect height="22" width="59.2734375" y="24" x="0" class="er attributeBoxOdd"/><text style="dominant-baseline: middle; font-size: 10.2px;" transform="translate(5,35)" y="0" x="0" id="text-entity-TournamentType-1d6e59af-2c94-5ad7-a082-191e0aab481d-attr-1-type" class="er entityLabel">KING</text><rect height="22" width="59.2734375" y="24" x="59.2734375" class="er attributeBoxOdd"/><text style="dominant-baseline: middle; font-size: 10.2px;" transform="translate(64.2734375,35)" y="0" x="0" id="text-entity-TournamentType-1d6e59af-2c94-5ad7-a082-191e0aab481d-attr-1-name" class="er entityLabel">KING</text><rect height="22" width="59.2734375" y="46" x="0" class="er attributeBoxEven"/><text style="dominant-baseline: middle; font-size: 10.2px;" transform="translate(5,57)" y="0" x="0" id="text-entity-TournamentType-1d6e59af-2c94-5ad7-a082-191e0aab481d-attr-2-type" class="er entityLabel">TEAMS</text><rect height="22" width="59.2734375" y="46" x="59.2734375" class="er attributeBoxEven"/><text style="dominant-baseline: middle; font-size: 10.2px;" transform="translate(64.2734375,57)" y="0" x="0" id="text-entity-TournamentType-1d6e59af-2c94-5ad7-a082-191e0aab481d-attr-2-name" class="er entityLabel">TEAMS</text></g><g transform="translate(450.78125,788 )" id="entity-User-818c511a-4a32-5484-ba70-875d765a9175"><rect height="156" width="132.875" y="0" x="0" class="er entityBox"/><text style="dominant-baseline: middle; text-anchor: middle; font-size: 12px;" transform="translate(66.4375,12)" y="0" x="0" id="text-entity-User-818c511a-4a32-5484-ba70-875d765a9175" class="er entityLabel">User</text><rect height="22" width="53.6640625" y="24" x="0" class="er attributeBoxOdd"/><text style="dominant-baseline: middle; font-size: 10.2px;" transform="translate(5,35)" y="0" x="0" id="text-entity-User-818c511a-4a32-5484-ba70-875d765a9175-attr-1-type" class="er entityLabel">String</text><rect height="22" width="57.6484375" y="24" x="53.6640625" class="er attributeBoxOdd"/><text style="dominant-baseline: middle; font-size: 10.2px;" transform="translate(58.6640625,35)" y="0" x="0" id="text-entity-User-818c511a-4a32-5484-ba70-875d765a9175-attr-1-name" class="er entityLabel">firstName</text><rect height="22" width="21.5625" y="24" x="111.3125" class="er attributeBoxOdd"/><text style="dominant-baseline: middle; font-size: 10.2px;" transform="translate(116.3125,35)" y="0" x="0" id="text-entity-User-818c511a-4a32-5484-ba70-875d765a9175-attr-1-key" class="er entityLabel"/><rect height="22" width="53.6640625" y="46" x="0" class="er attributeBoxEven"/><text style="dominant-baseline: middle; font-size: 10.2px;" transform="translate(5,57)" y="0" x="0" id="text-entity-User-818c511a-4a32-5484-ba70-875d765a9175-attr-2-type" class="er entityLabel">String</text><rect height="22" width="57.6484375" y="46" x="53.6640625" class="er attributeBoxEven"/><text style="dominant-baseline: middle; font-size: 10.2px;" transform="translate(58.6640625,57)" y="0" x="0" id="text-entity-User-818c511a-4a32-5484-ba70-875d765a9175-attr-2-name" class="er entityLabel">lastName</text><rect height="22" width="21.5625" y="46" x="111.3125" class="er attributeBoxEven"/><text style="dominant-baseline: middle; font-size: 10.2px;" transform="translate(116.3125,57)" y="0" x="0" id="text-entity-User-818c511a-4a32-5484-ba70-875d765a9175-attr-2-key" class="er entityLabel"/><rect height="22" width="53.6640625" y="68" x="0" class="er attributeBoxOdd"/><text style="dominant-baseline: middle; font-size: 10.2px;" transform="translate(5,79)" y="0" x="0" id="text-entity-User-818c511a-4a32-5484-ba70-875d765a9175-attr-3-type" class="er entityLabel">String</text><rect height="22" width="57.6484375" y="68" x="53.6640625" class="er attributeBoxOdd"/><text style="dominant-baseline: middle; font-size: 10.2px;" transform="translate(58.6640625,79)" y="0" x="0" id="text-entity-User-818c511a-4a32-5484-ba70-875d765a9175-attr-3-name" class="er entityLabel">email</text><rect height="22" width="21.5625" y="68" x="111.3125" class="er attributeBoxOdd"/><text style="dominant-baseline: middle; font-size: 10.2px;" transform="translate(116.3125,79)" y="0" x="0" id="text-entity-User-818c511a-4a32-5484-ba70-875d765a9175-attr-3-key" class="er entityLabel"/><rect height="22" width="53.6640625" y="90" x="0" class="er attributeBoxEven"/><text style="dominant-baseline: middle; font-size: 10.2px;" transform="translate(5,101)" y="0" x="0" id="text-entity-User-818c511a-4a32-5484-ba70-875d765a9175-attr-4-type" class="er entityLabel">DateTime</text><rect height="22" width="57.6484375" y="90" x="53.6640625" class="er attributeBoxEven"/><text style="dominant-baseline: middle; font-size: 10.2px;" transform="translate(58.6640625,101)" y="0" x="0" id="text-entity-User-818c511a-4a32-5484-ba70-875d765a9175-attr-4-name" class="er entityLabel">updatedAt</text><rect height="22" width="21.5625" y="90" x="111.3125" class="er attributeBoxEven"/><text style="dominant-baseline: middle; font-size: 10.2px;" transform="translate(116.3125,101)" y="0" x="0" id="text-entity-User-818c511a-4a32-5484-ba70-875d765a9175-attr-4-key" class="er entityLabel"/><rect height="22" width="53.6640625" y="112" x="0" class="er attributeBoxOdd"/><text style="dominant-baseline: middle; font-size: 10.2px;" transform="translate(5,123)" y="0" x="0" id="text-entity-User-818c511a-4a32-5484-ba70-875d765a9175-attr-5-type" class="er entityLabel">DateTime</text><rect height="22" width="57.6484375" y="112" x="53.6640625" class="er attributeBoxOdd"/><text style="dominant-baseline: middle; font-size: 10.2px;" transform="translate(58.6640625,123)" y="0" x="0" id="text-entity-User-818c511a-4a32-5484-ba70-875d765a9175-attr-5-name" class="er entityLabel">createdAt</text><rect height="22" width="21.5625" y="112" x="111.3125" class="er attributeBoxOdd"/><text style="dominant-baseline: middle; font-size: 10.2px;" transform="translate(116.3125,123)" y="0" x="0" id="text-entity-User-818c511a-4a32-5484-ba70-875d765a9175-attr-5-key" class="er entityLabel"/><rect height="22" width="53.6640625" y="134" x="0" class="er attributeBoxEven"/><text style="dominant-baseline: middle; font-size: 10.2px;" transform="translate(5,145)" y="0" x="0" id="text-entity-User-818c511a-4a32-5484-ba70-875d765a9175-attr-6-type" class="er entityLabel">String</text><rect height="22" width="57.6484375" y="134" x="53.6640625" class="er attributeBoxEven"/><text style="dominant-baseline: middle; font-size: 10.2px;" transform="translate(58.6640625,145)" y="0" x="0" id="text-entity-User-818c511a-4a32-5484-ba70-875d765a9175-attr-6-name" class="er entityLabel">id</text><rect height="22" width="21.5625" y="134" x="111.3125" class="er attributeBoxEven"/><text style="dominant-baseline: middle; font-size: 10.2px;" transform="translate(116.3125,145)" y="0" x="0" id="text-entity-User-818c511a-4a32-5484-ba70-875d765a9175-attr-6-key" class="er entityLabel">PK</text></g><g transform="translate(99.291015625,532 )" id="entity-Tournament-debdbd13-4480-5320-a1b3-085b30baa76b"><rect height="156" width="211.2578125" y="0" x="0" class="er entityBox"/><text style="dominant-baseline: middle; text-anchor: middle; font-size: 12px;" transform="translate(105.62890625,12)" y="0" x="0" id="text-entity-Tournament-debdbd13-4480-5320-a1b3-085b30baa76b" class="er entityLabel">Tournament</text><rect height="22" width="85.265625" y="24" x="0" class="er attributeBoxOdd"/><text style="dominant-baseline: middle; font-size: 10.2px;" transform="translate(5,35)" y="0" x="0" id="text-entity-Tournament-debdbd13-4480-5320-a1b3-085b30baa76b-attr-1-type" class="er entityLabel">String</text><rect height="22" width="57.6484375" y="24" x="85.265625" class="er attributeBoxOdd"/><text style="dominant-baseline: middle; font-size: 10.2px;" transform="translate(90.265625,35)" y="0" x="0" id="text-entity-Tournament-debdbd13-4480-5320-a1b3-085b30baa76b-attr-1-name" class="er entityLabel">name</text><rect height="22" width="21.5625" y="24" x="142.9140625" class="er attributeBoxOdd"/><text style="dominant-baseline: middle; font-size: 10.2px;" transform="translate(147.9140625,35)" y="0" x="0" id="text-entity-Tournament-debdbd13-4480-5320-a1b3-085b30baa76b-attr-1-key" class="er entityLabel"/><rect height="22" width="46.78125" y="24" x="164.4765625" class="er attributeBoxOdd"/><text style="dominant-baseline: middle; font-size: 10.2px;" transform="translate(169.4765625,35)" y="0" x="0" id="text-entity-Tournament-debdbd13-4480-5320-a1b3-085b30baa76b-attr-1-comment" class="er entityLabel"/><rect height="22" width="85.265625" y="46" x="0" class="er attributeBoxEven"/><text style="dominant-baseline: middle; font-size: 10.2px;" transform="translate(5,57)" y="0" x="0" id="text-entity-Tournament-debdbd13-4480-5320-a1b3-085b30baa76b-attr-2-type" class="er entityLabel">String</text><rect height="22" width="57.6484375" y="46" x="85.265625" class="er attributeBoxEven"/><text style="dominant-baseline: middle; font-size: 10.2px;" transform="translate(90.265625,57)" y="0" x="0" id="text-entity-Tournament-debdbd13-4480-5320-a1b3-085b30baa76b-attr-2-name" class="er entityLabel">winner</text><rect height="22" width="21.5625" y="46" x="142.9140625" class="er attributeBoxEven"/><text style="dominant-baseline: middle; font-size: 10.2px;" transform="translate(147.9140625,57)" y="0" x="0" id="text-entity-Tournament-debdbd13-4480-5320-a1b3-085b30baa76b-attr-2-key" class="er entityLabel"/><rect height="22" width="46.78125" y="46" x="164.4765625" class="er attributeBoxEven"/><text style="dominant-baseline: middle; font-size: 10.2px;" transform="translate(169.4765625,57)" y="0" x="0" id="text-entity-Tournament-debdbd13-4480-5320-a1b3-085b30baa76b-attr-2-comment" class="er entityLabel">nullable</text><rect height="22" width="85.265625" y="68" x="0" class="er attributeBoxOdd"/><text style="dominant-baseline: middle; font-size: 10.2px;" transform="translate(5,79)" y="0" x="0" id="text-entity-Tournament-debdbd13-4480-5320-a1b3-085b30baa76b-attr-3-type" class="er entityLabel">DateTime</text><rect height="22" width="57.6484375" y="68" x="85.265625" class="er attributeBoxOdd"/><text style="dominant-baseline: middle; font-size: 10.2px;" transform="translate(90.265625,79)" y="0" x="0" id="text-entity-Tournament-debdbd13-4480-5320-a1b3-085b30baa76b-attr-3-name" class="er entityLabel">updatedAt</text><rect height="22" width="21.5625" y="68" x="142.9140625" class="er attributeBoxOdd"/><text style="dominant-baseline: middle; font-size: 10.2px;" transform="translate(147.9140625,79)" y="0" x="0" id="text-entity-Tournament-debdbd13-4480-5320-a1b3-085b30baa76b-attr-3-key" class="er entityLabel"/><rect height="22" width="46.78125" y="68" x="164.4765625" class="er attributeBoxOdd"/><text style="dominant-baseline: middle; font-size: 10.2px;" transform="translate(169.4765625,79)" y="0" x="0" id="text-entity-Tournament-debdbd13-4480-5320-a1b3-085b30baa76b-attr-3-comment" class="er entityLabel"/><rect height="22" width="85.265625" y="90" x="0" class="er attributeBoxEven"/><text style="dominant-baseline: middle; font-size: 10.2px;" transform="translate(5,101)" y="0" x="0" id="text-entity-Tournament-debdbd13-4480-5320-a1b3-085b30baa76b-attr-4-type" class="er entityLabel">TournamentType</text><rect height="22" width="57.6484375" y="90" x="85.265625" class="er attributeBoxEven"/><text style="dominant-baseline: middle; font-size: 10.2px;" transform="translate(90.265625,101)" y="0" x="0" id="text-entity-Tournament-debdbd13-4480-5320-a1b3-085b30baa76b-attr-4-name" class="er entityLabel">type</text><rect height="22" width="21.5625" y="90" x="142.9140625" class="er attributeBoxEven"/><text style="dominant-baseline: middle; font-size: 10.2px;" transform="translate(147.9140625,101)" y="0" x="0" id="text-entity-Tournament-debdbd13-4480-5320-a1b3-085b30baa76b-attr-4-key" class="er entityLabel"/><rect height="22" width="46.78125" y="90" x="164.4765625" class="er attributeBoxEven"/><text style="dominant-baseline: middle; font-size: 10.2px;" transform="translate(169.4765625,101)" y="0" x="0" id="text-entity-Tournament-debdbd13-4480-5320-a1b3-085b30baa76b-attr-4-comment" class="er entityLabel"/><rect height="22" width="85.265625" y="112" x="0" class="er attributeBoxOdd"/><text style="dominant-baseline: middle; font-size: 10.2px;" transform="translate(5,123)" y="0" x="0" id="text-entity-Tournament-debdbd13-4480-5320-a1b3-085b30baa76b-attr-5-type" class="er entityLabel">DateTime</text><rect height="22" width="57.6484375" y="112" x="85.265625" class="er attributeBoxOdd"/><text style="dominant-baseline: middle; font-size: 10.2px;" transform="translate(90.265625,123)" y="0" x="0" id="text-entity-Tournament-debdbd13-4480-5320-a1b3-085b30baa76b-attr-5-name" class="er entityLabel">createdAt</text><rect height="22" width="21.5625" y="112" x="142.9140625" class="er attributeBoxOdd"/><text style="dominant-baseline: middle; font-size: 10.2px;" transform="translate(147.9140625,123)" y="0" x="0" id="text-entity-Tournament-debdbd13-4480-5320-a1b3-085b30baa76b-attr-5-key" class="er entityLabel"/><rect height="22" width="46.78125" y="112" x="164.4765625" class="er attributeBoxOdd"/><text style="dominant-baseline: middle; font-size: 10.2px;" transform="translate(169.4765625,123)" y="0" x="0" id="text-entity-Tournament-debdbd13-4480-5320-a1b3-085b30baa76b-attr-5-comment" class="er entityLabel"/><rect height="22" width="85.265625" y="134" x="0" class="er attributeBoxEven"/><text style="dominant-baseline: middle; font-size: 10.2px;" transform="translate(5,145)" y="0" x="0" id="text-entity-Tournament-debdbd13-4480-5320-a1b3-085b30baa76b-attr-6-type" class="er entityLabel">String</text><rect height="22" width="57.6484375" y="134" x="85.265625" class="er attributeBoxEven"/><text style="dominant-baseline: middle; font-size: 10.2px;" transform="translate(90.265625,145)" y="0" x="0" id="text-entity-Tournament-debdbd13-4480-5320-a1b3-085b30baa76b-attr-6-name" class="er entityLabel">id</text><rect height="22" width="21.5625" y="134" x="142.9140625" class="er attributeBoxEven"/><text style="dominant-baseline: middle; font-size: 10.2px;" transform="translate(147.9140625,145)" y="0" x="0" id="text-entity-Tournament-debdbd13-4480-5320-a1b3-085b30baa76b-attr-6-key" class="er entityLabel">PK</text><rect height="22" width="46.78125" y="134" x="164.4765625" class="er attributeBoxEven"/><text style="dominant-baseline: middle; font-size: 10.2px;" transform="translate(169.4765625,145)" y="0" x="0" id="text-entity-Tournament-debdbd13-4480-5320-a1b3-085b30baa76b-attr-6-comment" class="er entityLabel"/></g><g transform="translate(20,254 )" id="entity-Participant-1b15d7dd-2236-59ff-b08e-47bf86f1c4ca"><rect height="178" width="136.5390625" y="0" x="0" class="er entityBox"/><text style="dominant-baseline: middle; text-anchor: middle; font-size: 12px;" transform="translate(68.26953125,12)" y="0" x="0" id="text-entity-Participant-1b15d7dd-2236-59ff-b08e-47bf86f1c4ca" class="er entityLabel">Participant</text><rect height="22" width="53.6640625" y="24" x="0" class="er attributeBoxOdd"/><text style="dominant-baseline: middle; font-size: 10.2px;" transform="translate(5,35)" y="0" x="0" id="text-entity-Participant-1b15d7dd-2236-59ff-b08e-47bf86f1c4ca-attr-1-type" class="er entityLabel">String</text><rect height="22" width="61.3125" y="24" x="53.6640625" class="er attributeBoxOdd"/><text style="dominant-baseline: middle; font-size: 10.2px;" transform="translate(58.6640625,35)" y="0" x="0" id="text-entity-Participant-1b15d7dd-2236-59ff-b08e-47bf86f1c4ca-attr-1-name" class="er entityLabel">name</text><rect height="22" width="21.5625" y="24" x="114.9765625" class="er attributeBoxOdd"/><text style="dominant-baseline: middle; font-size: 10.2px;" transform="translate(119.9765625,35)" y="0" x="0" id="text-entity-Participant-1b15d7dd-2236-59ff-b08e-47bf86f1c4ca-attr-1-key" class="er entityLabel"/><rect height="22" width="53.6640625" y="46" x="0" class="er attributeBoxEven"/><text style="dominant-baseline: middle; font-size: 10.2px;" transform="translate(5,57)" y="0" x="0" id="text-entity-Participant-1b15d7dd-2236-59ff-b08e-47bf86f1c4ca-attr-2-type" class="er entityLabel">String</text><rect height="22" width="61.3125" y="46" x="53.6640625" class="er attributeBoxEven"/><text style="dominant-baseline: middle; font-size: 10.2px;" transform="translate(58.6640625,57)" y="0" x="0" id="text-entity-Participant-1b15d7dd-2236-59ff-b08e-47bf86f1c4ca-attr-2-name" class="er entityLabel">group</text><rect height="22" width="21.5625" y="46" x="114.9765625" class="er attributeBoxEven"/><text style="dominant-baseline: middle; font-size: 10.2px;" transform="translate(119.9765625,57)" y="0" x="0" id="text-entity-Participant-1b15d7dd-2236-59ff-b08e-47bf86f1c4ca-attr-2-key" class="er entityLabel"/><rect height="22" width="53.6640625" y="68" x="0" class="er attributeBoxOdd"/><text style="dominant-baseline: middle; font-size: 10.2px;" transform="translate(5,79)" y="0" x="0" id="text-entity-Participant-1b15d7dd-2236-59ff-b08e-47bf86f1c4ca-attr-3-type" class="er entityLabel">DateTime</text><rect height="22" width="61.3125" y="68" x="53.6640625" class="er attributeBoxOdd"/><text style="dominant-baseline: middle; font-size: 10.2px;" transform="translate(58.6640625,79)" y="0" x="0" id="text-entity-Participant-1b15d7dd-2236-59ff-b08e-47bf86f1c4ca-attr-3-name" class="er entityLabel">updatedAt</text><rect height="22" width="21.5625" y="68" x="114.9765625" class="er attributeBoxOdd"/><text style="dominant-baseline: middle; font-size: 10.2px;" transform="translate(119.9765625,79)" y="0" x="0" id="text-entity-Participant-1b15d7dd-2236-59ff-b08e-47bf86f1c4ca-attr-3-key" class="er entityLabel"/><rect height="22" width="53.6640625" y="90" x="0" class="er attributeBoxEven"/><text style="dominant-baseline: middle; font-size: 10.2px;" transform="translate(5,101)" y="0" x="0" id="text-entity-Participant-1b15d7dd-2236-59ff-b08e-47bf86f1c4ca-attr-4-type" class="er entityLabel">Int</text><rect height="22" width="61.3125" y="90" x="53.6640625" class="er attributeBoxEven"/><text style="dominant-baseline: middle; font-size: 10.2px;" transform="translate(58.6640625,101)" y="0" x="0" id="text-entity-Participant-1b15d7dd-2236-59ff-b08e-47bf86f1c4ca-attr-4-name" class="er entityLabel">points</text><rect height="22" width="21.5625" y="90" x="114.9765625" class="er attributeBoxEven"/><text style="dominant-baseline: middle; font-size: 10.2px;" transform="translate(119.9765625,101)" y="0" x="0" id="text-entity-Participant-1b15d7dd-2236-59ff-b08e-47bf86f1c4ca-attr-4-key" class="er entityLabel"/><rect height="22" width="53.6640625" y="112" x="0" class="er attributeBoxOdd"/><text style="dominant-baseline: middle; font-size: 10.2px;" transform="translate(5,123)" y="0" x="0" id="text-entity-Participant-1b15d7dd-2236-59ff-b08e-47bf86f1c4ca-attr-5-type" class="er entityLabel">Int</text><rect height="22" width="61.3125" y="112" x="53.6640625" class="er attributeBoxOdd"/><text style="dominant-baseline: middle; font-size: 10.2px;" transform="translate(58.6640625,123)" y="0" x="0" id="text-entity-Participant-1b15d7dd-2236-59ff-b08e-47bf86f1c4ca-attr-5-name" class="er entityLabel">smallPoints</text><rect height="22" width="21.5625" y="112" x="114.9765625" class="er attributeBoxOdd"/><text style="dominant-baseline: middle; font-size: 10.2px;" transform="translate(119.9765625,123)" y="0" x="0" id="text-entity-Participant-1b15d7dd-2236-59ff-b08e-47bf86f1c4ca-attr-5-key" class="er entityLabel"/><rect height="22" width="53.6640625" y="134" x="0" class="er attributeBoxEven"/><text style="dominant-baseline: middle; font-size: 10.2px;" transform="translate(5,145)" y="0" x="0" id="text-entity-Participant-1b15d7dd-2236-59ff-b08e-47bf86f1c4ca-attr-6-type" class="er entityLabel">DateTime</text><rect height="22" width="61.3125" y="134" x="53.6640625" class="er attributeBoxEven"/><text style="dominant-baseline: middle; font-size: 10.2px;" transform="translate(58.6640625,145)" y="0" x="0" id="text-entity-Participant-1b15d7dd-2236-59ff-b08e-47bf86f1c4ca-attr-6-name" class="er entityLabel">createdAt</text><rect height="22" width="21.5625" y="134" x="114.9765625" class="er attributeBoxEven"/><text style="dominant-baseline: middle; font-size: 10.2px;" transform="translate(119.9765625,145)" y="0" x="0" id="text-entity-Participant-1b15d7dd-2236-59ff-b08e-47bf86f1c4ca-attr-6-key" class="er entityLabel"/><rect height="22" width="53.6640625" y="156" x="0" class="er attributeBoxOdd"/><text style="dominant-baseline: middle; font-size: 10.2px;" transform="translate(5,167)" y="0" x="0" id="text-entity-Participant-1b15d7dd-2236-59ff-b08e-47bf86f1c4ca-attr-7-type" class="er entityLabel">String</text><rect height="22" width="61.3125" y="156" x="53.6640625" class="er attributeBoxOdd"/><text style="dominant-baseline: middle; font-size: 10.2px;" transform="translate(58.6640625,167)" y="0" x="0" id="text-entity-Participant-1b15d7dd-2236-59ff-b08e-47bf86f1c4ca-attr-7-name" class="er entityLabel">id</text><rect height="22" width="21.5625" y="156" x="114.9765625" class="er attributeBoxOdd"/><text style="dominant-baseline: middle; font-size: 10.2px;" transform="translate(119.9765625,167)" y="0" x="0" id="text-entity-Participant-1b15d7dd-2236-59ff-b08e-47bf86f1c4ca-attr-7-key" class="er entityLabel">PK</text></g><g transform="translate(295.625,20 )" id="entity-Games-51bbeccb-5d0e-5638-901f-8dd2836655e5"><rect height="134" width="121.828125" y="0" x="0" class="er entityBox"/><text style="dominant-baseline: middle; text-anchor: middle; font-size: 12px;" transform="translate(60.9140625,12)" y="0" x="0" id="text-entity-Games-51bbeccb-5d0e-5638-901f-8dd2836655e5" class="er entityLabel">Games</text><rect height="22" width="36.5234375" y="24" x="0" class="er attributeBoxOdd"/><text style="dominant-baseline: middle; font-size: 10.2px;" transform="translate(5,35)" y="0" x="0" id="text-entity-Games-51bbeccb-5d0e-5638-901f-8dd2836655e5-attr-1-type" class="er entityLabel">Int</text><rect height="22" width="63.7421875" y="24" x="36.5234375" class="er attributeBoxOdd"/><text style="dominant-baseline: middle; font-size: 10.2px;" transform="translate(41.5234375,35)" y="0" x="0" id="text-entity-Games-51bbeccb-5d0e-5638-901f-8dd2836655e5-attr-1-name" class="er entityLabel">gameOrder</text><rect height="22" width="21.5625" y="24" x="100.265625" class="er attributeBoxOdd"/><text style="dominant-baseline: middle; font-size: 10.2px;" transform="translate(105.265625,35)" y="0" x="0" id="text-entity-Games-51bbeccb-5d0e-5638-901f-8dd2836655e5-attr-1-key" class="er entityLabel"/><rect height="22" width="36.5234375" y="46" x="0" class="er attributeBoxEven"/><text style="dominant-baseline: middle; font-size: 10.2px;" transform="translate(5,57)" y="0" x="0" id="text-entity-Games-51bbeccb-5d0e-5638-901f-8dd2836655e5-attr-2-type" class="er entityLabel">String</text><rect height="22" width="63.7421875" y="46" x="36.5234375" class="er attributeBoxEven"/><text style="dominant-baseline: middle; font-size: 10.2px;" transform="translate(41.5234375,57)" y="0" x="0" id="text-entity-Games-51bbeccb-5d0e-5638-901f-8dd2836655e5-attr-2-name" class="er entityLabel">group</text><rect height="22" width="21.5625" y="46" x="100.265625" class="er attributeBoxEven"/><text style="dominant-baseline: middle; font-size: 10.2px;" transform="translate(105.265625,57)" y="0" x="0" id="text-entity-Games-51bbeccb-5d0e-5638-901f-8dd2836655e5-attr-2-key" class="er entityLabel"/><rect height="22" width="36.5234375" y="68" x="0" class="er attributeBoxOdd"/><text style="dominant-baseline: middle; font-size: 10.2px;" transform="translate(5,79)" y="0" x="0" id="text-entity-Games-51bbeccb-5d0e-5638-901f-8dd2836655e5-attr-3-type" class="er entityLabel">Int</text><rect height="22" width="63.7421875" y="68" x="36.5234375" class="er attributeBoxOdd"/><text style="dominant-baseline: middle; font-size: 10.2px;" transform="translate(41.5234375,79)" y="0" x="0" id="text-entity-Games-51bbeccb-5d0e-5638-901f-8dd2836655e5-attr-3-name" class="er entityLabel">team1Score</text><rect height="22" width="21.5625" y="68" x="100.265625" class="er attributeBoxOdd"/><text style="dominant-baseline: middle; font-size: 10.2px;" transform="translate(105.265625,79)" y="0" x="0" id="text-entity-Games-51bbeccb-5d0e-5638-901f-8dd2836655e5-attr-3-key" class="er entityLabel"/><rect height="22" width="36.5234375" y="90" x="0" class="er attributeBoxEven"/><text style="dominant-baseline: middle; font-size: 10.2px;" transform="translate(5,101)" y="0" x="0" id="text-entity-Games-51bbeccb-5d0e-5638-901f-8dd2836655e5-attr-4-type" class="er entityLabel">Int</text><rect height="22" width="63.7421875" y="90" x="36.5234375" class="er attributeBoxEven"/><text style="dominant-baseline: middle; font-size: 10.2px;" transform="translate(41.5234375,101)" y="0" x="0" id="text-entity-Games-51bbeccb-5d0e-5638-901f-8dd2836655e5-attr-4-name" class="er entityLabel">team2Score</text><rect height="22" width="21.5625" y="90" x="100.265625" class="er attributeBoxEven"/><text style="dominant-baseline: middle; font-size: 10.2px;" transform="translate(105.265625,101)" y="0" x="0" id="text-entity-Games-51bbeccb-5d0e-5638-901f-8dd2836655e5-attr-4-key" class="er entityLabel"/><rect height="22" width="36.5234375" y="112" x="0" class="er attributeBoxOdd"/><text style="dominant-baseline: middle; font-size: 10.2px;" transform="translate(5,123)" y="0" x="0" id="text-entity-Games-51bbeccb-5d0e-5638-901f-8dd2836655e5-attr-5-type" class="er entityLabel">String</text><rect height="22" width="63.7421875" y="112" x="36.5234375" class="er attributeBoxOdd"/><text style="dominant-baseline: middle; font-size: 10.2px;" transform="translate(41.5234375,123)" y="0" x="0" id="text-entity-Games-51bbeccb-5d0e-5638-901f-8dd2836655e5-attr-5-name" class="er entityLabel">id</text><rect height="22" width="21.5625" y="112" x="100.265625" class="er attributeBoxOdd"/><text style="dominant-baseline: middle; font-size: 10.2px;" transform="translate(105.265625,123)" y="0" x="0" id="text-entity-Games-51bbeccb-5d0e-5638-901f-8dd2836655e5-attr-5-key" class="er entityLabel">PK</text></g><g transform="translate(372.404296875,254 )" id="entity-Team-bf3f5416-76e3-5dc0-89d0-070d82786f59"><rect height="178" width="136.5390625" y="0" x="0" class="er entityBox"/><text style="dominant-baseline: middle; text-anchor: middle; font-size: 12px;" transform="translate(68.26953125,12)" y="0" x="0" id="text-entity-Team-bf3f5416-76e3-5dc0-89d0-070d82786f59" class="er entityLabel">Team</text><rect height="22" width="53.6640625" y="24" x="0" class="er attributeBoxOdd"/><text style="dominant-baseline: middle; font-size: 10.2px;" transform="translate(5,35)" y="0" x="0" id="text-entity-Team-bf3f5416-76e3-5dc0-89d0-070d82786f59-attr-1-type" class="er entityLabel">String</text><rect height="22" width="61.3125" y="24" x="53.6640625" class="er attributeBoxOdd"/><text style="dominant-baseline: middle; font-size: 10.2px;" transform="translate(58.6640625,35)" y="0" x="0" id="text-entity-Team-bf3f5416-76e3-5dc0-89d0-070d82786f59-attr-1-name" class="er entityLabel">name</text><rect height="22" width="21.5625" y="24" x="114.9765625" class="er attributeBoxOdd"/><text style="dominant-baseline: middle; font-size: 10.2px;" transform="translate(119.9765625,35)" y="0" x="0" id="text-entity-Team-bf3f5416-76e3-5dc0-89d0-070d82786f59-attr-1-key" class="er entityLabel"/><rect height="22" width="53.6640625" y="46" x="0" class="er attributeBoxEven"/><text style="dominant-baseline: middle; font-size: 10.2px;" transform="translate(5,57)" y="0" x="0" id="text-entity-Team-bf3f5416-76e3-5dc0-89d0-070d82786f59-attr-2-type" class="er entityLabel">String</text><rect height="22" width="61.3125" y="46" x="53.6640625" class="er attributeBoxEven"/><text style="dominant-baseline: middle; font-size: 10.2px;" transform="translate(58.6640625,57)" y="0" x="0" id="text-entity-Team-bf3f5416-76e3-5dc0-89d0-070d82786f59-attr-2-name" class="er entityLabel">group</text><rect height="22" width="21.5625" y="46" x="114.9765625" class="er attributeBoxEven"/><text style="dominant-baseline: middle; font-size: 10.2px;" transform="translate(119.9765625,57)" y="0" x="0" id="text-entity-Team-bf3f5416-76e3-5dc0-89d0-070d82786f59-attr-2-key" class="er entityLabel"/><rect height="22" width="53.6640625" y="68" x="0" class="er attributeBoxOdd"/><text style="dominant-baseline: middle; font-size: 10.2px;" transform="translate(5,79)" y="0" x="0" id="text-entity-Team-bf3f5416-76e3-5dc0-89d0-070d82786f59-attr-3-type" class="er entityLabel">Int</text><rect height="22" width="61.3125" y="68" x="53.6640625" class="er attributeBoxOdd"/><text style="dominant-baseline: middle; font-size: 10.2px;" transform="translate(58.6640625,79)" y="0" x="0" id="text-entity-Team-bf3f5416-76e3-5dc0-89d0-070d82786f59-attr-3-name" class="er entityLabel">points</text><rect height="22" width="21.5625" y="68" x="114.9765625" class="er attributeBoxOdd"/><text style="dominant-baseline: middle; font-size: 10.2px;" transform="translate(119.9765625,79)" y="0" x="0" id="text-entity-Team-bf3f5416-76e3-5dc0-89d0-070d82786f59-attr-3-key" class="er entityLabel"/><rect height="22" width="53.6640625" y="90" x="0" class="er attributeBoxEven"/><text style="dominant-baseline: middle; font-size: 10.2px;" transform="translate(5,101)" y="0" x="0" id="text-entity-Team-bf3f5416-76e3-5dc0-89d0-070d82786f59-attr-4-type" class="er entityLabel">DateTime</text><rect height="22" width="61.3125" y="90" x="53.6640625" class="er attributeBoxEven"/><text style="dominant-baseline: middle; font-size: 10.2px;" transform="translate(58.6640625,101)" y="0" x="0" id="text-entity-Team-bf3f5416-76e3-5dc0-89d0-070d82786f59-attr-4-name" class="er entityLabel">updatedAt</text><rect height="22" width="21.5625" y="90" x="114.9765625" class="er attributeBoxEven"/><text style="dominant-baseline: middle; font-size: 10.2px;" transform="translate(119.9765625,101)" y="0" x="0" id="text-entity-Team-bf3f5416-76e3-5dc0-89d0-070d82786f59-attr-4-key" class="er entityLabel"/><rect height="22" width="53.6640625" y="112" x="0" class="er attributeBoxOdd"/><text style="dominant-baseline: middle; font-size: 10.2px;" transform="translate(5,123)" y="0" x="0" id="text-entity-Team-bf3f5416-76e3-5dc0-89d0-070d82786f59-attr-5-type" class="er entityLabel">Int</text><rect height="22" width="61.3125" y="112" x="53.6640625" class="er attributeBoxOdd"/><text style="dominant-baseline: middle; font-size: 10.2px;" transform="translate(58.6640625,123)" y="0" x="0" id="text-entity-Team-bf3f5416-76e3-5dc0-89d0-070d82786f59-attr-5-name" class="er entityLabel">smallPoints</text><rect height="22" width="21.5625" y="112" x="114.9765625" class="er attributeBoxOdd"/><text style="dominant-baseline: middle; font-size: 10.2px;" transform="translate(119.9765625,123)" y="0" x="0" id="text-entity-Team-bf3f5416-76e3-5dc0-89d0-070d82786f59-attr-5-key" class="er entityLabel"/><rect height="22" width="53.6640625" y="134" x="0" class="er attributeBoxEven"/><text style="dominant-baseline: middle; font-size: 10.2px;" transform="translate(5,145)" y="0" x="0" id="text-entity-Team-bf3f5416-76e3-5dc0-89d0-070d82786f59-attr-6-type" class="er entityLabel">DateTime</text><rect height="22" width="61.3125" y="134" x="53.6640625" class="er attributeBoxEven"/><text style="dominant-baseline: middle; font-size: 10.2px;" transform="translate(58.6640625,145)" y="0" x="0" id="text-entity-Team-bf3f5416-76e3-5dc0-89d0-070d82786f59-attr-6-name" class="er entityLabel">createdAt</text><rect height="22" width="21.5625" y="134" x="114.9765625" class="er attributeBoxEven"/><text style="dominant-baseline: middle; font-size: 10.2px;" transform="translate(119.9765625,145)" y="0" x="0" id="text-entity-Team-bf3f5416-76e3-5dc0-89d0-070d82786f59-attr-6-key" class="er entityLabel"/><rect height="22" width="53.6640625" y="156" x="0" class="er attributeBoxOdd"/><text style="dominant-baseline: middle; font-size: 10.2px;" transform="translate(5,167)" y="0" x="0" id="text-entity-Team-bf3f5416-76e3-5dc0-89d0-070d82786f59-attr-7-type" class="er entityLabel">String</text><rect height="22" width="61.3125" y="156" x="53.6640625" class="er attributeBoxOdd"/><text style="dominant-baseline: middle; font-size: 10.2px;" transform="translate(58.6640625,167)" y="0" x="0" id="text-entity-Team-bf3f5416-76e3-5dc0-89d0-070d82786f59-attr-7-name" class="er entityLabel">id</text><rect height="22" width="21.5625" y="156" x="114.9765625" class="er attributeBoxOdd"/><text style="dominant-baseline: middle; font-size: 10.2px;" transform="translate(119.9765625,167)" y="0" x="0" id="text-entity-Team-bf3f5416-76e3-5dc0-89d0-070d82786f59-attr-7-key" class="er entityLabel">PK</text></g><g transform="translate(410.548828125,576 )" id="entity-Password-21901b32-bf0e-536e-bcdd-09ed9082306b"><rect height="68" width="110.1015625" y="0" x="0" class="er entityBox"/><text style="dominant-baseline: middle; text-anchor: middle; font-size: 12px;" transform="translate(55.05078125,12)" y="0" x="0" id="text-entity-Password-21901b32-bf0e-536e-bcdd-09ed9082306b" class="er entityLabel">Password</text><rect height="22" width="36.5234375" y="24" x="0" class="er attributeBoxOdd"/><text style="dominant-baseline: middle; font-size: 10.2px;" transform="translate(5,35)" y="0" x="0" id="text-entity-Password-21901b32-bf0e-536e-bcdd-09ed9082306b-attr-1-type" class="er entityLabel">String</text><rect height="22" width="52.015625" y="24" x="36.5234375" class="er attributeBoxOdd"/><text style="dominant-baseline: middle; font-size: 10.2px;" transform="translate(41.5234375,35)" y="0" x="0" id="text-entity-Password-21901b32-bf0e-536e-bcdd-09ed9082306b-attr-1-name" class="er entityLabel">password</text><rect height="22" width="21.5625" y="24" x="88.5390625" class="er attributeBoxOdd"/><text style="dominant-baseline: middle; font-size: 10.2px;" transform="translate(93.5390625,35)" y="0" x="0" id="text-entity-Password-21901b32-bf0e-536e-bcdd-09ed9082306b-attr-1-key" class="er entityLabel"/><rect height="22" width="36.5234375" y="46" x="0" class="er attributeBoxEven"/><text style="dominant-baseline: middle; font-size: 10.2px;" transform="translate(5,57)" y="0" x="0" id="text-entity-Password-21901b32-bf0e-536e-bcdd-09ed9082306b-attr-2-type" class="er entityLabel">String</text><rect height="22" width="52.015625" y="46" x="36.5234375" class="er attributeBoxEven"/><text style="dominant-baseline: middle; font-size: 10.2px;" transform="translate(41.5234375,57)" y="0" x="0" id="text-entity-Password-21901b32-bf0e-536e-bcdd-09ed9082306b-attr-2-name" class="er entityLabel">id</text><rect height="22" width="21.5625" y="46" x="88.5390625" class="er attributeBoxEven"/><text style="dominant-baseline: middle; font-size: 10.2px;" transform="translate(93.5390625,57)" y="0" x="0" id="text-entity-Password-21901b32-bf0e-536e-bcdd-09ed9082306b-attr-2-key" class="er entityLabel">PK</text></g><g transform="translate(620.650390625,543 )" id="entity-LoginToken-c7a39e19-9df2-533a-90f3-2ed3bbae3620"><rect height="134" width="132.875" y="0" x="0" class="er entityBox"/><text style="dominant-baseline: middle; text-anchor: middle; font-size: 12px;" transform="translate(66.4375,12)" y="0" x="0" id="text-entity-LoginToken-c7a39e19-9df2-533a-90f3-2ed3bbae3620" class="er entityLabel">LoginToken</text><rect height="22" width="53.6640625" y="24" x="0" class="er attributeBoxOdd"/><text style="dominant-baseline: middle; font-size: 10.2px;" transform="translate(5,35)" y="0" x="0" id="text-entity-LoginToken-c7a39e19-9df2-533a-90f3-2ed3bbae3620-attr-1-type" class="er entityLabel">String</text><rect height="22" width="57.6484375" y="24" x="53.6640625" class="er attributeBoxOdd"/><text style="dominant-baseline: middle; font-size: 10.2px;" transform="translate(58.6640625,35)" y="0" x="0" id="text-entity-LoginToken-c7a39e19-9df2-533a-90f3-2ed3bbae3620-attr-1-name" class="er entityLabel">token</text><rect height="22" width="21.5625" y="24" x="111.3125" class="er attributeBoxOdd"/><text style="dominant-baseline: middle; font-size: 10.2px;" transform="translate(116.3125,35)" y="0" x="0" id="text-entity-LoginToken-c7a39e19-9df2-533a-90f3-2ed3bbae3620-attr-1-key" class="er entityLabel"/><rect height="22" width="53.6640625" y="46" x="0" class="er attributeBoxEven"/><text style="dominant-baseline: middle; font-size: 10.2px;" transform="translate(5,57)" y="0" x="0" id="text-entity-LoginToken-c7a39e19-9df2-533a-90f3-2ed3bbae3620-attr-2-type" class="er entityLabel">DateTime</text><rect height="22" width="57.6484375" y="46" x="53.6640625" class="er attributeBoxEven"/><text style="dominant-baseline: middle; font-size: 10.2px;" transform="translate(58.6640625,57)" y="0" x="0" id="text-entity-LoginToken-c7a39e19-9df2-533a-90f3-2ed3bbae3620-attr-2-name" class="er entityLabel">updatedAt</text><rect height="22" width="21.5625" y="46" x="111.3125" class="er attributeBoxEven"/><text style="dominant-baseline: middle; font-size: 10.2px;" transform="translate(116.3125,57)" y="0" x="0" id="text-entity-LoginToken-c7a39e19-9df2-533a-90f3-2ed3bbae3620-attr-2-key" class="er entityLabel"/><rect height="22" width="53.6640625" y="68" x="0" class="er attributeBoxOdd"/><text style="dominant-baseline: middle; font-size: 10.2px;" transform="translate(5,79)" y="0" x="0" id="text-entity-LoginToken-c7a39e19-9df2-533a-90f3-2ed3bbae3620-attr-3-type" class="er entityLabel">Boolean</text><rect height="22" width="57.6484375" y="68" x="53.6640625" class="er attributeBoxOdd"/><text style="dominant-baseline: middle; font-size: 10.2px;" transform="translate(58.6640625,79)" y="0" x="0" id="text-entity-LoginToken-c7a39e19-9df2-533a-90f3-2ed3bbae3620-attr-3-name" class="er entityLabel">isActive</text><rect height="22" width="21.5625" y="68" x="111.3125" class="er attributeBoxOdd"/><text style="dominant-baseline: middle; font-size: 10.2px;" transform="translate(116.3125,79)" y="0" x="0" id="text-entity-LoginToken-c7a39e19-9df2-533a-90f3-2ed3bbae3620-attr-3-key" class="er entityLabel"/><rect height="22" width="53.6640625" y="90" x="0" class="er attributeBoxEven"/><text style="dominant-baseline: middle; font-size: 10.2px;" transform="translate(5,101)" y="0" x="0" id="text-entity-LoginToken-c7a39e19-9df2-533a-90f3-2ed3bbae3620-attr-4-type" class="er entityLabel">DateTime</text><rect height="22" width="57.6484375" y="90" x="53.6640625" class="er attributeBoxEven"/><text style="dominant-baseline: middle; font-size: 10.2px;" transform="translate(58.6640625,101)" y="0" x="0" id="text-entity-LoginToken-c7a39e19-9df2-533a-90f3-2ed3bbae3620-attr-4-name" class="er entityLabel">createdAt</text><rect height="22" width="21.5625" y="90" x="111.3125" class="er attributeBoxEven"/><text style="dominant-baseline: middle; font-size: 10.2px;" transform="translate(116.3125,101)" y="0" x="0" id="text-entity-LoginToken-c7a39e19-9df2-533a-90f3-2ed3bbae3620-attr-4-key" class="er entityLabel"/><rect height="22" width="53.6640625" y="112" x="0" class="er attributeBoxOdd"/><text style="dominant-baseline: middle; font-size: 10.2px;" transform="translate(5,123)" y="0" x="0" id="text-entity-LoginToken-c7a39e19-9df2-533a-90f3-2ed3bbae3620-attr-5-type" class="er entityLabel">String</text><rect height="22" width="57.6484375" y="112" x="53.6640625" class="er attributeBoxOdd"/><text style="dominant-baseline: middle; font-size: 10.2px;" transform="translate(58.6640625,123)" y="0" x="0" id="text-entity-LoginToken-c7a39e19-9df2-533a-90f3-2ed3bbae3620-attr-5-name" class="er entityLabel">id</text><rect height="22" width="21.5625" y="112" x="111.3125" class="er attributeBoxOdd"/><text style="dominant-baseline: middle; font-size: 10.2px;" transform="translate(116.3125,123)" y="0" x="0" id="text-entity-LoginToken-c7a39e19-9df2-533a-90f3-2ed3bbae3620-attr-5-key" class="er entityLabel">PK</text></g><rect height="14" width="57.9375" y="749.779296875" x="96.7009048461914" class="er relationshipLabelBox"/><text style="text-anchor: middle; dominant-baseline: middle; font-size: 12px;" y="756.779296875" x="125.6696548461914" id="rel1" class="er relationshipLabel">enum:type</text><rect height="14" width="22.625" y="761.7822265625" x="332.85540771484375" class="er relationshipLabelBox"/><text style="text-anchor: middle; dominant-baseline: middle; font-size: 12px;" y="768.7822265625" x="344.16790771484375" id="rel2" class="er relationshipLabel">user</text><rect height="14" width="63.1015625" y="480.3630676269531" x="67.00617218017578" class="er relationshipLabelBox"/><text style="text-anchor: middle; dominant-baseline: middle; font-size: 12px;" y="487.3630676269531" x="98.55695343017578" id="rel3" class="er relationshipLabel">tournament</text><rect height="14" width="63.1015625" y="331.9968566894531" x="224.98907470703125" class="er relationshipLabelBox"/><text style="text-anchor: middle; dominant-baseline: middle; font-size: 12px;" y="338.9968566894531" x="256.53985595703125" id="rel4" class="er relationshipLabel">tournament</text><rect height="14" width="33.8671875" y="197.33335876464844" x="374.41552734375" class="er relationshipLabelBox"/><text style="text-anchor: middle; dominant-baseline: middle; font-size: 12px;" y="204.33335876464844" x="391.34912109375" id="rel5" class="er relationshipLabel">team1</text><rect height="14" width="33.8671875" y="181.6477813720703" x="450.30767822265625" class="er relationshipLabelBox"/><text style="text-anchor: middle; dominant-baseline: middle; font-size: 12px;" y="188.6477813720703" x="467.24127197265625" id="rel6" class="er relationshipLabel">team2</text><rect height="14" width="63.1015625" y="498.9047546386719" x="360.47052001953125" class="er relationshipLabelBox"/><text style="text-anchor: middle; dominant-baseline: middle; font-size: 12px;" y="505.9047546386719" x="392.02130126953125" id="rel7" class="er relationshipLabel">tournament</text><rect height="14" width="22.625" y="710.3187866210938" x="456.1572570800781" class="er relationshipLabelBox"/><text style="text-anchor: middle; dominant-baseline: middle; font-size: 12px;" y="717.3187866210938" x="467.4697570800781" id="rel8" class="er relationshipLabel">user</text><rect height="14" width="22.625" y="751.4196166992188" x="642.9672241210938" class="er relationshipLabelBox"/><text style="text-anchor: middle; dominant-baseline: middle; font-size: 12px;" y="758.4196166992188" x="654.2797241210938" id="rel9" class="er relationshipLabel">user</text></svg>