<svg aria-roledescription="er" role="graphics-document document" viewBox="0 0 722.4609375 942" style="max-width: 722.461px; background-color: white;" xmlns:xlink="http://www.w3.org/1999/xlink" xmlns="http://www.w3.org/2000/svg" width="100%" id="mermaid-0"><style>#mermaid-0{font-family:"trebuchet ms",verdana,arial,sans-serif;font-size:16px;fill:#000000;}#mermaid-0 .error-icon{fill:#552222;}#mermaid-0 .error-text{fill:#552222;stroke:#552222;}#mermaid-0 .edge-thickness-normal{stroke-width:2px;}#mermaid-0 .edge-thickness-thick{stroke-width:3.5px;}#mermaid-0 .edge-pattern-solid{stroke-dasharray:0;}#mermaid-0 .edge-pattern-dashed{stroke-dasharray:3;}#mermaid-0 .edge-pattern-dotted{stroke-dasharray:2;}#mermaid-0 .marker{fill:#000000;stroke:#000000;}#mermaid-0 .marker.cross{stroke:#000000;}#mermaid-0 svg{font-family:"trebuchet ms",verdana,arial,sans-serif;font-size:16px;}#mermaid-0 .entityBox{fill:#cde498;stroke:#13540c;}#mermaid-0 .attributeBoxOdd{fill:#ffffff;stroke:#13540c;}#mermaid-0 .attributeBoxEven{fill:#f2f2f2;stroke:#13540c;}#mermaid-0 .relationshipLabelBox{fill:hsl(78.1578947368, 58.4615384615%, 84.5098039216%);opacity:0.7;background-color:hsl(78.1578947368, 58.4615384615%, 84.5098039216%);}#mermaid-0 .relationshipLabelBox rect{opacity:0.5;}#mermaid-0 .relationshipLine{stroke:#000000;}#mermaid-0 .entityTitleText{text-anchor:middle;font-size:18px;fill:#000000;}#mermaid-0 :root{--mermaid-font-family:"trebuchet ms",verdana,arial,sans-serif;}</style><g/><defs><marker orient="auto" markerHeight="18" markerWidth="18" refY="9" refX="0" id="ONLY_ONE_START"><path d="M9,0 L9,18 M15,0 L15,18" fill="none" stroke="gray"/></marker></defs><defs><marker orient="auto" markerHeight="18" markerWidth="18" refY="9" refX="18" id="ONLY_ONE_END"><path d="M3,0 L3,18 M9,0 L9,18" fill="none" stroke="gray"/></marker></defs><defs><marker orient="auto" markerHeight="18" markerWidth="30" refY="9" refX="0" id="ZERO_OR_ONE_START"><circle r="6" cy="9" cx="21" fill="white" stroke="gray"/><path d="M9,0 L9,18" fill="none" stroke="gray"/></marker></defs><defs><marker orient="auto" markerHeight="18" markerWidth="30" refY="9" refX="30" id="ZERO_OR_ONE_END"><circle r="6" cy="9" cx="9" fill="white" stroke="gray"/><path d="M21,0 L21,18" fill="none" stroke="gray"/></marker></defs><defs><marker orient="auto" markerHeight="36" markerWidth="45" refY="18" refX="18" id="ONE_OR_MORE_START"><path d="M0,18 Q 18,0 36,18 Q 18,36 0,18 M42,9 L42,27" fill="none" stroke="gray"/></marker></defs><defs><marker orient="auto" markerHeight="36" markerWidth="45" refY="18" refX="27" id="ONE_OR_MORE_END"><path d="M3,9 L3,27 M9,18 Q27,0 45,18 Q27,36 9,18" fill="none" stroke="gray"/></marker></defs><defs><marker orient="auto" markerHeight="36" markerWidth="57" refY="18" refX="18" id="ZERO_OR_MORE_START"><circle r="6" cy="18" cx="48" fill="white" stroke="gray"/><path d="M0,18 Q18,0 36,18 Q18,36 0,18" fill="none" stroke="gray"/></marker></defs><defs><marker orient="auto" markerHeight="36" markerWidth="57" refY="18" refX="39" id="ZERO_OR_MORE_END"><circle r="6" cy="18" cx="9" fill="white" stroke="gray"/><path d="M21,18 Q39,0 57,18 Q39,36 21,18" fill="none" stroke="gray"/></marker></defs><path style="stroke: gray; fill: none;" marker-start="url(#ZERO_OR_MORE_START)" marker-end="url(#ONLY_ONE_END)" d="M169.65625,666L169.65625,674.3333333333334C169.65625,682.6666666666666,169.65625,699.3333333333334,213.26627604166666,724.6801479488371C256.8763020833333,750.0269625643408,344.0963541666667,784.0539251286814,387.7063802083333,801.0674064108517L431.31640625,818.0808876930221" class="er relationshipLine"/><path style="stroke: gray; fill: none;" marker-start="url(#ZERO_OR_MORE_START)" marker-end="url(#ONLY_ONE_END)" d="M86.4375,432L86.4375,440.3333333333333C86.4375,448.6666666666667,86.4375,465.3333333333333,92.36476139601139,482C98.29202279202279,498.6666666666667,110.14654558404557,515.3333333333334,116.07380698005697,523.6666666666666L122.00106837606837,532" class="er relationshipLine"/><path style="stroke: gray; fill: none;" marker-start="url(#ZERO_OR_MORE_START)" marker-end="url(#ONLY_ONE_END)" d="M291.9609375,175.97L285.4466145833333,184.3083333333333C278.9322916666667,192.64666666666668,265.9036458333333,209.32333333333335,259.3893229166667,238.995C252.875,268.6666666666667,252.875,311.3333333333333,252.875,354C252.875,396.6666666666667,252.875,439.3333333333333,246.9477386039886,469C241.02047720797722,498.6666666666667,229.16595441595442,515.3333333333334,223.23869301994304,523.6666666666666L217.31143162393164,532" class="er relationshipLine"/><path style="stroke: gray; fill: none;" marker-start="url(#ZERO_OR_MORE_START)" marker-end="url(#ONLY_ONE_END)" d="M373.11767578125,176L375.2803548177083,184.33333333333334C377.4430338541667,192.66666666666666,381.7683919270833,209.33333333333334,388.6185709635417,229.66666666666666C395.46875,250,404.84375,274,409.53125,286L414.21875,298" class="er relationshipLine"/><path style="stroke: gray; fill: none;" marker-start="url(#ZERO_OR_MORE_START)" marker-end="url(#ONLY_ONE_END)" d="M413.7890625,156.5277973258269L425.83984375,168.1064977715224C437.890625,179.68519821721793,461.9921875,202.84259910860897,469.35546875,226.42129955430448C476.71875,250,467.34375,274,462.65625,286L457.96875,298" class="er relationshipLine"/><path style="stroke: gray; fill: none;" marker-start="url(#ZERO_OR_MORE_START)" marker-end="url(#ONLY_ONE_END)" d="M436.09375,410L436.09375,422C436.09375,434,436.09375,458,406.6588541666667,482.9256685432794C377.2239583333333,507.8513370865588,318.3541666666667,533.7026741731175,288.9192708333333,546.6283427163969L259.484375,559.5540112596763" class="er relationshipLine"/><path style="stroke: gray; fill: none;" marker-start="url(#ZERO_OR_MORE_START)" marker-end="url(#ONLY_ONE_END)" d="M414.53515625,633L414.53515625,646.8333333333334C414.53515625,660.6666666666666,414.53515625,688.3333333333334,419.9530436197917,710.5C425.3709309895833,732.6666666666666,436.2067057291667,749.3333333333334,441.6245930989583,757.6666666666666L447.04248046875,766" class="er relationshipLine"/><path style="stroke: gray; fill: none;" marker-start="url(#ZERO_OR_MORE_START)" marker-end="url(#ONLY_ONE_END)" d="M636.0234375,666L636.0234375,674.3333333333334C636.0234375,682.6666666666666,636.0234375,699.3333333333334,624.0514322916666,718.7494891280807C612.0794270833334,738.1656449228277,588.1354166666666,760.3312898456555,576.1634114583334,771.4141123070694L564.19140625,782.4969347684832" class="er relationshipLine"/><g transform="translate(431.31640625,766 )" id="entity-User-818c511a-4a32-5484-ba70-875d765a9175"><rect height="156" width="132.875" y="0" x="0" class="er entityBox"/><text style="dominant-baseline: middle; text-anchor: middle; font-size: 12px;" transform="translate(66.4375,12)" y="0" x="0" id="text-entity-User-818c511a-4a32-5484-ba70-875d765a9175" class="er entityLabel">User</text><rect height="22" width="53.6640625" y="24" x="0" class="er attributeBoxOdd"/><text style="dominant-baseline: middle; font-size: 10.2px;" transform="translate(5,35)" y="0" x="0" id="text-entity-User-818c511a-4a32-5484-ba70-875d765a9175-attr-1-type" class="er entityLabel">String</text><rect height="22" width="57.6484375" y="24" x="53.6640625" class="er attributeBoxOdd"/><text style="dominant-baseline: middle; font-size: 10.2px;" transform="translate(58.6640625,35)" y="0" x="0" id="text-entity-User-818c511a-4a32-5484-ba70-875d765a9175-attr-1-name" class="er entityLabel">firstName</text><rect height="22" width="21.5625" y="24" x="111.3125" class="er attributeBoxOdd"/><text style="dominant-baseline: middle; font-size: 10.2px;" transform="translate(116.3125,35)" y="0" x="0" id="text-entity-User-818c511a-4a32-5484-ba70-875d765a9175-attr-1-key" class="er entityLabel"/><rect height="22" width="53.6640625" y="46" x="0" class="er attributeBoxEven"/><text style="dominant-baseline: middle; font-size: 10.2px;" transform="translate(5,57)" y="0" x="0" id="text-entity-User-818c511a-4a32-5484-ba70-875d765a9175-attr-2-type" class="er entityLabel">String</text><rect height="22" width="57.6484375" y="46" x="53.6640625" class="er attributeBoxEven"/><text style="dominant-baseline: middle; font-size: 10.2px;" transform="translate(58.6640625,57)" y="0" x="0" id="text-entity-User-818c511a-4a32-5484-ba70-875d765a9175-attr-2-name" class="er entityLabel">lastName</text><rect height="22" width="21.5625" y="46" x="111.3125" class="er attributeBoxEven"/><text style="dominant-baseline: middle; font-size: 10.2px;" transform="translate(116.3125,57)" y="0" x="0" id="text-entity-User-818c511a-4a32-5484-ba70-875d765a9175-attr-2-key" class="er entityLabel"/><rect height="22" width="53.6640625" y="68" x="0" class="er attributeBoxOdd"/><text style="dominant-baseline: middle; font-size: 10.2px;" transform="translate(5,79)" y="0" x="0" id="text-entity-User-818c511a-4a32-5484-ba70-875d765a9175-attr-3-type" class="er entityLabel">String</text><rect height="22" width="57.6484375" y="68" x="53.6640625" class="er attributeBoxOdd"/><text style="dominant-baseline: middle; font-size: 10.2px;" transform="translate(58.6640625,79)" y="0" x="0" id="text-entity-User-818c511a-4a32-5484-ba70-875d765a9175-attr-3-name" class="er entityLabel">email</text><rect height="22" width="21.5625" y="68" x="111.3125" class="er attributeBoxOdd"/><text style="dominant-baseline: middle; font-size: 10.2px;" transform="translate(116.3125,79)" y="0" x="0" id="text-entity-User-818c511a-4a32-5484-ba70-875d765a9175-attr-3-key" class="er entityLabel"/><rect height="22" width="53.6640625" y="90" x="0" class="er attributeBoxEven"/><text style="dominant-baseline: middle; font-size: 10.2px;" transform="translate(5,101)" y="0" x="0" id="text-entity-User-818c511a-4a32-5484-ba70-875d765a9175-attr-4-type" class="er entityLabel">DateTime</text><rect height="22" width="57.6484375" y="90" x="53.6640625" class="er attributeBoxEven"/><text style="dominant-baseline: middle; font-size: 10.2px;" transform="translate(58.6640625,101)" y="0" x="0" id="text-entity-User-818c511a-4a32-5484-ba70-875d765a9175-attr-4-name" class="er entityLabel">updatedAt</text><rect height="22" width="21.5625" y="90" x="111.3125" class="er attributeBoxEven"/><text style="dominant-baseline: middle; font-size: 10.2px;" transform="translate(116.3125,101)" y="0" x="0" id="text-entity-User-818c511a-4a32-5484-ba70-875d765a9175-attr-4-key" class="er entityLabel"/><rect height="22" width="53.6640625" y="112" x="0" class="er attributeBoxOdd"/><text style="dominant-baseline: middle; font-size: 10.2px;" transform="translate(5,123)" y="0" x="0" id="text-entity-User-818c511a-4a32-5484-ba70-875d765a9175-attr-5-type" class="er entityLabel">DateTime</text><rect height="22" width="57.6484375" y="112" x="53.6640625" class="er attributeBoxOdd"/><text style="dominant-baseline: middle; font-size: 10.2px;" transform="translate(58.6640625,123)" y="0" x="0" id="text-entity-User-818c511a-4a32-5484-ba70-875d765a9175-attr-5-name" class="er entityLabel">createdAt</text><rect height="22" width="21.5625" y="112" x="111.3125" class="er attributeBoxOdd"/><text style="dominant-baseline: middle; font-size: 10.2px;" transform="translate(116.3125,123)" y="0" x="0" id="text-entity-User-818c511a-4a32-5484-ba70-875d765a9175-attr-5-key" class="er entityLabel"/><rect height="22" width="53.6640625" y="134" x="0" class="er attributeBoxEven"/><text style="dominant-baseline: middle; font-size: 10.2px;" transform="translate(5,145)" y="0" x="0" id="text-entity-User-818c511a-4a32-5484-ba70-875d765a9175-attr-6-type" class="er entityLabel">String</text><rect height="22" width="57.6484375" y="134" x="53.6640625" class="er attributeBoxEven"/><text style="dominant-baseline: middle; font-size: 10.2px;" transform="translate(58.6640625,145)" y="0" x="0" id="text-entity-User-818c511a-4a32-5484-ba70-875d765a9175-attr-6-name" class="er entityLabel">id</text><rect height="22" width="21.5625" y="134" x="111.3125" class="er attributeBoxEven"/><text style="dominant-baseline: middle; font-size: 10.2px;" transform="translate(116.3125,145)" y="0" x="0" id="text-entity-User-818c511a-4a32-5484-ba70-875d765a9175-attr-6-key" class="er entityLabel">PK</text></g><g transform="translate(79.828125,532 )" id="entity-Tournament-debdbd13-4480-5320-a1b3-085b30baa76b"><rect height="134" width="179.65625" y="0" x="0" class="er entityBox"/><text style="dominant-baseline: middle; text-anchor: middle; font-size: 12px;" transform="translate(89.828125,12)" y="0" x="0" id="text-entity-Tournament-debdbd13-4480-5320-a1b3-085b30baa76b" class="er entityLabel">Tournament</text><rect height="22" width="53.6640625" y="24" x="0" class="er attributeBoxOdd"/><text style="dominant-baseline: middle; font-size: 10.2px;" transform="translate(5,35)" y="0" x="0" id="text-entity-Tournament-debdbd13-4480-5320-a1b3-085b30baa76b-attr-1-type" class="er entityLabel">String</text><rect height="22" width="57.6484375" y="24" x="53.6640625" class="er attributeBoxOdd"/><text style="dominant-baseline: middle; font-size: 10.2px;" transform="translate(58.6640625,35)" y="0" x="0" id="text-entity-Tournament-debdbd13-4480-5320-a1b3-085b30baa76b-attr-1-name" class="er entityLabel">name</text><rect height="22" width="21.5625" y="24" x="111.3125" class="er attributeBoxOdd"/><text style="dominant-baseline: middle; font-size: 10.2px;" transform="translate(116.3125,35)" y="0" x="0" id="text-entity-Tournament-debdbd13-4480-5320-a1b3-085b30baa76b-attr-1-key" class="er entityLabel"/><rect height="22" width="46.78125" y="24" x="132.875" class="er attributeBoxOdd"/><text style="dominant-baseline: middle; font-size: 10.2px;" transform="translate(137.875,35)" y="0" x="0" id="text-entity-Tournament-debdbd13-4480-5320-a1b3-085b30baa76b-attr-1-comment" class="er entityLabel"/><rect height="22" width="53.6640625" y="46" x="0" class="er attributeBoxEven"/><text style="dominant-baseline: middle; font-size: 10.2px;" transform="translate(5,57)" y="0" x="0" id="text-entity-Tournament-debdbd13-4480-5320-a1b3-085b30baa76b-attr-2-type" class="er entityLabel">String</text><rect height="22" width="57.6484375" y="46" x="53.6640625" class="er attributeBoxEven"/><text style="dominant-baseline: middle; font-size: 10.2px;" transform="translate(58.6640625,57)" y="0" x="0" id="text-entity-Tournament-debdbd13-4480-5320-a1b3-085b30baa76b-attr-2-name" class="er entityLabel">winner</text><rect height="22" width="21.5625" y="46" x="111.3125" class="er attributeBoxEven"/><text style="dominant-baseline: middle; font-size: 10.2px;" transform="translate(116.3125,57)" y="0" x="0" id="text-entity-Tournament-debdbd13-4480-5320-a1b3-085b30baa76b-attr-2-key" class="er entityLabel"/><rect height="22" width="46.78125" y="46" x="132.875" class="er attributeBoxEven"/><text style="dominant-baseline: middle; font-size: 10.2px;" transform="translate(137.875,57)" y="0" x="0" id="text-entity-Tournament-debdbd13-4480-5320-a1b3-085b30baa76b-attr-2-comment" class="er entityLabel">nullable</text><rect height="22" width="53.6640625" y="68" x="0" class="er attributeBoxOdd"/><text style="dominant-baseline: middle; font-size: 10.2px;" transform="translate(5,79)" y="0" x="0" id="text-entity-Tournament-debdbd13-4480-5320-a1b3-085b30baa76b-attr-3-type" class="er entityLabel">DateTime</text><rect height="22" width="57.6484375" y="68" x="53.6640625" class="er attributeBoxOdd"/><text style="dominant-baseline: middle; font-size: 10.2px;" transform="translate(58.6640625,79)" y="0" x="0" id="text-entity-Tournament-debdbd13-4480-5320-a1b3-085b30baa76b-attr-3-name" class="er entityLabel">updatedAt</text><rect height="22" width="21.5625" y="68" x="111.3125" class="er attributeBoxOdd"/><text style="dominant-baseline: middle; font-size: 10.2px;" transform="translate(116.3125,79)" y="0" x="0" id="text-entity-Tournament-debdbd13-4480-5320-a1b3-085b30baa76b-attr-3-key" class="er entityLabel"/><rect height="22" width="46.78125" y="68" x="132.875" class="er attributeBoxOdd"/><text style="dominant-baseline: middle; font-size: 10.2px;" transform="translate(137.875,79)" y="0" x="0" id="text-entity-Tournament-debdbd13-4480-5320-a1b3-085b30baa76b-attr-3-comment" class="er entityLabel"/><rect height="22" width="53.6640625" y="90" x="0" class="er attributeBoxEven"/><text style="dominant-baseline: middle; font-size: 10.2px;" transform="translate(5,101)" y="0" x="0" id="text-entity-Tournament-debdbd13-4480-5320-a1b3-085b30baa76b-attr-4-type" class="er entityLabel">DateTime</text><rect height="22" width="57.6484375" y="90" x="53.6640625" class="er attributeBoxEven"/><text style="dominant-baseline: middle; font-size: 10.2px;" transform="translate(58.6640625,101)" y="0" x="0" id="text-entity-Tournament-debdbd13-4480-5320-a1b3-085b30baa76b-attr-4-name" class="er entityLabel">createdAt</text><rect height="22" width="21.5625" y="90" x="111.3125" class="er attributeBoxEven"/><text style="dominant-baseline: middle; font-size: 10.2px;" transform="translate(116.3125,101)" y="0" x="0" id="text-entity-Tournament-debdbd13-4480-5320-a1b3-085b30baa76b-attr-4-key" class="er entityLabel"/><rect height="22" width="46.78125" y="90" x="132.875" class="er attributeBoxEven"/><text style="dominant-baseline: middle; font-size: 10.2px;" transform="translate(137.875,101)" y="0" x="0" id="text-entity-Tournament-debdbd13-4480-5320-a1b3-085b30baa76b-attr-4-comment" class="er entityLabel"/><rect height="22" width="53.6640625" y="112" x="0" class="er attributeBoxOdd"/><text style="dominant-baseline: middle; font-size: 10.2px;" transform="translate(5,123)" y="0" x="0" id="text-entity-Tournament-debdbd13-4480-5320-a1b3-085b30baa76b-attr-5-type" class="er entityLabel">String</text><rect height="22" width="57.6484375" y="112" x="53.6640625" class="er attributeBoxOdd"/><text style="dominant-baseline: middle; font-size: 10.2px;" transform="translate(58.6640625,123)" y="0" x="0" id="text-entity-Tournament-debdbd13-4480-5320-a1b3-085b30baa76b-attr-5-name" class="er entityLabel">id</text><rect height="22" width="21.5625" y="112" x="111.3125" class="er attributeBoxOdd"/><text style="dominant-baseline: middle; font-size: 10.2px;" transform="translate(116.3125,123)" y="0" x="0" id="text-entity-Tournament-debdbd13-4480-5320-a1b3-085b30baa76b-attr-5-key" class="er entityLabel">PK</text><rect height="22" width="46.78125" y="112" x="132.875" class="er attributeBoxOdd"/><text style="dominant-baseline: middle; font-size: 10.2px;" transform="translate(137.875,123)" y="0" x="0" id="text-entity-Tournament-debdbd13-4480-5320-a1b3-085b30baa76b-attr-5-comment" class="er entityLabel"/></g><g transform="translate(20,276 )" id="entity-Participant-1b15d7dd-2236-59ff-b08e-47bf86f1c4ca"><rect height="156" width="132.875" y="0" x="0" class="er entityBox"/><text style="dominant-baseline: middle; text-anchor: middle; font-size: 12px;" transform="translate(66.4375,12)" y="0" x="0" id="text-entity-Participant-1b15d7dd-2236-59ff-b08e-47bf86f1c4ca" class="er entityLabel">Participant</text><rect height="22" width="53.6640625" y="24" x="0" class="er attributeBoxOdd"/><text style="dominant-baseline: middle; font-size: 10.2px;" transform="translate(5,35)" y="0" x="0" id="text-entity-Participant-1b15d7dd-2236-59ff-b08e-47bf86f1c4ca-attr-1-type" class="er entityLabel">String</text><rect height="22" width="57.6484375" y="24" x="53.6640625" class="er attributeBoxOdd"/><text style="dominant-baseline: middle; font-size: 10.2px;" transform="translate(58.6640625,35)" y="0" x="0" id="text-entity-Participant-1b15d7dd-2236-59ff-b08e-47bf86f1c4ca-attr-1-name" class="er entityLabel">name</text><rect height="22" width="21.5625" y="24" x="111.3125" class="er attributeBoxOdd"/><text style="dominant-baseline: middle; font-size: 10.2px;" transform="translate(116.3125,35)" y="0" x="0" id="text-entity-Participant-1b15d7dd-2236-59ff-b08e-47bf86f1c4ca-attr-1-key" class="er entityLabel"/><rect height="22" width="53.6640625" y="46" x="0" class="er attributeBoxEven"/><text style="dominant-baseline: middle; font-size: 10.2px;" transform="translate(5,57)" y="0" x="0" id="text-entity-Participant-1b15d7dd-2236-59ff-b08e-47bf86f1c4ca-attr-2-type" class="er entityLabel">String</text><rect height="22" width="57.6484375" y="46" x="53.6640625" class="er attributeBoxEven"/><text style="dominant-baseline: middle; font-size: 10.2px;" transform="translate(58.6640625,57)" y="0" x="0" id="text-entity-Participant-1b15d7dd-2236-59ff-b08e-47bf86f1c4ca-attr-2-name" class="er entityLabel">group</text><rect height="22" width="21.5625" y="46" x="111.3125" class="er attributeBoxEven"/><text style="dominant-baseline: middle; font-size: 10.2px;" transform="translate(116.3125,57)" y="0" x="0" id="text-entity-Participant-1b15d7dd-2236-59ff-b08e-47bf86f1c4ca-attr-2-key" class="er entityLabel"/><rect height="22" width="53.6640625" y="68" x="0" class="er attributeBoxOdd"/><text style="dominant-baseline: middle; font-size: 10.2px;" transform="translate(5,79)" y="0" x="0" id="text-entity-Participant-1b15d7dd-2236-59ff-b08e-47bf86f1c4ca-attr-3-type" class="er entityLabel">DateTime</text><rect height="22" width="57.6484375" y="68" x="53.6640625" class="er attributeBoxOdd"/><text style="dominant-baseline: middle; font-size: 10.2px;" transform="translate(58.6640625,79)" y="0" x="0" id="text-entity-Participant-1b15d7dd-2236-59ff-b08e-47bf86f1c4ca-attr-3-name" class="er entityLabel">updatedAt</text><rect height="22" width="21.5625" y="68" x="111.3125" class="er attributeBoxOdd"/><text style="dominant-baseline: middle; font-size: 10.2px;" transform="translate(116.3125,79)" y="0" x="0" id="text-entity-Participant-1b15d7dd-2236-59ff-b08e-47bf86f1c4ca-attr-3-key" class="er entityLabel"/><rect height="22" width="53.6640625" y="90" x="0" class="er attributeBoxEven"/><text style="dominant-baseline: middle; font-size: 10.2px;" transform="translate(5,101)" y="0" x="0" id="text-entity-Participant-1b15d7dd-2236-59ff-b08e-47bf86f1c4ca-attr-4-type" class="er entityLabel">Int</text><rect height="22" width="57.6484375" y="90" x="53.6640625" class="er attributeBoxEven"/><text style="dominant-baseline: middle; font-size: 10.2px;" transform="translate(58.6640625,101)" y="0" x="0" id="text-entity-Participant-1b15d7dd-2236-59ff-b08e-47bf86f1c4ca-attr-4-name" class="er entityLabel">score</text><rect height="22" width="21.5625" y="90" x="111.3125" class="er attributeBoxEven"/><text style="dominant-baseline: middle; font-size: 10.2px;" transform="translate(116.3125,101)" y="0" x="0" id="text-entity-Participant-1b15d7dd-2236-59ff-b08e-47bf86f1c4ca-attr-4-key" class="er entityLabel"/><rect height="22" width="53.6640625" y="112" x="0" class="er attributeBoxOdd"/><text style="dominant-baseline: middle; font-size: 10.2px;" transform="translate(5,123)" y="0" x="0" id="text-entity-Participant-1b15d7dd-2236-59ff-b08e-47bf86f1c4ca-attr-5-type" class="er entityLabel">DateTime</text><rect height="22" width="57.6484375" y="112" x="53.6640625" class="er attributeBoxOdd"/><text style="dominant-baseline: middle; font-size: 10.2px;" transform="translate(58.6640625,123)" y="0" x="0" id="text-entity-Participant-1b15d7dd-2236-59ff-b08e-47bf86f1c4ca-attr-5-name" class="er entityLabel">createdAt</text><rect height="22" width="21.5625" y="112" x="111.3125" class="er attributeBoxOdd"/><text style="dominant-baseline: middle; font-size: 10.2px;" transform="translate(116.3125,123)" y="0" x="0" id="text-entity-Participant-1b15d7dd-2236-59ff-b08e-47bf86f1c4ca-attr-5-key" class="er entityLabel"/><rect height="22" width="53.6640625" y="134" x="0" class="er attributeBoxEven"/><text style="dominant-baseline: middle; font-size: 10.2px;" transform="translate(5,145)" y="0" x="0" id="text-entity-Participant-1b15d7dd-2236-59ff-b08e-47bf86f1c4ca-attr-6-type" class="er entityLabel">String</text><rect height="22" width="57.6484375" y="134" x="53.6640625" class="er attributeBoxEven"/><text style="dominant-baseline: middle; font-size: 10.2px;" transform="translate(58.6640625,145)" y="0" x="0" id="text-entity-Participant-1b15d7dd-2236-59ff-b08e-47bf86f1c4ca-attr-6-name" class="er entityLabel">id</text><rect height="22" width="21.5625" y="134" x="111.3125" class="er attributeBoxEven"/><text style="dominant-baseline: middle; font-size: 10.2px;" transform="translate(116.3125,145)" y="0" x="0" id="text-entity-Participant-1b15d7dd-2236-59ff-b08e-47bf86f1c4ca-attr-6-key" class="er entityLabel">PK</text></g><g transform="translate(291.9609375,20 )" id="entity-Games-51bbeccb-5d0e-5638-901f-8dd2836655e5"><rect height="156" width="121.828125" y="0" x="0" class="er entityBox"/><text style="dominant-baseline: middle; text-anchor: middle; font-size: 12px;" transform="translate(60.9140625,12)" y="0" x="0" id="text-entity-Games-51bbeccb-5d0e-5638-901f-8dd2836655e5" class="er entityLabel">Games</text><rect height="22" width="36.5234375" y="24" x="0" class="er attributeBoxOdd"/><text style="dominant-baseline: middle; font-size: 10.2px;" transform="translate(5,35)" y="0" x="0" id="text-entity-Games-51bbeccb-5d0e-5638-901f-8dd2836655e5-attr-1-type" class="er entityLabel">Int</text><rect height="22" width="63.7421875" y="24" x="36.5234375" class="er attributeBoxOdd"/><text style="dominant-baseline: middle; font-size: 10.2px;" transform="translate(41.5234375,35)" y="0" x="0" id="text-entity-Games-51bbeccb-5d0e-5638-901f-8dd2836655e5-attr-1-name" class="er entityLabel">gameOrder</text><rect height="22" width="21.5625" y="24" x="100.265625" class="er attributeBoxOdd"/><text style="dominant-baseline: middle; font-size: 10.2px;" transform="translate(105.265625,35)" y="0" x="0" id="text-entity-Games-51bbeccb-5d0e-5638-901f-8dd2836655e5-attr-1-key" class="er entityLabel"/><rect height="22" width="36.5234375" y="46" x="0" class="er attributeBoxEven"/><text style="dominant-baseline: middle; font-size: 10.2px;" transform="translate(5,57)" y="0" x="0" id="text-entity-Games-51bbeccb-5d0e-5638-901f-8dd2836655e5-attr-2-type" class="er entityLabel">String</text><rect height="22" width="63.7421875" y="46" x="36.5234375" class="er attributeBoxEven"/><text style="dominant-baseline: middle; font-size: 10.2px;" transform="translate(41.5234375,57)" y="0" x="0" id="text-entity-Games-51bbeccb-5d0e-5638-901f-8dd2836655e5-attr-2-name" class="er entityLabel">group</text><rect height="22" width="21.5625" y="46" x="100.265625" class="er attributeBoxEven"/><text style="dominant-baseline: middle; font-size: 10.2px;" transform="translate(105.265625,57)" y="0" x="0" id="text-entity-Games-51bbeccb-5d0e-5638-901f-8dd2836655e5-attr-2-key" class="er entityLabel"/><rect height="22" width="36.5234375" y="68" x="0" class="er attributeBoxOdd"/><text style="dominant-baseline: middle; font-size: 10.2px;" transform="translate(5,79)" y="0" x="0" id="text-entity-Games-51bbeccb-5d0e-5638-901f-8dd2836655e5-attr-3-type" class="er entityLabel">Int</text><rect height="22" width="63.7421875" y="68" x="36.5234375" class="er attributeBoxOdd"/><text style="dominant-baseline: middle; font-size: 10.2px;" transform="translate(41.5234375,79)" y="0" x="0" id="text-entity-Games-51bbeccb-5d0e-5638-901f-8dd2836655e5-attr-3-name" class="er entityLabel">team1Score</text><rect height="22" width="21.5625" y="68" x="100.265625" class="er attributeBoxOdd"/><text style="dominant-baseline: middle; font-size: 10.2px;" transform="translate(105.265625,79)" y="0" x="0" id="text-entity-Games-51bbeccb-5d0e-5638-901f-8dd2836655e5-attr-3-key" class="er entityLabel"/><rect height="22" width="36.5234375" y="90" x="0" class="er attributeBoxEven"/><text style="dominant-baseline: middle; font-size: 10.2px;" transform="translate(5,101)" y="0" x="0" id="text-entity-Games-51bbeccb-5d0e-5638-901f-8dd2836655e5-attr-4-type" class="er entityLabel">Int</text><rect height="22" width="63.7421875" y="90" x="36.5234375" class="er attributeBoxEven"/><text style="dominant-baseline: middle; font-size: 10.2px;" transform="translate(41.5234375,101)" y="0" x="0" id="text-entity-Games-51bbeccb-5d0e-5638-901f-8dd2836655e5-attr-4-name" class="er entityLabel">team2Score</text><rect height="22" width="21.5625" y="90" x="100.265625" class="er attributeBoxEven"/><text style="dominant-baseline: middle; font-size: 10.2px;" transform="translate(105.265625,101)" y="0" x="0" id="text-entity-Games-51bbeccb-5d0e-5638-901f-8dd2836655e5-attr-4-key" class="er entityLabel"/><rect height="22" width="36.5234375" y="112" x="0" class="er attributeBoxOdd"/><text style="dominant-baseline: middle; font-size: 10.2px;" transform="translate(5,123)" y="0" x="0" id="text-entity-Games-51bbeccb-5d0e-5638-901f-8dd2836655e5-attr-5-type" class="er entityLabel">String</text><rect height="22" width="63.7421875" y="112" x="36.5234375" class="er attributeBoxOdd"/><text style="dominant-baseline: middle; font-size: 10.2px;" transform="translate(41.5234375,123)" y="0" x="0" id="text-entity-Games-51bbeccb-5d0e-5638-901f-8dd2836655e5-attr-5-name" class="er entityLabel">winnerIds</text><rect height="22" width="21.5625" y="112" x="100.265625" class="er attributeBoxOdd"/><text style="dominant-baseline: middle; font-size: 10.2px;" transform="translate(105.265625,123)" y="0" x="0" id="text-entity-Games-51bbeccb-5d0e-5638-901f-8dd2836655e5-attr-5-key" class="er entityLabel"/><rect height="22" width="36.5234375" y="134" x="0" class="er attributeBoxEven"/><text style="dominant-baseline: middle; font-size: 10.2px;" transform="translate(5,145)" y="0" x="0" id="text-entity-Games-51bbeccb-5d0e-5638-901f-8dd2836655e5-attr-6-type" class="er entityLabel">String</text><rect height="22" width="63.7421875" y="134" x="36.5234375" class="er attributeBoxEven"/><text style="dominant-baseline: middle; font-size: 10.2px;" transform="translate(41.5234375,145)" y="0" x="0" id="text-entity-Games-51bbeccb-5d0e-5638-901f-8dd2836655e5-attr-6-name" class="er entityLabel">id</text><rect height="22" width="21.5625" y="134" x="100.265625" class="er attributeBoxEven"/><text style="dominant-baseline: middle; font-size: 10.2px;" transform="translate(105.265625,145)" y="0" x="0" id="text-entity-Games-51bbeccb-5d0e-5638-901f-8dd2836655e5-attr-6-key" class="er entityLabel">PK</text></g><g transform="translate(369.65625,298 )" id="entity-Team-bf3f5416-76e3-5dc0-89d0-070d82786f59"><rect height="112" width="132.875" y="0" x="0" class="er entityBox"/><text style="dominant-baseline: middle; text-anchor: middle; font-size: 12px;" transform="translate(66.4375,12)" y="0" x="0" id="text-entity-Team-bf3f5416-76e3-5dc0-89d0-070d82786f59" class="er entityLabel">Team</text><rect height="22" width="53.6640625" y="24" x="0" class="er attributeBoxOdd"/><text style="dominant-baseline: middle; font-size: 10.2px;" transform="translate(5,35)" y="0" x="0" id="text-entity-Team-bf3f5416-76e3-5dc0-89d0-070d82786f59-attr-1-type" class="er entityLabel">String</text><rect height="22" width="57.6484375" y="24" x="53.6640625" class="er attributeBoxOdd"/><text style="dominant-baseline: middle; font-size: 10.2px;" transform="translate(58.6640625,35)" y="0" x="0" id="text-entity-Team-bf3f5416-76e3-5dc0-89d0-070d82786f59-attr-1-name" class="er entityLabel">name</text><rect height="22" width="21.5625" y="24" x="111.3125" class="er attributeBoxOdd"/><text style="dominant-baseline: middle; font-size: 10.2px;" transform="translate(116.3125,35)" y="0" x="0" id="text-entity-Team-bf3f5416-76e3-5dc0-89d0-070d82786f59-attr-1-key" class="er entityLabel"/><rect height="22" width="53.6640625" y="46" x="0" class="er attributeBoxEven"/><text style="dominant-baseline: middle; font-size: 10.2px;" transform="translate(5,57)" y="0" x="0" id="text-entity-Team-bf3f5416-76e3-5dc0-89d0-070d82786f59-attr-2-type" class="er entityLabel">DateTime</text><rect height="22" width="57.6484375" y="46" x="53.6640625" class="er attributeBoxEven"/><text style="dominant-baseline: middle; font-size: 10.2px;" transform="translate(58.6640625,57)" y="0" x="0" id="text-entity-Team-bf3f5416-76e3-5dc0-89d0-070d82786f59-attr-2-name" class="er entityLabel">updatedAt</text><rect height="22" width="21.5625" y="46" x="111.3125" class="er attributeBoxEven"/><text style="dominant-baseline: middle; font-size: 10.2px;" transform="translate(116.3125,57)" y="0" x="0" id="text-entity-Team-bf3f5416-76e3-5dc0-89d0-070d82786f59-attr-2-key" class="er entityLabel"/><rect height="22" width="53.6640625" y="68" x="0" class="er attributeBoxOdd"/><text style="dominant-baseline: middle; font-size: 10.2px;" transform="translate(5,79)" y="0" x="0" id="text-entity-Team-bf3f5416-76e3-5dc0-89d0-070d82786f59-attr-3-type" class="er entityLabel">DateTime</text><rect height="22" width="57.6484375" y="68" x="53.6640625" class="er attributeBoxOdd"/><text style="dominant-baseline: middle; font-size: 10.2px;" transform="translate(58.6640625,79)" y="0" x="0" id="text-entity-Team-bf3f5416-76e3-5dc0-89d0-070d82786f59-attr-3-name" class="er entityLabel">createdAt</text><rect height="22" width="21.5625" y="68" x="111.3125" class="er attributeBoxOdd"/><text style="dominant-baseline: middle; font-size: 10.2px;" transform="translate(116.3125,79)" y="0" x="0" id="text-entity-Team-bf3f5416-76e3-5dc0-89d0-070d82786f59-attr-3-key" class="er entityLabel"/><rect height="22" width="53.6640625" y="90" x="0" class="er attributeBoxEven"/><text style="dominant-baseline: middle; font-size: 10.2px;" transform="translate(5,101)" y="0" x="0" id="text-entity-Team-bf3f5416-76e3-5dc0-89d0-070d82786f59-attr-4-type" class="er entityLabel">String</text><rect height="22" width="57.6484375" y="90" x="53.6640625" class="er attributeBoxEven"/><text style="dominant-baseline: middle; font-size: 10.2px;" transform="translate(58.6640625,101)" y="0" x="0" id="text-entity-Team-bf3f5416-76e3-5dc0-89d0-070d82786f59-attr-4-name" class="er entityLabel">id</text><rect height="22" width="21.5625" y="90" x="111.3125" class="er attributeBoxEven"/><text style="dominant-baseline: middle; font-size: 10.2px;" transform="translate(116.3125,101)" y="0" x="0" id="text-entity-Team-bf3f5416-76e3-5dc0-89d0-070d82786f59-attr-4-key" class="er entityLabel">PK</text></g><g transform="translate(359.484375,565 )" id="entity-Password-21901b32-bf0e-536e-bcdd-09ed9082306b"><rect height="68" width="110.1015625" y="0" x="0" class="er entityBox"/><text style="dominant-baseline: middle; text-anchor: middle; font-size: 12px;" transform="translate(55.05078125,12)" y="0" x="0" id="text-entity-Password-21901b32-bf0e-536e-bcdd-09ed9082306b" class="er entityLabel">Password</text><rect height="22" width="36.5234375" y="24" x="0" class="er attributeBoxOdd"/><text style="dominant-baseline: middle; font-size: 10.2px;" transform="translate(5,35)" y="0" x="0" id="text-entity-Password-21901b32-bf0e-536e-bcdd-09ed9082306b-attr-1-type" class="er entityLabel">String</text><rect height="22" width="52.015625" y="24" x="36.5234375" class="er attributeBoxOdd"/><text style="dominant-baseline: middle; font-size: 10.2px;" transform="translate(41.5234375,35)" y="0" x="0" id="text-entity-Password-21901b32-bf0e-536e-bcdd-09ed9082306b-attr-1-name" class="er entityLabel">password</text><rect height="22" width="21.5625" y="24" x="88.5390625" class="er attributeBoxOdd"/><text style="dominant-baseline: middle; font-size: 10.2px;" transform="translate(93.5390625,35)" y="0" x="0" id="text-entity-Password-21901b32-bf0e-536e-bcdd-09ed9082306b-attr-1-key" class="er entityLabel"/><rect height="22" width="36.5234375" y="46" x="0" class="er attributeBoxEven"/><text style="dominant-baseline: middle; font-size: 10.2px;" transform="translate(5,57)" y="0" x="0" id="text-entity-Password-21901b32-bf0e-536e-bcdd-09ed9082306b-attr-2-type" class="er entityLabel">String</text><rect height="22" width="52.015625" y="46" x="36.5234375" class="er attributeBoxEven"/><text style="dominant-baseline: middle; font-size: 10.2px;" transform="translate(41.5234375,57)" y="0" x="0" id="text-entity-Password-21901b32-bf0e-536e-bcdd-09ed9082306b-attr-2-name" class="er entityLabel">id</text><rect height="22" width="21.5625" y="46" x="88.5390625" class="er attributeBoxEven"/><text style="dominant-baseline: middle; font-size: 10.2px;" transform="translate(93.5390625,57)" y="0" x="0" id="text-entity-Password-21901b32-bf0e-536e-bcdd-09ed9082306b-attr-2-key" class="er entityLabel">PK</text></g><g transform="translate(569.5859375,532 )" id="entity-LoginToken-c7a39e19-9df2-533a-90f3-2ed3bbae3620"><rect height="134" width="132.875" y="0" x="0" class="er entityBox"/><text style="dominant-baseline: middle; text-anchor: middle; font-size: 12px;" transform="translate(66.4375,12)" y="0" x="0" id="text-entity-LoginToken-c7a39e19-9df2-533a-90f3-2ed3bbae3620" class="er entityLabel">LoginToken</text><rect height="22" width="53.6640625" y="24" x="0" class="er attributeBoxOdd"/><text style="dominant-baseline: middle; font-size: 10.2px;" transform="translate(5,35)" y="0" x="0" id="text-entity-LoginToken-c7a39e19-9df2-533a-90f3-2ed3bbae3620-attr-1-type" class="er entityLabel">String</text><rect height="22" width="57.6484375" y="24" x="53.6640625" class="er attributeBoxOdd"/><text style="dominant-baseline: middle; font-size: 10.2px;" transform="translate(58.6640625,35)" y="0" x="0" id="text-entity-LoginToken-c7a39e19-9df2-533a-90f3-2ed3bbae3620-attr-1-name" class="er entityLabel">token</text><rect height="22" width="21.5625" y="24" x="111.3125" class="er attributeBoxOdd"/><text style="dominant-baseline: middle; font-size: 10.2px;" transform="translate(116.3125,35)" y="0" x="0" id="text-entity-LoginToken-c7a39e19-9df2-533a-90f3-2ed3bbae3620-attr-1-key" class="er entityLabel"/><rect height="22" width="53.6640625" y="46" x="0" class="er attributeBoxEven"/><text style="dominant-baseline: middle; font-size: 10.2px;" transform="translate(5,57)" y="0" x="0" id="text-entity-LoginToken-c7a39e19-9df2-533a-90f3-2ed3bbae3620-attr-2-type" class="er entityLabel">DateTime</text><rect height="22" width="57.6484375" y="46" x="53.6640625" class="er attributeBoxEven"/><text style="dominant-baseline: middle; font-size: 10.2px;" transform="translate(58.6640625,57)" y="0" x="0" id="text-entity-LoginToken-c7a39e19-9df2-533a-90f3-2ed3bbae3620-attr-2-name" class="er entityLabel">updatedAt</text><rect height="22" width="21.5625" y="46" x="111.3125" class="er attributeBoxEven"/><text style="dominant-baseline: middle; font-size: 10.2px;" transform="translate(116.3125,57)" y="0" x="0" id="text-entity-LoginToken-c7a39e19-9df2-533a-90f3-2ed3bbae3620-attr-2-key" class="er entityLabel"/><rect height="22" width="53.6640625" y="68" x="0" class="er attributeBoxOdd"/><text style="dominant-baseline: middle; font-size: 10.2px;" transform="translate(5,79)" y="0" x="0" id="text-entity-LoginToken-c7a39e19-9df2-533a-90f3-2ed3bbae3620-attr-3-type" class="er entityLabel">Boolean</text><rect height="22" width="57.6484375" y="68" x="53.6640625" class="er attributeBoxOdd"/><text style="dominant-baseline: middle; font-size: 10.2px;" transform="translate(58.6640625,79)" y="0" x="0" id="text-entity-LoginToken-c7a39e19-9df2-533a-90f3-2ed3bbae3620-attr-3-name" class="er entityLabel">isActive</text><rect height="22" width="21.5625" y="68" x="111.3125" class="er attributeBoxOdd"/><text style="dominant-baseline: middle; font-size: 10.2px;" transform="translate(116.3125,79)" y="0" x="0" id="text-entity-LoginToken-c7a39e19-9df2-533a-90f3-2ed3bbae3620-attr-3-key" class="er entityLabel"/><rect height="22" width="53.6640625" y="90" x="0" class="er attributeBoxEven"/><text style="dominant-baseline: middle; font-size: 10.2px;" transform="translate(5,101)" y="0" x="0" id="text-entity-LoginToken-c7a39e19-9df2-533a-90f3-2ed3bbae3620-attr-4-type" class="er entityLabel">DateTime</text><rect height="22" width="57.6484375" y="90" x="53.6640625" class="er attributeBoxEven"/><text style="dominant-baseline: middle; font-size: 10.2px;" transform="translate(58.6640625,101)" y="0" x="0" id="text-entity-LoginToken-c7a39e19-9df2-533a-90f3-2ed3bbae3620-attr-4-name" class="er entityLabel">createdAt</text><rect height="22" width="21.5625" y="90" x="111.3125" class="er attributeBoxEven"/><text style="dominant-baseline: middle; font-size: 10.2px;" transform="translate(116.3125,101)" y="0" x="0" id="text-entity-LoginToken-c7a39e19-9df2-533a-90f3-2ed3bbae3620-attr-4-key" class="er entityLabel"/><rect height="22" width="53.6640625" y="112" x="0" class="er attributeBoxOdd"/><text style="dominant-baseline: middle; font-size: 10.2px;" transform="translate(5,123)" y="0" x="0" id="text-entity-LoginToken-c7a39e19-9df2-533a-90f3-2ed3bbae3620-attr-5-type" class="er entityLabel">String</text><rect height="22" width="57.6484375" y="112" x="53.6640625" class="er attributeBoxOdd"/><text style="dominant-baseline: middle; font-size: 10.2px;" transform="translate(58.6640625,123)" y="0" x="0" id="text-entity-LoginToken-c7a39e19-9df2-533a-90f3-2ed3bbae3620-attr-5-name" class="er entityLabel">id</text><rect height="22" width="21.5625" y="112" x="111.3125" class="er attributeBoxOdd"/><text style="dominant-baseline: middle; font-size: 10.2px;" transform="translate(116.3125,123)" y="0" x="0" id="text-entity-LoginToken-c7a39e19-9df2-533a-90f3-2ed3bbae3620-attr-5-key" class="er entityLabel">PK</text></g><rect height="14" width="22.625" y="752.3363647460938" x="273.5872802734375" class="er relationshipLabelBox"/><text style="text-anchor: middle; dominant-baseline: middle; font-size: 12px;" y="759.3363647460938" x="284.8997802734375" id="rel1" class="er relationshipLabel">user</text><rect height="14" width="63.1015625" y="478.5888671875" x="62.17893981933594" class="er relationshipLabelBox"/><text style="text-anchor: middle; dominant-baseline: middle; font-size: 12px;" y="485.5888671875" x="93.72972106933594" id="rel2" class="er relationshipLabel">tournament</text><rect height="14" width="63.1015625" y="346.2551574707031" x="221.32437133789062" class="er relationshipLabelBox"/><text style="text-anchor: middle; dominant-baseline: middle; font-size: 12px;" y="353.2551574707031" x="252.87515258789062" id="rel3" class="er relationshipLabel">tournament</text><rect height="14" width="33.8671875" y="230.75189208984375" x="374.4704284667969" class="er relationshipLabelBox"/><text style="text-anchor: middle; dominant-baseline: middle; font-size: 12px;" y="237.75189208984375" x="391.4040222167969" id="rel4" class="er relationshipLabel">team1</text><rect height="14" width="33.8671875" y="211.89862060546875" x="449.526611328125" class="er relationshipLabelBox"/><text style="text-anchor: middle; dominant-baseline: middle; font-size: 12px;" y="218.89862060546875" x="466.460205078125" id="rel5" class="er relationshipLabel">team2</text><rect height="14" width="63.1015625" y="499.39031982421875" x="340.2518310546875" class="er relationshipLabelBox"/><text style="text-anchor: middle; dominant-baseline: middle; font-size: 12px;" y="506.39031982421875" x="371.8026123046875" id="rel6" class="er relationshipLabel">tournament</text><rect height="14" width="22.625" y="695.7906494140625" x="407.0016174316406" class="er relationshipLabelBox"/><text style="text-anchor: middle; dominant-baseline: middle; font-size: 12px;" y="702.7906494140625" x="418.3141174316406" id="rel7" class="er relationshipLabel">user</text><rect height="14" width="22.625" y="725.0075073242188" x="603.198486328125" class="er relationshipLabelBox"/><text style="text-anchor: middle; dominant-baseline: middle; font-size: 12px;" y="732.0075073242188" x="614.510986328125" id="rel8" class="er relationshipLabel">user</text></svg>