<svg aria-roledescription="er" role="graphics-document document" viewBox="0 0 764.61328125 686" style="max-width: 764.613px; background-color: white;" xmlns:xlink="http://www.w3.org/1999/xlink" xmlns="http://www.w3.org/2000/svg" width="100%" id="mermaid-0"><style>#mermaid-0{font-family:"trebuchet ms",verdana,arial,sans-serif;font-size:16px;fill:#000000;}#mermaid-0 .error-icon{fill:#552222;}#mermaid-0 .error-text{fill:#552222;stroke:#552222;}#mermaid-0 .edge-thickness-normal{stroke-width:2px;}#mermaid-0 .edge-thickness-thick{stroke-width:3.5px;}#mermaid-0 .edge-pattern-solid{stroke-dasharray:0;}#mermaid-0 .edge-pattern-dashed{stroke-dasharray:3;}#mermaid-0 .edge-pattern-dotted{stroke-dasharray:2;}#mermaid-0 .marker{fill:#000000;stroke:#000000;}#mermaid-0 .marker.cross{stroke:#000000;}#mermaid-0 svg{font-family:"trebuchet ms",verdana,arial,sans-serif;font-size:16px;}#mermaid-0 .entityBox{fill:#cde498;stroke:#13540c;}#mermaid-0 .attributeBoxOdd{fill:#ffffff;stroke:#13540c;}#mermaid-0 .attributeBoxEven{fill:#f2f2f2;stroke:#13540c;}#mermaid-0 .relationshipLabelBox{fill:hsl(78.1578947368, 58.4615384615%, 84.5098039216%);opacity:0.7;background-color:hsl(78.1578947368, 58.4615384615%, 84.5098039216%);}#mermaid-0 .relationshipLabelBox rect{opacity:0.5;}#mermaid-0 .relationshipLine{stroke:#000000;}#mermaid-0 .entityTitleText{text-anchor:middle;font-size:18px;fill:#000000;}#mermaid-0 :root{--mermaid-font-family:"trebuchet ms",verdana,arial,sans-serif;}</style><g/><defs><marker orient="auto" markerHeight="18" markerWidth="18" refY="9" refX="0" id="ONLY_ONE_START"><path d="M9,0 L9,18 M15,0 L15,18" fill="none" stroke="gray"/></marker></defs><defs><marker orient="auto" markerHeight="18" markerWidth="18" refY="9" refX="18" id="ONLY_ONE_END"><path d="M3,0 L3,18 M9,0 L9,18" fill="none" stroke="gray"/></marker></defs><defs><marker orient="auto" markerHeight="18" markerWidth="30" refY="9" refX="0" id="ZERO_OR_ONE_START"><circle r="6" cy="9" cx="21" fill="white" stroke="gray"/><path d="M9,0 L9,18" fill="none" stroke="gray"/></marker></defs><defs><marker orient="auto" markerHeight="18" markerWidth="30" refY="9" refX="30" id="ZERO_OR_ONE_END"><circle r="6" cy="9" cx="9" fill="white" stroke="gray"/><path d="M21,0 L21,18" fill="none" stroke="gray"/></marker></defs><defs><marker orient="auto" markerHeight="36" markerWidth="45" refY="18" refX="18" id="ONE_OR_MORE_START"><path d="M0,18 Q 18,0 36,18 Q 18,36 0,18 M42,9 L42,27" fill="none" stroke="gray"/></marker></defs><defs><marker orient="auto" markerHeight="36" markerWidth="45" refY="18" refX="27" id="ONE_OR_MORE_END"><path d="M3,9 L3,27 M9,18 Q27,0 45,18 Q27,36 9,18" fill="none" stroke="gray"/></marker></defs><defs><marker orient="auto" markerHeight="36" markerWidth="57" refY="18" refX="18" id="ZERO_OR_MORE_START"><circle r="6" cy="18" cx="48" fill="white" stroke="gray"/><path d="M0,18 Q18,0 36,18 Q18,36 0,18" fill="none" stroke="gray"/></marker></defs><defs><marker orient="auto" markerHeight="36" markerWidth="57" refY="18" refX="39" id="ZERO_OR_MORE_END"><circle r="6" cy="18" cx="9" fill="white" stroke="gray"/><path d="M21,18 Q39,0 57,18 Q39,36 21,18" fill="none" stroke="gray"/></marker></defs><path style="stroke: gray; fill: none;" marker-start="url(#ZERO_OR_MORE_START)" marker-end="url(#ONLY_ONE_END)" d="M211.80859375,410L211.80859375,418.3333333333333C211.80859375,426.6666666666667,211.80859375,443.3333333333333,241.548828125,467.2121052603593C271.2890625,491.09087718738533,330.76953125,522.1817543747707,360.509765625,537.7271929684633L390.25,553.272631562156" class="er relationshipLine"/><path style="stroke: gray; fill: none;" marker-start="url(#ZERO_OR_MORE_START)" marker-end="url(#ONLY_ONE_END)" d="M86.4375,176L86.4375,184.33333333333334C86.4375,192.66666666666666,86.4375,209.33333333333334,95.36706508190883,226C104.29663016381767,242.66666666666666,122.15576032763533,259.3333333333333,131.08532540954417,267.6666666666667L140.014890491453,276" class="er relationshipLine"/><path style="stroke: gray; fill: none;" marker-start="url(#ZERO_OR_MORE_START)" marker-end="url(#ONLY_ONE_END)" d="M337.1796875,176L337.1796875,184.33333333333334C337.1796875,192.66666666666666,337.1796875,209.33333333333334,328.25012241809117,226C319.32055733618233,242.66666666666666,301.46142717236467,259.3333333333333,292.53186209045583,267.6666666666667L283.602297008547,276" class="er relationshipLine"/><path style="stroke: gray; fill: none;" marker-start="url(#ZERO_OR_MORE_START)" marker-end="url(#ONLY_ONE_END)" d="M456.6875,377L456.6875,390.8333333333333C456.6875,404.6666666666667,456.6875,432.3333333333333,456.6875,454.5C456.6875,476.6666666666667,456.6875,493.3333333333333,456.6875,501.6666666666667L456.6875,510" class="er relationshipLine"/><path style="stroke: gray; fill: none;" marker-start="url(#ZERO_OR_MORE_START)" marker-end="url(#ONLY_ONE_END)" d="M678.17578125,410L678.17578125,418.3333333333333C678.17578125,426.6666666666667,678.17578125,443.3333333333333,652.333984375,466.60086535804777C626.4921875,489.8683973827622,574.80859375,519.7367947655245,548.966796875,534.6709934569055L523.125,549.6051921482866" class="er relationshipLine"/><g transform="translate(390.25,510 )" id="entity-User-818c511a-4a32-5484-ba70-875d765a9175"><rect height="156" width="132.875" y="0" x="0" class="er entityBox"/><text style="dominant-baseline: middle; text-anchor: middle; font-size: 12px;" transform="translate(66.4375,12)" y="0" x="0" id="text-entity-User-818c511a-4a32-5484-ba70-875d765a9175" class="er entityLabel">User</text><rect height="22" width="53.6640625" y="24" x="0" class="er attributeBoxOdd"/><text style="dominant-baseline: middle; font-size: 10.2px;" transform="translate(5,35)" y="0" x="0" id="text-entity-User-818c511a-4a32-5484-ba70-875d765a9175-attr-1-type" class="er entityLabel">String</text><rect height="22" width="57.6484375" y="24" x="53.6640625" class="er attributeBoxOdd"/><text style="dominant-baseline: middle; font-size: 10.2px;" transform="translate(58.6640625,35)" y="0" x="0" id="text-entity-User-818c511a-4a32-5484-ba70-875d765a9175-attr-1-name" class="er entityLabel">firstName</text><rect height="22" width="21.5625" y="24" x="111.3125" class="er attributeBoxOdd"/><text style="dominant-baseline: middle; font-size: 10.2px;" transform="translate(116.3125,35)" y="0" x="0" id="text-entity-User-818c511a-4a32-5484-ba70-875d765a9175-attr-1-key" class="er entityLabel"/><rect height="22" width="53.6640625" y="46" x="0" class="er attributeBoxEven"/><text style="dominant-baseline: middle; font-size: 10.2px;" transform="translate(5,57)" y="0" x="0" id="text-entity-User-818c511a-4a32-5484-ba70-875d765a9175-attr-2-type" class="er entityLabel">String</text><rect height="22" width="57.6484375" y="46" x="53.6640625" class="er attributeBoxEven"/><text style="dominant-baseline: middle; font-size: 10.2px;" transform="translate(58.6640625,57)" y="0" x="0" id="text-entity-User-818c511a-4a32-5484-ba70-875d765a9175-attr-2-name" class="er entityLabel">lastName</text><rect height="22" width="21.5625" y="46" x="111.3125" class="er attributeBoxEven"/><text style="dominant-baseline: middle; font-size: 10.2px;" transform="translate(116.3125,57)" y="0" x="0" id="text-entity-User-818c511a-4a32-5484-ba70-875d765a9175-attr-2-key" class="er entityLabel"/><rect height="22" width="53.6640625" y="68" x="0" class="er attributeBoxOdd"/><text style="dominant-baseline: middle; font-size: 10.2px;" transform="translate(5,79)" y="0" x="0" id="text-entity-User-818c511a-4a32-5484-ba70-875d765a9175-attr-3-type" class="er entityLabel">String</text><rect height="22" width="57.6484375" y="68" x="53.6640625" class="er attributeBoxOdd"/><text style="dominant-baseline: middle; font-size: 10.2px;" transform="translate(58.6640625,79)" y="0" x="0" id="text-entity-User-818c511a-4a32-5484-ba70-875d765a9175-attr-3-name" class="er entityLabel">email</text><rect height="22" width="21.5625" y="68" x="111.3125" class="er attributeBoxOdd"/><text style="dominant-baseline: middle; font-size: 10.2px;" transform="translate(116.3125,79)" y="0" x="0" id="text-entity-User-818c511a-4a32-5484-ba70-875d765a9175-attr-3-key" class="er entityLabel"/><rect height="22" width="53.6640625" y="90" x="0" class="er attributeBoxEven"/><text style="dominant-baseline: middle; font-size: 10.2px;" transform="translate(5,101)" y="0" x="0" id="text-entity-User-818c511a-4a32-5484-ba70-875d765a9175-attr-4-type" class="er entityLabel">DateTime</text><rect height="22" width="57.6484375" y="90" x="53.6640625" class="er attributeBoxEven"/><text style="dominant-baseline: middle; font-size: 10.2px;" transform="translate(58.6640625,101)" y="0" x="0" id="text-entity-User-818c511a-4a32-5484-ba70-875d765a9175-attr-4-name" class="er entityLabel">updatedAt</text><rect height="22" width="21.5625" y="90" x="111.3125" class="er attributeBoxEven"/><text style="dominant-baseline: middle; font-size: 10.2px;" transform="translate(116.3125,101)" y="0" x="0" id="text-entity-User-818c511a-4a32-5484-ba70-875d765a9175-attr-4-key" class="er entityLabel"/><rect height="22" width="53.6640625" y="112" x="0" class="er attributeBoxOdd"/><text style="dominant-baseline: middle; font-size: 10.2px;" transform="translate(5,123)" y="0" x="0" id="text-entity-User-818c511a-4a32-5484-ba70-875d765a9175-attr-5-type" class="er entityLabel">DateTime</text><rect height="22" width="57.6484375" y="112" x="53.6640625" class="er attributeBoxOdd"/><text style="dominant-baseline: middle; font-size: 10.2px;" transform="translate(58.6640625,123)" y="0" x="0" id="text-entity-User-818c511a-4a32-5484-ba70-875d765a9175-attr-5-name" class="er entityLabel">createdAt</text><rect height="22" width="21.5625" y="112" x="111.3125" class="er attributeBoxOdd"/><text style="dominant-baseline: middle; font-size: 10.2px;" transform="translate(116.3125,123)" y="0" x="0" id="text-entity-User-818c511a-4a32-5484-ba70-875d765a9175-attr-5-key" class="er entityLabel"/><rect height="22" width="53.6640625" y="134" x="0" class="er attributeBoxEven"/><text style="dominant-baseline: middle; font-size: 10.2px;" transform="translate(5,145)" y="0" x="0" id="text-entity-User-818c511a-4a32-5484-ba70-875d765a9175-attr-6-type" class="er entityLabel">String</text><rect height="22" width="57.6484375" y="134" x="53.6640625" class="er attributeBoxEven"/><text style="dominant-baseline: middle; font-size: 10.2px;" transform="translate(58.6640625,145)" y="0" x="0" id="text-entity-User-818c511a-4a32-5484-ba70-875d765a9175-attr-6-name" class="er entityLabel">id</text><rect height="22" width="21.5625" y="134" x="111.3125" class="er attributeBoxEven"/><text style="dominant-baseline: middle; font-size: 10.2px;" transform="translate(116.3125,145)" y="0" x="0" id="text-entity-User-818c511a-4a32-5484-ba70-875d765a9175-attr-6-key" class="er entityLabel">PK</text></g><g transform="translate(121.98046875,276 )" id="entity-Tournament-debdbd13-4480-5320-a1b3-085b30baa76b"><rect height="134" width="179.65625" y="0" x="0" class="er entityBox"/><text style="dominant-baseline: middle; text-anchor: middle; font-size: 12px;" transform="translate(89.828125,12)" y="0" x="0" id="text-entity-Tournament-debdbd13-4480-5320-a1b3-085b30baa76b" class="er entityLabel">Tournament</text><rect height="22" width="53.6640625" y="24" x="0" class="er attributeBoxOdd"/><text style="dominant-baseline: middle; font-size: 10.2px;" transform="translate(5,35)" y="0" x="0" id="text-entity-Tournament-debdbd13-4480-5320-a1b3-085b30baa76b-attr-1-type" class="er entityLabel">String</text><rect height="22" width="57.6484375" y="24" x="53.6640625" class="er attributeBoxOdd"/><text style="dominant-baseline: middle; font-size: 10.2px;" transform="translate(58.6640625,35)" y="0" x="0" id="text-entity-Tournament-debdbd13-4480-5320-a1b3-085b30baa76b-attr-1-name" class="er entityLabel">name</text><rect height="22" width="21.5625" y="24" x="111.3125" class="er attributeBoxOdd"/><text style="dominant-baseline: middle; font-size: 10.2px;" transform="translate(116.3125,35)" y="0" x="0" id="text-entity-Tournament-debdbd13-4480-5320-a1b3-085b30baa76b-attr-1-key" class="er entityLabel"/><rect height="22" width="46.78125" y="24" x="132.875" class="er attributeBoxOdd"/><text style="dominant-baseline: middle; font-size: 10.2px;" transform="translate(137.875,35)" y="0" x="0" id="text-entity-Tournament-debdbd13-4480-5320-a1b3-085b30baa76b-attr-1-comment" class="er entityLabel"/><rect height="22" width="53.6640625" y="46" x="0" class="er attributeBoxEven"/><text style="dominant-baseline: middle; font-size: 10.2px;" transform="translate(5,57)" y="0" x="0" id="text-entity-Tournament-debdbd13-4480-5320-a1b3-085b30baa76b-attr-2-type" class="er entityLabel">String</text><rect height="22" width="57.6484375" y="46" x="53.6640625" class="er attributeBoxEven"/><text style="dominant-baseline: middle; font-size: 10.2px;" transform="translate(58.6640625,57)" y="0" x="0" id="text-entity-Tournament-debdbd13-4480-5320-a1b3-085b30baa76b-attr-2-name" class="er entityLabel">winner</text><rect height="22" width="21.5625" y="46" x="111.3125" class="er attributeBoxEven"/><text style="dominant-baseline: middle; font-size: 10.2px;" transform="translate(116.3125,57)" y="0" x="0" id="text-entity-Tournament-debdbd13-4480-5320-a1b3-085b30baa76b-attr-2-key" class="er entityLabel"/><rect height="22" width="46.78125" y="46" x="132.875" class="er attributeBoxEven"/><text style="dominant-baseline: middle; font-size: 10.2px;" transform="translate(137.875,57)" y="0" x="0" id="text-entity-Tournament-debdbd13-4480-5320-a1b3-085b30baa76b-attr-2-comment" class="er entityLabel">nullable</text><rect height="22" width="53.6640625" y="68" x="0" class="er attributeBoxOdd"/><text style="dominant-baseline: middle; font-size: 10.2px;" transform="translate(5,79)" y="0" x="0" id="text-entity-Tournament-debdbd13-4480-5320-a1b3-085b30baa76b-attr-3-type" class="er entityLabel">DateTime</text><rect height="22" width="57.6484375" y="68" x="53.6640625" class="er attributeBoxOdd"/><text style="dominant-baseline: middle; font-size: 10.2px;" transform="translate(58.6640625,79)" y="0" x="0" id="text-entity-Tournament-debdbd13-4480-5320-a1b3-085b30baa76b-attr-3-name" class="er entityLabel">updatedAt</text><rect height="22" width="21.5625" y="68" x="111.3125" class="er attributeBoxOdd"/><text style="dominant-baseline: middle; font-size: 10.2px;" transform="translate(116.3125,79)" y="0" x="0" id="text-entity-Tournament-debdbd13-4480-5320-a1b3-085b30baa76b-attr-3-key" class="er entityLabel"/><rect height="22" width="46.78125" y="68" x="132.875" class="er attributeBoxOdd"/><text style="dominant-baseline: middle; font-size: 10.2px;" transform="translate(137.875,79)" y="0" x="0" id="text-entity-Tournament-debdbd13-4480-5320-a1b3-085b30baa76b-attr-3-comment" class="er entityLabel"/><rect height="22" width="53.6640625" y="90" x="0" class="er attributeBoxEven"/><text style="dominant-baseline: middle; font-size: 10.2px;" transform="translate(5,101)" y="0" x="0" id="text-entity-Tournament-debdbd13-4480-5320-a1b3-085b30baa76b-attr-4-type" class="er entityLabel">DateTime</text><rect height="22" width="57.6484375" y="90" x="53.6640625" class="er attributeBoxEven"/><text style="dominant-baseline: middle; font-size: 10.2px;" transform="translate(58.6640625,101)" y="0" x="0" id="text-entity-Tournament-debdbd13-4480-5320-a1b3-085b30baa76b-attr-4-name" class="er entityLabel">createdAt</text><rect height="22" width="21.5625" y="90" x="111.3125" class="er attributeBoxEven"/><text style="dominant-baseline: middle; font-size: 10.2px;" transform="translate(116.3125,101)" y="0" x="0" id="text-entity-Tournament-debdbd13-4480-5320-a1b3-085b30baa76b-attr-4-key" class="er entityLabel"/><rect height="22" width="46.78125" y="90" x="132.875" class="er attributeBoxEven"/><text style="dominant-baseline: middle; font-size: 10.2px;" transform="translate(137.875,101)" y="0" x="0" id="text-entity-Tournament-debdbd13-4480-5320-a1b3-085b30baa76b-attr-4-comment" class="er entityLabel"/><rect height="22" width="53.6640625" y="112" x="0" class="er attributeBoxOdd"/><text style="dominant-baseline: middle; font-size: 10.2px;" transform="translate(5,123)" y="0" x="0" id="text-entity-Tournament-debdbd13-4480-5320-a1b3-085b30baa76b-attr-5-type" class="er entityLabel">String</text><rect height="22" width="57.6484375" y="112" x="53.6640625" class="er attributeBoxOdd"/><text style="dominant-baseline: middle; font-size: 10.2px;" transform="translate(58.6640625,123)" y="0" x="0" id="text-entity-Tournament-debdbd13-4480-5320-a1b3-085b30baa76b-attr-5-name" class="er entityLabel">id</text><rect height="22" width="21.5625" y="112" x="111.3125" class="er attributeBoxOdd"/><text style="dominant-baseline: middle; font-size: 10.2px;" transform="translate(116.3125,123)" y="0" x="0" id="text-entity-Tournament-debdbd13-4480-5320-a1b3-085b30baa76b-attr-5-key" class="er entityLabel">PK</text><rect height="22" width="46.78125" y="112" x="132.875" class="er attributeBoxOdd"/><text style="dominant-baseline: middle; font-size: 10.2px;" transform="translate(137.875,123)" y="0" x="0" id="text-entity-Tournament-debdbd13-4480-5320-a1b3-085b30baa76b-attr-5-comment" class="er entityLabel"/></g><g transform="translate(20,20 )" id="entity-Participant-1b15d7dd-2236-59ff-b08e-47bf86f1c4ca"><rect height="156" width="132.875" y="0" x="0" class="er entityBox"/><text style="dominant-baseline: middle; text-anchor: middle; font-size: 12px;" transform="translate(66.4375,12)" y="0" x="0" id="text-entity-Participant-1b15d7dd-2236-59ff-b08e-47bf86f1c4ca" class="er entityLabel">Participant</text><rect height="22" width="53.6640625" y="24" x="0" class="er attributeBoxOdd"/><text style="dominant-baseline: middle; font-size: 10.2px;" transform="translate(5,35)" y="0" x="0" id="text-entity-Participant-1b15d7dd-2236-59ff-b08e-47bf86f1c4ca-attr-1-type" class="er entityLabel">String</text><rect height="22" width="57.6484375" y="24" x="53.6640625" class="er attributeBoxOdd"/><text style="dominant-baseline: middle; font-size: 10.2px;" transform="translate(58.6640625,35)" y="0" x="0" id="text-entity-Participant-1b15d7dd-2236-59ff-b08e-47bf86f1c4ca-attr-1-name" class="er entityLabel">name</text><rect height="22" width="21.5625" y="24" x="111.3125" class="er attributeBoxOdd"/><text style="dominant-baseline: middle; font-size: 10.2px;" transform="translate(116.3125,35)" y="0" x="0" id="text-entity-Participant-1b15d7dd-2236-59ff-b08e-47bf86f1c4ca-attr-1-key" class="er entityLabel"/><rect height="22" width="53.6640625" y="46" x="0" class="er attributeBoxEven"/><text style="dominant-baseline: middle; font-size: 10.2px;" transform="translate(5,57)" y="0" x="0" id="text-entity-Participant-1b15d7dd-2236-59ff-b08e-47bf86f1c4ca-attr-2-type" class="er entityLabel">String</text><rect height="22" width="57.6484375" y="46" x="53.6640625" class="er attributeBoxEven"/><text style="dominant-baseline: middle; font-size: 10.2px;" transform="translate(58.6640625,57)" y="0" x="0" id="text-entity-Participant-1b15d7dd-2236-59ff-b08e-47bf86f1c4ca-attr-2-name" class="er entityLabel">group</text><rect height="22" width="21.5625" y="46" x="111.3125" class="er attributeBoxEven"/><text style="dominant-baseline: middle; font-size: 10.2px;" transform="translate(116.3125,57)" y="0" x="0" id="text-entity-Participant-1b15d7dd-2236-59ff-b08e-47bf86f1c4ca-attr-2-key" class="er entityLabel"/><rect height="22" width="53.6640625" y="68" x="0" class="er attributeBoxOdd"/><text style="dominant-baseline: middle; font-size: 10.2px;" transform="translate(5,79)" y="0" x="0" id="text-entity-Participant-1b15d7dd-2236-59ff-b08e-47bf86f1c4ca-attr-3-type" class="er entityLabel">DateTime</text><rect height="22" width="57.6484375" y="68" x="53.6640625" class="er attributeBoxOdd"/><text style="dominant-baseline: middle; font-size: 10.2px;" transform="translate(58.6640625,79)" y="0" x="0" id="text-entity-Participant-1b15d7dd-2236-59ff-b08e-47bf86f1c4ca-attr-3-name" class="er entityLabel">updatedAt</text><rect height="22" width="21.5625" y="68" x="111.3125" class="er attributeBoxOdd"/><text style="dominant-baseline: middle; font-size: 10.2px;" transform="translate(116.3125,79)" y="0" x="0" id="text-entity-Participant-1b15d7dd-2236-59ff-b08e-47bf86f1c4ca-attr-3-key" class="er entityLabel"/><rect height="22" width="53.6640625" y="90" x="0" class="er attributeBoxEven"/><text style="dominant-baseline: middle; font-size: 10.2px;" transform="translate(5,101)" y="0" x="0" id="text-entity-Participant-1b15d7dd-2236-59ff-b08e-47bf86f1c4ca-attr-4-type" class="er entityLabel">Int</text><rect height="22" width="57.6484375" y="90" x="53.6640625" class="er attributeBoxEven"/><text style="dominant-baseline: middle; font-size: 10.2px;" transform="translate(58.6640625,101)" y="0" x="0" id="text-entity-Participant-1b15d7dd-2236-59ff-b08e-47bf86f1c4ca-attr-4-name" class="er entityLabel">score</text><rect height="22" width="21.5625" y="90" x="111.3125" class="er attributeBoxEven"/><text style="dominant-baseline: middle; font-size: 10.2px;" transform="translate(116.3125,101)" y="0" x="0" id="text-entity-Participant-1b15d7dd-2236-59ff-b08e-47bf86f1c4ca-attr-4-key" class="er entityLabel"/><rect height="22" width="53.6640625" y="112" x="0" class="er attributeBoxOdd"/><text style="dominant-baseline: middle; font-size: 10.2px;" transform="translate(5,123)" y="0" x="0" id="text-entity-Participant-1b15d7dd-2236-59ff-b08e-47bf86f1c4ca-attr-5-type" class="er entityLabel">DateTime</text><rect height="22" width="57.6484375" y="112" x="53.6640625" class="er attributeBoxOdd"/><text style="dominant-baseline: middle; font-size: 10.2px;" transform="translate(58.6640625,123)" y="0" x="0" id="text-entity-Participant-1b15d7dd-2236-59ff-b08e-47bf86f1c4ca-attr-5-name" class="er entityLabel">createdAt</text><rect height="22" width="21.5625" y="112" x="111.3125" class="er attributeBoxOdd"/><text style="dominant-baseline: middle; font-size: 10.2px;" transform="translate(116.3125,123)" y="0" x="0" id="text-entity-Participant-1b15d7dd-2236-59ff-b08e-47bf86f1c4ca-attr-5-key" class="er entityLabel"/><rect height="22" width="53.6640625" y="134" x="0" class="er attributeBoxEven"/><text style="dominant-baseline: middle; font-size: 10.2px;" transform="translate(5,145)" y="0" x="0" id="text-entity-Participant-1b15d7dd-2236-59ff-b08e-47bf86f1c4ca-attr-6-type" class="er entityLabel">String</text><rect height="22" width="57.6484375" y="134" x="53.6640625" class="er attributeBoxEven"/><text style="dominant-baseline: middle; font-size: 10.2px;" transform="translate(58.6640625,145)" y="0" x="0" id="text-entity-Participant-1b15d7dd-2236-59ff-b08e-47bf86f1c4ca-attr-6-name" class="er entityLabel">id</text><rect height="22" width="21.5625" y="134" x="111.3125" class="er attributeBoxEven"/><text style="dominant-baseline: middle; font-size: 10.2px;" transform="translate(116.3125,145)" y="0" x="0" id="text-entity-Participant-1b15d7dd-2236-59ff-b08e-47bf86f1c4ca-attr-6-key" class="er entityLabel">PK</text></g><g transform="translate(252.875,20 )" id="entity-Games-51bbeccb-5d0e-5638-901f-8dd2836655e5"><rect height="156" width="168.609375" y="0" x="0" class="er entityBox"/><text style="dominant-baseline: middle; text-anchor: middle; font-size: 12px;" transform="translate(84.3046875,12)" y="0" x="0" id="text-entity-Games-51bbeccb-5d0e-5638-901f-8dd2836655e5" class="er entityLabel">Games</text><rect height="22" width="36.5234375" y="24" x="0" class="er attributeBoxOdd"/><text style="dominant-baseline: middle; font-size: 10.2px;" transform="translate(5,35)" y="0" x="0" id="text-entity-Games-51bbeccb-5d0e-5638-901f-8dd2836655e5-attr-1-type" class="er entityLabel">Int</text><rect height="22" width="63.7421875" y="24" x="36.5234375" class="er attributeBoxOdd"/><text style="dominant-baseline: middle; font-size: 10.2px;" transform="translate(41.5234375,35)" y="0" x="0" id="text-entity-Games-51bbeccb-5d0e-5638-901f-8dd2836655e5-attr-1-name" class="er entityLabel">gameOrder</text><rect height="22" width="21.5625" y="24" x="100.265625" class="er attributeBoxOdd"/><text style="dominant-baseline: middle; font-size: 10.2px;" transform="translate(105.265625,35)" y="0" x="0" id="text-entity-Games-51bbeccb-5d0e-5638-901f-8dd2836655e5-attr-1-key" class="er entityLabel"/><rect height="22" width="46.78125" y="24" x="121.828125" class="er attributeBoxOdd"/><text style="dominant-baseline: middle; font-size: 10.2px;" transform="translate(126.828125,35)" y="0" x="0" id="text-entity-Games-51bbeccb-5d0e-5638-901f-8dd2836655e5-attr-1-comment" class="er entityLabel"/><rect height="22" width="36.5234375" y="46" x="0" class="er attributeBoxEven"/><text style="dominant-baseline: middle; font-size: 10.2px;" transform="translate(5,57)" y="0" x="0" id="text-entity-Games-51bbeccb-5d0e-5638-901f-8dd2836655e5-attr-2-type" class="er entityLabel">String</text><rect height="22" width="63.7421875" y="46" x="36.5234375" class="er attributeBoxEven"/><text style="dominant-baseline: middle; font-size: 10.2px;" transform="translate(41.5234375,57)" y="0" x="0" id="text-entity-Games-51bbeccb-5d0e-5638-901f-8dd2836655e5-attr-2-name" class="er entityLabel">winnerId</text><rect height="22" width="21.5625" y="46" x="100.265625" class="er attributeBoxEven"/><text style="dominant-baseline: middle; font-size: 10.2px;" transform="translate(105.265625,57)" y="0" x="0" id="text-entity-Games-51bbeccb-5d0e-5638-901f-8dd2836655e5-attr-2-key" class="er entityLabel"/><rect height="22" width="46.78125" y="46" x="121.828125" class="er attributeBoxEven"/><text style="dominant-baseline: middle; font-size: 10.2px;" transform="translate(126.828125,57)" y="0" x="0" id="text-entity-Games-51bbeccb-5d0e-5638-901f-8dd2836655e5-attr-2-comment" class="er entityLabel">nullable</text><rect height="22" width="36.5234375" y="68" x="0" class="er attributeBoxOdd"/><text style="dominant-baseline: middle; font-size: 10.2px;" transform="translate(5,79)" y="0" x="0" id="text-entity-Games-51bbeccb-5d0e-5638-901f-8dd2836655e5-attr-3-type" class="er entityLabel">String</text><rect height="22" width="63.7421875" y="68" x="36.5234375" class="er attributeBoxOdd"/><text style="dominant-baseline: middle; font-size: 10.2px;" transform="translate(41.5234375,79)" y="0" x="0" id="text-entity-Games-51bbeccb-5d0e-5638-901f-8dd2836655e5-attr-3-name" class="er entityLabel">group</text><rect height="22" width="21.5625" y="68" x="100.265625" class="er attributeBoxOdd"/><text style="dominant-baseline: middle; font-size: 10.2px;" transform="translate(105.265625,79)" y="0" x="0" id="text-entity-Games-51bbeccb-5d0e-5638-901f-8dd2836655e5-attr-3-key" class="er entityLabel"/><rect height="22" width="46.78125" y="68" x="121.828125" class="er attributeBoxOdd"/><text style="dominant-baseline: middle; font-size: 10.2px;" transform="translate(126.828125,79)" y="0" x="0" id="text-entity-Games-51bbeccb-5d0e-5638-901f-8dd2836655e5-attr-3-comment" class="er entityLabel"/><rect height="22" width="36.5234375" y="90" x="0" class="er attributeBoxEven"/><text style="dominant-baseline: middle; font-size: 10.2px;" transform="translate(5,101)" y="0" x="0" id="text-entity-Games-51bbeccb-5d0e-5638-901f-8dd2836655e5-attr-4-type" class="er entityLabel">Int</text><rect height="22" width="63.7421875" y="90" x="36.5234375" class="er attributeBoxEven"/><text style="dominant-baseline: middle; font-size: 10.2px;" transform="translate(41.5234375,101)" y="0" x="0" id="text-entity-Games-51bbeccb-5d0e-5638-901f-8dd2836655e5-attr-4-name" class="er entityLabel">team1Score</text><rect height="22" width="21.5625" y="90" x="100.265625" class="er attributeBoxEven"/><text style="dominant-baseline: middle; font-size: 10.2px;" transform="translate(105.265625,101)" y="0" x="0" id="text-entity-Games-51bbeccb-5d0e-5638-901f-8dd2836655e5-attr-4-key" class="er entityLabel"/><rect height="22" width="46.78125" y="90" x="121.828125" class="er attributeBoxEven"/><text style="dominant-baseline: middle; font-size: 10.2px;" transform="translate(126.828125,101)" y="0" x="0" id="text-entity-Games-51bbeccb-5d0e-5638-901f-8dd2836655e5-attr-4-comment" class="er entityLabel"/><rect height="22" width="36.5234375" y="112" x="0" class="er attributeBoxOdd"/><text style="dominant-baseline: middle; font-size: 10.2px;" transform="translate(5,123)" y="0" x="0" id="text-entity-Games-51bbeccb-5d0e-5638-901f-8dd2836655e5-attr-5-type" class="er entityLabel">Int</text><rect height="22" width="63.7421875" y="112" x="36.5234375" class="er attributeBoxOdd"/><text style="dominant-baseline: middle; font-size: 10.2px;" transform="translate(41.5234375,123)" y="0" x="0" id="text-entity-Games-51bbeccb-5d0e-5638-901f-8dd2836655e5-attr-5-name" class="er entityLabel">team2Score</text><rect height="22" width="21.5625" y="112" x="100.265625" class="er attributeBoxOdd"/><text style="dominant-baseline: middle; font-size: 10.2px;" transform="translate(105.265625,123)" y="0" x="0" id="text-entity-Games-51bbeccb-5d0e-5638-901f-8dd2836655e5-attr-5-key" class="er entityLabel"/><rect height="22" width="46.78125" y="112" x="121.828125" class="er attributeBoxOdd"/><text style="dominant-baseline: middle; font-size: 10.2px;" transform="translate(126.828125,123)" y="0" x="0" id="text-entity-Games-51bbeccb-5d0e-5638-901f-8dd2836655e5-attr-5-comment" class="er entityLabel"/><rect height="22" width="36.5234375" y="134" x="0" class="er attributeBoxEven"/><text style="dominant-baseline: middle; font-size: 10.2px;" transform="translate(5,145)" y="0" x="0" id="text-entity-Games-51bbeccb-5d0e-5638-901f-8dd2836655e5-attr-6-type" class="er entityLabel">String</text><rect height="22" width="63.7421875" y="134" x="36.5234375" class="er attributeBoxEven"/><text style="dominant-baseline: middle; font-size: 10.2px;" transform="translate(41.5234375,145)" y="0" x="0" id="text-entity-Games-51bbeccb-5d0e-5638-901f-8dd2836655e5-attr-6-name" class="er entityLabel">id</text><rect height="22" width="21.5625" y="134" x="100.265625" class="er attributeBoxEven"/><text style="dominant-baseline: middle; font-size: 10.2px;" transform="translate(105.265625,145)" y="0" x="0" id="text-entity-Games-51bbeccb-5d0e-5638-901f-8dd2836655e5-attr-6-key" class="er entityLabel">PK</text><rect height="22" width="46.78125" y="134" x="121.828125" class="er attributeBoxEven"/><text style="dominant-baseline: middle; font-size: 10.2px;" transform="translate(126.828125,145)" y="0" x="0" id="text-entity-Games-51bbeccb-5d0e-5638-901f-8dd2836655e5-attr-6-comment" class="er entityLabel"/></g><g transform="translate(401.63671875,309 )" id="entity-Password-21901b32-bf0e-536e-bcdd-09ed9082306b"><rect height="68" width="110.1015625" y="0" x="0" class="er entityBox"/><text style="dominant-baseline: middle; text-anchor: middle; font-size: 12px;" transform="translate(55.05078125,12)" y="0" x="0" id="text-entity-Password-21901b32-bf0e-536e-bcdd-09ed9082306b" class="er entityLabel">Password</text><rect height="22" width="36.5234375" y="24" x="0" class="er attributeBoxOdd"/><text style="dominant-baseline: middle; font-size: 10.2px;" transform="translate(5,35)" y="0" x="0" id="text-entity-Password-21901b32-bf0e-536e-bcdd-09ed9082306b-attr-1-type" class="er entityLabel">String</text><rect height="22" width="52.015625" y="24" x="36.5234375" class="er attributeBoxOdd"/><text style="dominant-baseline: middle; font-size: 10.2px;" transform="translate(41.5234375,35)" y="0" x="0" id="text-entity-Password-21901b32-bf0e-536e-bcdd-09ed9082306b-attr-1-name" class="er entityLabel">password</text><rect height="22" width="21.5625" y="24" x="88.5390625" class="er attributeBoxOdd"/><text style="dominant-baseline: middle; font-size: 10.2px;" transform="translate(93.5390625,35)" y="0" x="0" id="text-entity-Password-21901b32-bf0e-536e-bcdd-09ed9082306b-attr-1-key" class="er entityLabel"/><rect height="22" width="36.5234375" y="46" x="0" class="er attributeBoxEven"/><text style="dominant-baseline: middle; font-size: 10.2px;" transform="translate(5,57)" y="0" x="0" id="text-entity-Password-21901b32-bf0e-536e-bcdd-09ed9082306b-attr-2-type" class="er entityLabel">String</text><rect height="22" width="52.015625" y="46" x="36.5234375" class="er attributeBoxEven"/><text style="dominant-baseline: middle; font-size: 10.2px;" transform="translate(41.5234375,57)" y="0" x="0" id="text-entity-Password-21901b32-bf0e-536e-bcdd-09ed9082306b-attr-2-name" class="er entityLabel">id</text><rect height="22" width="21.5625" y="46" x="88.5390625" class="er attributeBoxEven"/><text style="dominant-baseline: middle; font-size: 10.2px;" transform="translate(93.5390625,57)" y="0" x="0" id="text-entity-Password-21901b32-bf0e-536e-bcdd-09ed9082306b-attr-2-key" class="er entityLabel">PK</text></g><g transform="translate(611.73828125,276 )" id="entity-LoginToken-c7a39e19-9df2-533a-90f3-2ed3bbae3620"><rect height="134" width="132.875" y="0" x="0" class="er entityBox"/><text style="dominant-baseline: middle; text-anchor: middle; font-size: 12px;" transform="translate(66.4375,12)" y="0" x="0" id="text-entity-LoginToken-c7a39e19-9df2-533a-90f3-2ed3bbae3620" class="er entityLabel">LoginToken</text><rect height="22" width="53.6640625" y="24" x="0" class="er attributeBoxOdd"/><text style="dominant-baseline: middle; font-size: 10.2px;" transform="translate(5,35)" y="0" x="0" id="text-entity-LoginToken-c7a39e19-9df2-533a-90f3-2ed3bbae3620-attr-1-type" class="er entityLabel">String</text><rect height="22" width="57.6484375" y="24" x="53.6640625" class="er attributeBoxOdd"/><text style="dominant-baseline: middle; font-size: 10.2px;" transform="translate(58.6640625,35)" y="0" x="0" id="text-entity-LoginToken-c7a39e19-9df2-533a-90f3-2ed3bbae3620-attr-1-name" class="er entityLabel">token</text><rect height="22" width="21.5625" y="24" x="111.3125" class="er attributeBoxOdd"/><text style="dominant-baseline: middle; font-size: 10.2px;" transform="translate(116.3125,35)" y="0" x="0" id="text-entity-LoginToken-c7a39e19-9df2-533a-90f3-2ed3bbae3620-attr-1-key" class="er entityLabel"/><rect height="22" width="53.6640625" y="46" x="0" class="er attributeBoxEven"/><text style="dominant-baseline: middle; font-size: 10.2px;" transform="translate(5,57)" y="0" x="0" id="text-entity-LoginToken-c7a39e19-9df2-533a-90f3-2ed3bbae3620-attr-2-type" class="er entityLabel">DateTime</text><rect height="22" width="57.6484375" y="46" x="53.6640625" class="er attributeBoxEven"/><text style="dominant-baseline: middle; font-size: 10.2px;" transform="translate(58.6640625,57)" y="0" x="0" id="text-entity-LoginToken-c7a39e19-9df2-533a-90f3-2ed3bbae3620-attr-2-name" class="er entityLabel">updatedAt</text><rect height="22" width="21.5625" y="46" x="111.3125" class="er attributeBoxEven"/><text style="dominant-baseline: middle; font-size: 10.2px;" transform="translate(116.3125,57)" y="0" x="0" id="text-entity-LoginToken-c7a39e19-9df2-533a-90f3-2ed3bbae3620-attr-2-key" class="er entityLabel"/><rect height="22" width="53.6640625" y="68" x="0" class="er attributeBoxOdd"/><text style="dominant-baseline: middle; font-size: 10.2px;" transform="translate(5,79)" y="0" x="0" id="text-entity-LoginToken-c7a39e19-9df2-533a-90f3-2ed3bbae3620-attr-3-type" class="er entityLabel">Boolean</text><rect height="22" width="57.6484375" y="68" x="53.6640625" class="er attributeBoxOdd"/><text style="dominant-baseline: middle; font-size: 10.2px;" transform="translate(58.6640625,79)" y="0" x="0" id="text-entity-LoginToken-c7a39e19-9df2-533a-90f3-2ed3bbae3620-attr-3-name" class="er entityLabel">isActive</text><rect height="22" width="21.5625" y="68" x="111.3125" class="er attributeBoxOdd"/><text style="dominant-baseline: middle; font-size: 10.2px;" transform="translate(116.3125,79)" y="0" x="0" id="text-entity-LoginToken-c7a39e19-9df2-533a-90f3-2ed3bbae3620-attr-3-key" class="er entityLabel"/><rect height="22" width="53.6640625" y="90" x="0" class="er attributeBoxEven"/><text style="dominant-baseline: middle; font-size: 10.2px;" transform="translate(5,101)" y="0" x="0" id="text-entity-LoginToken-c7a39e19-9df2-533a-90f3-2ed3bbae3620-attr-4-type" class="er entityLabel">DateTime</text><rect height="22" width="57.6484375" y="90" x="53.6640625" class="er attributeBoxEven"/><text style="dominant-baseline: middle; font-size: 10.2px;" transform="translate(58.6640625,101)" y="0" x="0" id="text-entity-LoginToken-c7a39e19-9df2-533a-90f3-2ed3bbae3620-attr-4-name" class="er entityLabel">createdAt</text><rect height="22" width="21.5625" y="90" x="111.3125" class="er attributeBoxEven"/><text style="dominant-baseline: middle; font-size: 10.2px;" transform="translate(116.3125,101)" y="0" x="0" id="text-entity-LoginToken-c7a39e19-9df2-533a-90f3-2ed3bbae3620-attr-4-key" class="er entityLabel"/><rect height="22" width="53.6640625" y="112" x="0" class="er attributeBoxOdd"/><text style="dominant-baseline: middle; font-size: 10.2px;" transform="translate(5,123)" y="0" x="0" id="text-entity-LoginToken-c7a39e19-9df2-533a-90f3-2ed3bbae3620-attr-5-type" class="er entityLabel">String</text><rect height="22" width="57.6484375" y="112" x="53.6640625" class="er attributeBoxOdd"/><text style="dominant-baseline: middle; font-size: 10.2px;" transform="translate(58.6640625,123)" y="0" x="0" id="text-entity-LoginToken-c7a39e19-9df2-533a-90f3-2ed3bbae3620-attr-5-name" class="er entityLabel">id</text><rect height="22" width="21.5625" y="112" x="111.3125" class="er attributeBoxOdd"/><text style="dominant-baseline: middle; font-size: 10.2px;" transform="translate(116.3125,123)" y="0" x="0" id="text-entity-LoginToken-c7a39e19-9df2-533a-90f3-2ed3bbae3620-attr-5-key" class="er entityLabel">PK</text></g><rect height="14" width="22.625" y="489.17755126953125" x="273.5397644042969" class="er relationshipLabelBox"/><text style="text-anchor: middle; dominant-baseline: middle; font-size: 12px;" y="496.17755126953125" x="284.8522644042969" id="rel1" class="er relationshipLabel">user</text><rect height="14" width="63.1015625" y="225.8058624267578" x="67.92835235595703" class="er relationshipLabelBox"/><text style="text-anchor: middle; dominant-baseline: middle; font-size: 12px;" y="232.8058624267578" x="99.47913360595703" id="rel2" class="er relationshipLabel">tournament</text><rect height="14" width="63.1015625" y="225.80584716796875" x="292.5872802734375" class="er relationshipLabelBox"/><text style="text-anchor: middle; dominant-baseline: middle; font-size: 12px;" y="232.80584716796875" x="324.1380615234375" id="rel3" class="er relationshipLabel">tournament</text><rect height="14" width="22.625" y="436.5" x="445.375" class="er relationshipLabelBox"/><text style="text-anchor: middle; dominant-baseline: middle; font-size: 12px;" y="443.5" x="456.6875" id="rel4" class="er relationshipLabel">user</text><rect height="14" width="22.625" y="486.2550964355469" x="605.5306396484375" class="er relationshipLabelBox"/><text style="text-anchor: middle; dominant-baseline: middle; font-size: 12px;" y="493.2550964355469" x="616.8431396484375" id="rel5" class="er relationshipLabel">user</text></svg>