<svg aria-roledescription="er" role="graphics-document document" viewBox="0 0 770.77734375 942" style="max-width: 770.777px; background-color: white;" xmlns:xlink="http://www.w3.org/1999/xlink" xmlns="http://www.w3.org/2000/svg" width="100%" id="mermaid-0"><style>#mermaid-0{font-family:"trebuchet ms",verdana,arial,sans-serif;font-size:16px;fill:#000000;}#mermaid-0 .error-icon{fill:#552222;}#mermaid-0 .error-text{fill:#552222;stroke:#552222;}#mermaid-0 .edge-thickness-normal{stroke-width:2px;}#mermaid-0 .edge-thickness-thick{stroke-width:3.5px;}#mermaid-0 .edge-pattern-solid{stroke-dasharray:0;}#mermaid-0 .edge-pattern-dashed{stroke-dasharray:3;}#mermaid-0 .edge-pattern-dotted{stroke-dasharray:2;}#mermaid-0 .marker{fill:#000000;stroke:#000000;}#mermaid-0 .marker.cross{stroke:#000000;}#mermaid-0 svg{font-family:"trebuchet ms",verdana,arial,sans-serif;font-size:16px;}#mermaid-0 .entityBox{fill:#cde498;stroke:#13540c;}#mermaid-0 .attributeBoxOdd{fill:#ffffff;stroke:#13540c;}#mermaid-0 .attributeBoxEven{fill:#f2f2f2;stroke:#13540c;}#mermaid-0 .relationshipLabelBox{fill:hsl(78.1578947368, 58.4615384615%, 84.5098039216%);opacity:0.7;background-color:hsl(78.1578947368, 58.4615384615%, 84.5098039216%);}#mermaid-0 .relationshipLabelBox rect{opacity:0.5;}#mermaid-0 .relationshipLine{stroke:#000000;}#mermaid-0 .entityTitleText{text-anchor:middle;font-size:18px;fill:#000000;}#mermaid-0 :root{--mermaid-font-family:"trebuchet ms",verdana,arial,sans-serif;}</style><g/><defs><marker orient="auto" markerHeight="18" markerWidth="18" refY="9" refX="0" id="ONLY_ONE_START"><path d="M9,0 L9,18 M15,0 L15,18" fill="none" stroke="gray"/></marker></defs><defs><marker orient="auto" markerHeight="18" markerWidth="18" refY="9" refX="18" id="ONLY_ONE_END"><path d="M3,0 L3,18 M9,0 L9,18" fill="none" stroke="gray"/></marker></defs><defs><marker orient="auto" markerHeight="18" markerWidth="30" refY="9" refX="0" id="ZERO_OR_ONE_START"><circle r="6" cy="9" cx="21" fill="white" stroke="gray"/><path d="M9,0 L9,18" fill="none" stroke="gray"/></marker></defs><defs><marker orient="auto" markerHeight="18" markerWidth="30" refY="9" refX="30" id="ZERO_OR_ONE_END"><circle r="6" cy="9" cx="9" fill="white" stroke="gray"/><path d="M21,0 L21,18" fill="none" stroke="gray"/></marker></defs><defs><marker orient="auto" markerHeight="36" markerWidth="45" refY="18" refX="18" id="ONE_OR_MORE_START"><path d="M0,18 Q 18,0 36,18 Q 18,36 0,18 M42,9 L42,27" fill="none" stroke="gray"/></marker></defs><defs><marker orient="auto" markerHeight="36" markerWidth="45" refY="18" refX="27" id="ONE_OR_MORE_END"><path d="M3,9 L3,27 M9,18 Q27,0 45,18 Q27,36 9,18" fill="none" stroke="gray"/></marker></defs><defs><marker orient="auto" markerHeight="36" markerWidth="57" refY="18" refX="18" id="ZERO_OR_MORE_START"><circle r="6" cy="18" cx="48" fill="white" stroke="gray"/><path d="M0,18 Q18,0 36,18 Q18,36 0,18" fill="none" stroke="gray"/></marker></defs><defs><marker orient="auto" markerHeight="36" markerWidth="57" refY="18" refX="39" id="ZERO_OR_MORE_END"><circle r="6" cy="18" cx="9" fill="white" stroke="gray"/><path d="M21,18 Q39,0 57,18 Q39,36 21,18" fill="none" stroke="gray"/></marker></defs><path style="stroke: gray; fill: none;" marker-start="url(#ZERO_OR_ONE_START)" marker-end="url(#ONLY_ONE_END)" d="M151.888916015625,666L146.51680501302084,674.3333333333334C141.14469401041666,682.6666666666666,130.40047200520834,699.3333333333334,125.02836100260417,723.3333333333334C119.65625,747.3333333333334,119.65625,778.6666666666666,119.65625,794.3333333333334L119.65625,810" class="er relationshipLine"/><path style="stroke: gray; fill: none;" marker-start="url(#ZERO_OR_MORE_START)" marker-end="url(#ONLY_ONE_END)" d="M251.12896728515625,666L256.3594258626302,674.3333333333334C261.5898844401042,682.6666666666666,272.05080159505206,699.3333333333334,304.7155049641927,722.8654989545821C337.3802083333333,746.3976645758308,392.2486979166667,776.7953291516618,419.6829427083333,791.994161439577L447.1171875,807.1929937274925" class="er relationshipLine"/><path style="stroke: gray; fill: none;" marker-start="url(#ZERO_OR_MORE_START)" marker-end="url(#ONLY_ONE_END)" d="M86.4375,410L86.4375,418.3333333333333C86.4375,426.6666666666667,86.4375,443.3333333333333,93.9722900390625,460C101.507080078125,476.6666666666667,116.57666015625,493.3333333333333,124.1114501953125,501.6666666666667L131.646240234375,510" class="er relationshipLine"/><path style="stroke: gray; fill: none;" marker-start="url(#ZERO_OR_MORE_START)" marker-end="url(#ONLY_ONE_END)" d="M295.6100427350427,154L288.4875356125356,162.33333333333334C281.36502849002846,170.66666666666666,267.12001424501426,187.33333333333334,259.9975071225071,217C252.875,246.66666666666666,252.875,289.3333333333333,252.875,332C252.875,374.6666666666667,252.875,417.3333333333333,249.57401529947916,447C246.27303059895834,476.6666666666667,239.67106119791666,493.3333333333333,236.37007649739584,501.6666666666667L233.069091796875,510" class="er relationshipLine"/><path style="stroke: gray; fill: none;" marker-start="url(#ZERO_OR_MORE_START)" marker-end="url(#ONLY_ONE_END)" d="M371.897702991453,154L374.26371082621085,162.33333333333334C376.62971866096865,170.66666666666666,381.36173433048435,187.33333333333334,388.4152421652422,207.66666666666666C395.46875,228,404.84375,252,409.53125,264L414.21875,276" class="er relationshipLine"/><path style="stroke: gray; fill: none;" marker-start="url(#ZERO_OR_MORE_START)" marker-end="url(#ONLY_ONE_END)" d="M413.7890625,140.49806474313863L425.83984375,151.0817206192822C437.890625,161.66537649542576,461.9921875,182.8326882477129,469.35546875,205.41634412385645C476.71875,228,467.34375,252,462.65625,264L457.96875,276" class="er relationshipLine"/><path style="stroke: gray; fill: none;" marker-start="url(#ZERO_OR_MORE_START)" marker-end="url(#ONLY_ONE_END)" d="M436.09375,388L436.09375,400C436.09375,412,436.09375,436,414.7115885416667,459.70013136508356C393.3294270833333,483.4002627301672,350.5651041666667,506.8005254603344,329.1829427083333,518.500656825418L307.80078125,530.2007881905016" class="er relationshipLine"/><path style="stroke: gray; fill: none;" marker-start="url(#ZERO_OR_MORE_START)" marker-end="url(#ONLY_ONE_END)" d="M462.8515625,622L462.8515625,637.6666666666666C462.8515625,653.3333333333334,462.8515625,684.6666666666666,466.1525472005208,708.6666666666666C469.4535319010417,732.6666666666666,476.0555013020833,749.3333333333334,479.3564860026042,757.6666666666666L482.657470703125,766" class="er relationshipLine"/><path style="stroke: gray; fill: none;" marker-start="url(#ZERO_OR_MORE_START)" marker-end="url(#ONLY_ONE_END)" d="M684.33984375,655L684.33984375,665.1666666666666C684.33984375,675.3333333333334,684.33984375,695.6666666666666,666.9485677083334,718.8677409025412C649.5572916666666,742.0688151384156,614.7747395833334,768.1376302768311,597.3834635416666,781.172037846039L579.9921875,794.2064454152467" class="er relationshipLine"/><g transform="translate(60.3828125,810 )" id="entity-TournamentType-1d6e59af-2c94-5ad7-a082-191e0aab481d"><rect height="68" width="118.546875" y="0" x="0" class="er entityBox"/><text style="dominant-baseline: middle; text-anchor: middle; font-size: 12px;" transform="translate(59.2734375,12)" y="0" x="0" id="text-entity-TournamentType-1d6e59af-2c94-5ad7-a082-191e0aab481d" class="er entityLabel">TournamentType</text><rect height="22" width="59.2734375" y="24" x="0" class="er attributeBoxOdd"/><text style="dominant-baseline: middle; font-size: 10.2px;" transform="translate(5,35)" y="0" x="0" id="text-entity-TournamentType-1d6e59af-2c94-5ad7-a082-191e0aab481d-attr-1-type" class="er entityLabel">KING</text><rect height="22" width="59.2734375" y="24" x="59.2734375" class="er attributeBoxOdd"/><text style="dominant-baseline: middle; font-size: 10.2px;" transform="translate(64.2734375,35)" y="0" x="0" id="text-entity-TournamentType-1d6e59af-2c94-5ad7-a082-191e0aab481d-attr-1-name" class="er entityLabel">KING</text><rect height="22" width="59.2734375" y="46" x="0" class="er attributeBoxEven"/><text style="dominant-baseline: middle; font-size: 10.2px;" transform="translate(5,57)" y="0" x="0" id="text-entity-TournamentType-1d6e59af-2c94-5ad7-a082-191e0aab481d-attr-2-type" class="er entityLabel">TEAMS</text><rect height="22" width="59.2734375" y="46" x="59.2734375" class="er attributeBoxEven"/><text style="dominant-baseline: middle; font-size: 10.2px;" transform="translate(64.2734375,57)" y="0" x="0" id="text-entity-TournamentType-1d6e59af-2c94-5ad7-a082-191e0aab481d-attr-2-name" class="er entityLabel">TEAMS</text></g><g transform="translate(447.1171875,766 )" id="entity-User-818c511a-4a32-5484-ba70-875d765a9175"><rect height="156" width="132.875" y="0" x="0" class="er entityBox"/><text style="dominant-baseline: middle; text-anchor: middle; font-size: 12px;" transform="translate(66.4375,12)" y="0" x="0" id="text-entity-User-818c511a-4a32-5484-ba70-875d765a9175" class="er entityLabel">User</text><rect height="22" width="53.6640625" y="24" x="0" class="er attributeBoxOdd"/><text style="dominant-baseline: middle; font-size: 10.2px;" transform="translate(5,35)" y="0" x="0" id="text-entity-User-818c511a-4a32-5484-ba70-875d765a9175-attr-1-type" class="er entityLabel">String</text><rect height="22" width="57.6484375" y="24" x="53.6640625" class="er attributeBoxOdd"/><text style="dominant-baseline: middle; font-size: 10.2px;" transform="translate(58.6640625,35)" y="0" x="0" id="text-entity-User-818c511a-4a32-5484-ba70-875d765a9175-attr-1-name" class="er entityLabel">firstName</text><rect height="22" width="21.5625" y="24" x="111.3125" class="er attributeBoxOdd"/><text style="dominant-baseline: middle; font-size: 10.2px;" transform="translate(116.3125,35)" y="0" x="0" id="text-entity-User-818c511a-4a32-5484-ba70-875d765a9175-attr-1-key" class="er entityLabel"/><rect height="22" width="53.6640625" y="46" x="0" class="er attributeBoxEven"/><text style="dominant-baseline: middle; font-size: 10.2px;" transform="translate(5,57)" y="0" x="0" id="text-entity-User-818c511a-4a32-5484-ba70-875d765a9175-attr-2-type" class="er entityLabel">String</text><rect height="22" width="57.6484375" y="46" x="53.6640625" class="er attributeBoxEven"/><text style="dominant-baseline: middle; font-size: 10.2px;" transform="translate(58.6640625,57)" y="0" x="0" id="text-entity-User-818c511a-4a32-5484-ba70-875d765a9175-attr-2-name" class="er entityLabel">lastName</text><rect height="22" width="21.5625" y="46" x="111.3125" class="er attributeBoxEven"/><text style="dominant-baseline: middle; font-size: 10.2px;" transform="translate(116.3125,57)" y="0" x="0" id="text-entity-User-818c511a-4a32-5484-ba70-875d765a9175-attr-2-key" class="er entityLabel"/><rect height="22" width="53.6640625" y="68" x="0" class="er attributeBoxOdd"/><text style="dominant-baseline: middle; font-size: 10.2px;" transform="translate(5,79)" y="0" x="0" id="text-entity-User-818c511a-4a32-5484-ba70-875d765a9175-attr-3-type" class="er entityLabel">String</text><rect height="22" width="57.6484375" y="68" x="53.6640625" class="er attributeBoxOdd"/><text style="dominant-baseline: middle; font-size: 10.2px;" transform="translate(58.6640625,79)" y="0" x="0" id="text-entity-User-818c511a-4a32-5484-ba70-875d765a9175-attr-3-name" class="er entityLabel">email</text><rect height="22" width="21.5625" y="68" x="111.3125" class="er attributeBoxOdd"/><text style="dominant-baseline: middle; font-size: 10.2px;" transform="translate(116.3125,79)" y="0" x="0" id="text-entity-User-818c511a-4a32-5484-ba70-875d765a9175-attr-3-key" class="er entityLabel"/><rect height="22" width="53.6640625" y="90" x="0" class="er attributeBoxEven"/><text style="dominant-baseline: middle; font-size: 10.2px;" transform="translate(5,101)" y="0" x="0" id="text-entity-User-818c511a-4a32-5484-ba70-875d765a9175-attr-4-type" class="er entityLabel">DateTime</text><rect height="22" width="57.6484375" y="90" x="53.6640625" class="er attributeBoxEven"/><text style="dominant-baseline: middle; font-size: 10.2px;" transform="translate(58.6640625,101)" y="0" x="0" id="text-entity-User-818c511a-4a32-5484-ba70-875d765a9175-attr-4-name" class="er entityLabel">updatedAt</text><rect height="22" width="21.5625" y="90" x="111.3125" class="er attributeBoxEven"/><text style="dominant-baseline: middle; font-size: 10.2px;" transform="translate(116.3125,101)" y="0" x="0" id="text-entity-User-818c511a-4a32-5484-ba70-875d765a9175-attr-4-key" class="er entityLabel"/><rect height="22" width="53.6640625" y="112" x="0" class="er attributeBoxOdd"/><text style="dominant-baseline: middle; font-size: 10.2px;" transform="translate(5,123)" y="0" x="0" id="text-entity-User-818c511a-4a32-5484-ba70-875d765a9175-attr-5-type" class="er entityLabel">DateTime</text><rect height="22" width="57.6484375" y="112" x="53.6640625" class="er attributeBoxOdd"/><text style="dominant-baseline: middle; font-size: 10.2px;" transform="translate(58.6640625,123)" y="0" x="0" id="text-entity-User-818c511a-4a32-5484-ba70-875d765a9175-attr-5-name" class="er entityLabel">createdAt</text><rect height="22" width="21.5625" y="112" x="111.3125" class="er attributeBoxOdd"/><text style="dominant-baseline: middle; font-size: 10.2px;" transform="translate(116.3125,123)" y="0" x="0" id="text-entity-User-818c511a-4a32-5484-ba70-875d765a9175-attr-5-key" class="er entityLabel"/><rect height="22" width="53.6640625" y="134" x="0" class="er attributeBoxEven"/><text style="dominant-baseline: middle; font-size: 10.2px;" transform="translate(5,145)" y="0" x="0" id="text-entity-User-818c511a-4a32-5484-ba70-875d765a9175-attr-6-type" class="er entityLabel">String</text><rect height="22" width="57.6484375" y="134" x="53.6640625" class="er attributeBoxEven"/><text style="dominant-baseline: middle; font-size: 10.2px;" transform="translate(58.6640625,145)" y="0" x="0" id="text-entity-User-818c511a-4a32-5484-ba70-875d765a9175-attr-6-name" class="er entityLabel">id</text><rect height="22" width="21.5625" y="134" x="111.3125" class="er attributeBoxEven"/><text style="dominant-baseline: middle; font-size: 10.2px;" transform="translate(116.3125,145)" y="0" x="0" id="text-entity-User-818c511a-4a32-5484-ba70-875d765a9175-attr-6-key" class="er entityLabel">PK</text></g><g transform="translate(96.54296875,510 )" id="entity-Tournament-debdbd13-4480-5320-a1b3-085b30baa76b"><rect height="156" width="211.2578125" y="0" x="0" class="er entityBox"/><text style="dominant-baseline: middle; text-anchor: middle; font-size: 12px;" transform="translate(105.62890625,12)" y="0" x="0" id="text-entity-Tournament-debdbd13-4480-5320-a1b3-085b30baa76b" class="er entityLabel">Tournament</text><rect height="22" width="85.265625" y="24" x="0" class="er attributeBoxOdd"/><text style="dominant-baseline: middle; font-size: 10.2px;" transform="translate(5,35)" y="0" x="0" id="text-entity-Tournament-debdbd13-4480-5320-a1b3-085b30baa76b-attr-1-type" class="er entityLabel">String</text><rect height="22" width="57.6484375" y="24" x="85.265625" class="er attributeBoxOdd"/><text style="dominant-baseline: middle; font-size: 10.2px;" transform="translate(90.265625,35)" y="0" x="0" id="text-entity-Tournament-debdbd13-4480-5320-a1b3-085b30baa76b-attr-1-name" class="er entityLabel">name</text><rect height="22" width="21.5625" y="24" x="142.9140625" class="er attributeBoxOdd"/><text style="dominant-baseline: middle; font-size: 10.2px;" transform="translate(147.9140625,35)" y="0" x="0" id="text-entity-Tournament-debdbd13-4480-5320-a1b3-085b30baa76b-attr-1-key" class="er entityLabel"/><rect height="22" width="46.78125" y="24" x="164.4765625" class="er attributeBoxOdd"/><text style="dominant-baseline: middle; font-size: 10.2px;" transform="translate(169.4765625,35)" y="0" x="0" id="text-entity-Tournament-debdbd13-4480-5320-a1b3-085b30baa76b-attr-1-comment" class="er entityLabel"/><rect height="22" width="85.265625" y="46" x="0" class="er attributeBoxEven"/><text style="dominant-baseline: middle; font-size: 10.2px;" transform="translate(5,57)" y="0" x="0" id="text-entity-Tournament-debdbd13-4480-5320-a1b3-085b30baa76b-attr-2-type" class="er entityLabel">String</text><rect height="22" width="57.6484375" y="46" x="85.265625" class="er attributeBoxEven"/><text style="dominant-baseline: middle; font-size: 10.2px;" transform="translate(90.265625,57)" y="0" x="0" id="text-entity-Tournament-debdbd13-4480-5320-a1b3-085b30baa76b-attr-2-name" class="er entityLabel">winner</text><rect height="22" width="21.5625" y="46" x="142.9140625" class="er attributeBoxEven"/><text style="dominant-baseline: middle; font-size: 10.2px;" transform="translate(147.9140625,57)" y="0" x="0" id="text-entity-Tournament-debdbd13-4480-5320-a1b3-085b30baa76b-attr-2-key" class="er entityLabel"/><rect height="22" width="46.78125" y="46" x="164.4765625" class="er attributeBoxEven"/><text style="dominant-baseline: middle; font-size: 10.2px;" transform="translate(169.4765625,57)" y="0" x="0" id="text-entity-Tournament-debdbd13-4480-5320-a1b3-085b30baa76b-attr-2-comment" class="er entityLabel">nullable</text><rect height="22" width="85.265625" y="68" x="0" class="er attributeBoxOdd"/><text style="dominant-baseline: middle; font-size: 10.2px;" transform="translate(5,79)" y="0" x="0" id="text-entity-Tournament-debdbd13-4480-5320-a1b3-085b30baa76b-attr-3-type" class="er entityLabel">DateTime</text><rect height="22" width="57.6484375" y="68" x="85.265625" class="er attributeBoxOdd"/><text style="dominant-baseline: middle; font-size: 10.2px;" transform="translate(90.265625,79)" y="0" x="0" id="text-entity-Tournament-debdbd13-4480-5320-a1b3-085b30baa76b-attr-3-name" class="er entityLabel">updatedAt</text><rect height="22" width="21.5625" y="68" x="142.9140625" class="er attributeBoxOdd"/><text style="dominant-baseline: middle; font-size: 10.2px;" transform="translate(147.9140625,79)" y="0" x="0" id="text-entity-Tournament-debdbd13-4480-5320-a1b3-085b30baa76b-attr-3-key" class="er entityLabel"/><rect height="22" width="46.78125" y="68" x="164.4765625" class="er attributeBoxOdd"/><text style="dominant-baseline: middle; font-size: 10.2px;" transform="translate(169.4765625,79)" y="0" x="0" id="text-entity-Tournament-debdbd13-4480-5320-a1b3-085b30baa76b-attr-3-comment" class="er entityLabel"/><rect height="22" width="85.265625" y="90" x="0" class="er attributeBoxEven"/><text style="dominant-baseline: middle; font-size: 10.2px;" transform="translate(5,101)" y="0" x="0" id="text-entity-Tournament-debdbd13-4480-5320-a1b3-085b30baa76b-attr-4-type" class="er entityLabel">TournamentType</text><rect height="22" width="57.6484375" y="90" x="85.265625" class="er attributeBoxEven"/><text style="dominant-baseline: middle; font-size: 10.2px;" transform="translate(90.265625,101)" y="0" x="0" id="text-entity-Tournament-debdbd13-4480-5320-a1b3-085b30baa76b-attr-4-name" class="er entityLabel">type</text><rect height="22" width="21.5625" y="90" x="142.9140625" class="er attributeBoxEven"/><text style="dominant-baseline: middle; font-size: 10.2px;" transform="translate(147.9140625,101)" y="0" x="0" id="text-entity-Tournament-debdbd13-4480-5320-a1b3-085b30baa76b-attr-4-key" class="er entityLabel"/><rect height="22" width="46.78125" y="90" x="164.4765625" class="er attributeBoxEven"/><text style="dominant-baseline: middle; font-size: 10.2px;" transform="translate(169.4765625,101)" y="0" x="0" id="text-entity-Tournament-debdbd13-4480-5320-a1b3-085b30baa76b-attr-4-comment" class="er entityLabel"/><rect height="22" width="85.265625" y="112" x="0" class="er attributeBoxOdd"/><text style="dominant-baseline: middle; font-size: 10.2px;" transform="translate(5,123)" y="0" x="0" id="text-entity-Tournament-debdbd13-4480-5320-a1b3-085b30baa76b-attr-5-type" class="er entityLabel">DateTime</text><rect height="22" width="57.6484375" y="112" x="85.265625" class="er attributeBoxOdd"/><text style="dominant-baseline: middle; font-size: 10.2px;" transform="translate(90.265625,123)" y="0" x="0" id="text-entity-Tournament-debdbd13-4480-5320-a1b3-085b30baa76b-attr-5-name" class="er entityLabel">createdAt</text><rect height="22" width="21.5625" y="112" x="142.9140625" class="er attributeBoxOdd"/><text style="dominant-baseline: middle; font-size: 10.2px;" transform="translate(147.9140625,123)" y="0" x="0" id="text-entity-Tournament-debdbd13-4480-5320-a1b3-085b30baa76b-attr-5-key" class="er entityLabel"/><rect height="22" width="46.78125" y="112" x="164.4765625" class="er attributeBoxOdd"/><text style="dominant-baseline: middle; font-size: 10.2px;" transform="translate(169.4765625,123)" y="0" x="0" id="text-entity-Tournament-debdbd13-4480-5320-a1b3-085b30baa76b-attr-5-comment" class="er entityLabel"/><rect height="22" width="85.265625" y="134" x="0" class="er attributeBoxEven"/><text style="dominant-baseline: middle; font-size: 10.2px;" transform="translate(5,145)" y="0" x="0" id="text-entity-Tournament-debdbd13-4480-5320-a1b3-085b30baa76b-attr-6-type" class="er entityLabel">String</text><rect height="22" width="57.6484375" y="134" x="85.265625" class="er attributeBoxEven"/><text style="dominant-baseline: middle; font-size: 10.2px;" transform="translate(90.265625,145)" y="0" x="0" id="text-entity-Tournament-debdbd13-4480-5320-a1b3-085b30baa76b-attr-6-name" class="er entityLabel">id</text><rect height="22" width="21.5625" y="134" x="142.9140625" class="er attributeBoxEven"/><text style="dominant-baseline: middle; font-size: 10.2px;" transform="translate(147.9140625,145)" y="0" x="0" id="text-entity-Tournament-debdbd13-4480-5320-a1b3-085b30baa76b-attr-6-key" class="er entityLabel">PK</text><rect height="22" width="46.78125" y="134" x="164.4765625" class="er attributeBoxEven"/><text style="dominant-baseline: middle; font-size: 10.2px;" transform="translate(169.4765625,145)" y="0" x="0" id="text-entity-Tournament-debdbd13-4480-5320-a1b3-085b30baa76b-attr-6-comment" class="er entityLabel"/></g><g transform="translate(20,254 )" id="entity-Participant-1b15d7dd-2236-59ff-b08e-47bf86f1c4ca"><rect height="156" width="132.875" y="0" x="0" class="er entityBox"/><text style="dominant-baseline: middle; text-anchor: middle; font-size: 12px;" transform="translate(66.4375,12)" y="0" x="0" id="text-entity-Participant-1b15d7dd-2236-59ff-b08e-47bf86f1c4ca" class="er entityLabel">Participant</text><rect height="22" width="53.6640625" y="24" x="0" class="er attributeBoxOdd"/><text style="dominant-baseline: middle; font-size: 10.2px;" transform="translate(5,35)" y="0" x="0" id="text-entity-Participant-1b15d7dd-2236-59ff-b08e-47bf86f1c4ca-attr-1-type" class="er entityLabel">String</text><rect height="22" width="57.6484375" y="24" x="53.6640625" class="er attributeBoxOdd"/><text style="dominant-baseline: middle; font-size: 10.2px;" transform="translate(58.6640625,35)" y="0" x="0" id="text-entity-Participant-1b15d7dd-2236-59ff-b08e-47bf86f1c4ca-attr-1-name" class="er entityLabel">name</text><rect height="22" width="21.5625" y="24" x="111.3125" class="er attributeBoxOdd"/><text style="dominant-baseline: middle; font-size: 10.2px;" transform="translate(116.3125,35)" y="0" x="0" id="text-entity-Participant-1b15d7dd-2236-59ff-b08e-47bf86f1c4ca-attr-1-key" class="er entityLabel"/><rect height="22" width="53.6640625" y="46" x="0" class="er attributeBoxEven"/><text style="dominant-baseline: middle; font-size: 10.2px;" transform="translate(5,57)" y="0" x="0" id="text-entity-Participant-1b15d7dd-2236-59ff-b08e-47bf86f1c4ca-attr-2-type" class="er entityLabel">String</text><rect height="22" width="57.6484375" y="46" x="53.6640625" class="er attributeBoxEven"/><text style="dominant-baseline: middle; font-size: 10.2px;" transform="translate(58.6640625,57)" y="0" x="0" id="text-entity-Participant-1b15d7dd-2236-59ff-b08e-47bf86f1c4ca-attr-2-name" class="er entityLabel">group</text><rect height="22" width="21.5625" y="46" x="111.3125" class="er attributeBoxEven"/><text style="dominant-baseline: middle; font-size: 10.2px;" transform="translate(116.3125,57)" y="0" x="0" id="text-entity-Participant-1b15d7dd-2236-59ff-b08e-47bf86f1c4ca-attr-2-key" class="er entityLabel"/><rect height="22" width="53.6640625" y="68" x="0" class="er attributeBoxOdd"/><text style="dominant-baseline: middle; font-size: 10.2px;" transform="translate(5,79)" y="0" x="0" id="text-entity-Participant-1b15d7dd-2236-59ff-b08e-47bf86f1c4ca-attr-3-type" class="er entityLabel">DateTime</text><rect height="22" width="57.6484375" y="68" x="53.6640625" class="er attributeBoxOdd"/><text style="dominant-baseline: middle; font-size: 10.2px;" transform="translate(58.6640625,79)" y="0" x="0" id="text-entity-Participant-1b15d7dd-2236-59ff-b08e-47bf86f1c4ca-attr-3-name" class="er entityLabel">updatedAt</text><rect height="22" width="21.5625" y="68" x="111.3125" class="er attributeBoxOdd"/><text style="dominant-baseline: middle; font-size: 10.2px;" transform="translate(116.3125,79)" y="0" x="0" id="text-entity-Participant-1b15d7dd-2236-59ff-b08e-47bf86f1c4ca-attr-3-key" class="er entityLabel"/><rect height="22" width="53.6640625" y="90" x="0" class="er attributeBoxEven"/><text style="dominant-baseline: middle; font-size: 10.2px;" transform="translate(5,101)" y="0" x="0" id="text-entity-Participant-1b15d7dd-2236-59ff-b08e-47bf86f1c4ca-attr-4-type" class="er entityLabel">Int</text><rect height="22" width="57.6484375" y="90" x="53.6640625" class="er attributeBoxEven"/><text style="dominant-baseline: middle; font-size: 10.2px;" transform="translate(58.6640625,101)" y="0" x="0" id="text-entity-Participant-1b15d7dd-2236-59ff-b08e-47bf86f1c4ca-attr-4-name" class="er entityLabel">score</text><rect height="22" width="21.5625" y="90" x="111.3125" class="er attributeBoxEven"/><text style="dominant-baseline: middle; font-size: 10.2px;" transform="translate(116.3125,101)" y="0" x="0" id="text-entity-Participant-1b15d7dd-2236-59ff-b08e-47bf86f1c4ca-attr-4-key" class="er entityLabel"/><rect height="22" width="53.6640625" y="112" x="0" class="er attributeBoxOdd"/><text style="dominant-baseline: middle; font-size: 10.2px;" transform="translate(5,123)" y="0" x="0" id="text-entity-Participant-1b15d7dd-2236-59ff-b08e-47bf86f1c4ca-attr-5-type" class="er entityLabel">DateTime</text><rect height="22" width="57.6484375" y="112" x="53.6640625" class="er attributeBoxOdd"/><text style="dominant-baseline: middle; font-size: 10.2px;" transform="translate(58.6640625,123)" y="0" x="0" id="text-entity-Participant-1b15d7dd-2236-59ff-b08e-47bf86f1c4ca-attr-5-name" class="er entityLabel">createdAt</text><rect height="22" width="21.5625" y="112" x="111.3125" class="er attributeBoxOdd"/><text style="dominant-baseline: middle; font-size: 10.2px;" transform="translate(116.3125,123)" y="0" x="0" id="text-entity-Participant-1b15d7dd-2236-59ff-b08e-47bf86f1c4ca-attr-5-key" class="er entityLabel"/><rect height="22" width="53.6640625" y="134" x="0" class="er attributeBoxEven"/><text style="dominant-baseline: middle; font-size: 10.2px;" transform="translate(5,145)" y="0" x="0" id="text-entity-Participant-1b15d7dd-2236-59ff-b08e-47bf86f1c4ca-attr-6-type" class="er entityLabel">String</text><rect height="22" width="57.6484375" y="134" x="53.6640625" class="er attributeBoxEven"/><text style="dominant-baseline: middle; font-size: 10.2px;" transform="translate(58.6640625,145)" y="0" x="0" id="text-entity-Participant-1b15d7dd-2236-59ff-b08e-47bf86f1c4ca-attr-6-name" class="er entityLabel">id</text><rect height="22" width="21.5625" y="134" x="111.3125" class="er attributeBoxEven"/><text style="dominant-baseline: middle; font-size: 10.2px;" transform="translate(116.3125,145)" y="0" x="0" id="text-entity-Participant-1b15d7dd-2236-59ff-b08e-47bf86f1c4ca-attr-6-key" class="er entityLabel">PK</text></g><g transform="translate(291.9609375,20 )" id="entity-Games-51bbeccb-5d0e-5638-901f-8dd2836655e5"><rect height="134" width="121.828125" y="0" x="0" class="er entityBox"/><text style="dominant-baseline: middle; text-anchor: middle; font-size: 12px;" transform="translate(60.9140625,12)" y="0" x="0" id="text-entity-Games-51bbeccb-5d0e-5638-901f-8dd2836655e5" class="er entityLabel">Games</text><rect height="22" width="36.5234375" y="24" x="0" class="er attributeBoxOdd"/><text style="dominant-baseline: middle; font-size: 10.2px;" transform="translate(5,35)" y="0" x="0" id="text-entity-Games-51bbeccb-5d0e-5638-901f-8dd2836655e5-attr-1-type" class="er entityLabel">Int</text><rect height="22" width="63.7421875" y="24" x="36.5234375" class="er attributeBoxOdd"/><text style="dominant-baseline: middle; font-size: 10.2px;" transform="translate(41.5234375,35)" y="0" x="0" id="text-entity-Games-51bbeccb-5d0e-5638-901f-8dd2836655e5-attr-1-name" class="er entityLabel">gameOrder</text><rect height="22" width="21.5625" y="24" x="100.265625" class="er attributeBoxOdd"/><text style="dominant-baseline: middle; font-size: 10.2px;" transform="translate(105.265625,35)" y="0" x="0" id="text-entity-Games-51bbeccb-5d0e-5638-901f-8dd2836655e5-attr-1-key" class="er entityLabel"/><rect height="22" width="36.5234375" y="46" x="0" class="er attributeBoxEven"/><text style="dominant-baseline: middle; font-size: 10.2px;" transform="translate(5,57)" y="0" x="0" id="text-entity-Games-51bbeccb-5d0e-5638-901f-8dd2836655e5-attr-2-type" class="er entityLabel">String</text><rect height="22" width="63.7421875" y="46" x="36.5234375" class="er attributeBoxEven"/><text style="dominant-baseline: middle; font-size: 10.2px;" transform="translate(41.5234375,57)" y="0" x="0" id="text-entity-Games-51bbeccb-5d0e-5638-901f-8dd2836655e5-attr-2-name" class="er entityLabel">group</text><rect height="22" width="21.5625" y="46" x="100.265625" class="er attributeBoxEven"/><text style="dominant-baseline: middle; font-size: 10.2px;" transform="translate(105.265625,57)" y="0" x="0" id="text-entity-Games-51bbeccb-5d0e-5638-901f-8dd2836655e5-attr-2-key" class="er entityLabel"/><rect height="22" width="36.5234375" y="68" x="0" class="er attributeBoxOdd"/><text style="dominant-baseline: middle; font-size: 10.2px;" transform="translate(5,79)" y="0" x="0" id="text-entity-Games-51bbeccb-5d0e-5638-901f-8dd2836655e5-attr-3-type" class="er entityLabel">Int</text><rect height="22" width="63.7421875" y="68" x="36.5234375" class="er attributeBoxOdd"/><text style="dominant-baseline: middle; font-size: 10.2px;" transform="translate(41.5234375,79)" y="0" x="0" id="text-entity-Games-51bbeccb-5d0e-5638-901f-8dd2836655e5-attr-3-name" class="er entityLabel">team1Score</text><rect height="22" width="21.5625" y="68" x="100.265625" class="er attributeBoxOdd"/><text style="dominant-baseline: middle; font-size: 10.2px;" transform="translate(105.265625,79)" y="0" x="0" id="text-entity-Games-51bbeccb-5d0e-5638-901f-8dd2836655e5-attr-3-key" class="er entityLabel"/><rect height="22" width="36.5234375" y="90" x="0" class="er attributeBoxEven"/><text style="dominant-baseline: middle; font-size: 10.2px;" transform="translate(5,101)" y="0" x="0" id="text-entity-Games-51bbeccb-5d0e-5638-901f-8dd2836655e5-attr-4-type" class="er entityLabel">Int</text><rect height="22" width="63.7421875" y="90" x="36.5234375" class="er attributeBoxEven"/><text style="dominant-baseline: middle; font-size: 10.2px;" transform="translate(41.5234375,101)" y="0" x="0" id="text-entity-Games-51bbeccb-5d0e-5638-901f-8dd2836655e5-attr-4-name" class="er entityLabel">team2Score</text><rect height="22" width="21.5625" y="90" x="100.265625" class="er attributeBoxEven"/><text style="dominant-baseline: middle; font-size: 10.2px;" transform="translate(105.265625,101)" y="0" x="0" id="text-entity-Games-51bbeccb-5d0e-5638-901f-8dd2836655e5-attr-4-key" class="er entityLabel"/><rect height="22" width="36.5234375" y="112" x="0" class="er attributeBoxOdd"/><text style="dominant-baseline: middle; font-size: 10.2px;" transform="translate(5,123)" y="0" x="0" id="text-entity-Games-51bbeccb-5d0e-5638-901f-8dd2836655e5-attr-5-type" class="er entityLabel">String</text><rect height="22" width="63.7421875" y="112" x="36.5234375" class="er attributeBoxOdd"/><text style="dominant-baseline: middle; font-size: 10.2px;" transform="translate(41.5234375,123)" y="0" x="0" id="text-entity-Games-51bbeccb-5d0e-5638-901f-8dd2836655e5-attr-5-name" class="er entityLabel">id</text><rect height="22" width="21.5625" y="112" x="100.265625" class="er attributeBoxOdd"/><text style="dominant-baseline: middle; font-size: 10.2px;" transform="translate(105.265625,123)" y="0" x="0" id="text-entity-Games-51bbeccb-5d0e-5638-901f-8dd2836655e5-attr-5-key" class="er entityLabel">PK</text></g><g transform="translate(369.65625,276 )" id="entity-Team-bf3f5416-76e3-5dc0-89d0-070d82786f59"><rect height="112" width="132.875" y="0" x="0" class="er entityBox"/><text style="dominant-baseline: middle; text-anchor: middle; font-size: 12px;" transform="translate(66.4375,12)" y="0" x="0" id="text-entity-Team-bf3f5416-76e3-5dc0-89d0-070d82786f59" class="er entityLabel">Team</text><rect height="22" width="53.6640625" y="24" x="0" class="er attributeBoxOdd"/><text style="dominant-baseline: middle; font-size: 10.2px;" transform="translate(5,35)" y="0" x="0" id="text-entity-Team-bf3f5416-76e3-5dc0-89d0-070d82786f59-attr-1-type" class="er entityLabel">String</text><rect height="22" width="57.6484375" y="24" x="53.6640625" class="er attributeBoxOdd"/><text style="dominant-baseline: middle; font-size: 10.2px;" transform="translate(58.6640625,35)" y="0" x="0" id="text-entity-Team-bf3f5416-76e3-5dc0-89d0-070d82786f59-attr-1-name" class="er entityLabel">name</text><rect height="22" width="21.5625" y="24" x="111.3125" class="er attributeBoxOdd"/><text style="dominant-baseline: middle; font-size: 10.2px;" transform="translate(116.3125,35)" y="0" x="0" id="text-entity-Team-bf3f5416-76e3-5dc0-89d0-070d82786f59-attr-1-key" class="er entityLabel"/><rect height="22" width="53.6640625" y="46" x="0" class="er attributeBoxEven"/><text style="dominant-baseline: middle; font-size: 10.2px;" transform="translate(5,57)" y="0" x="0" id="text-entity-Team-bf3f5416-76e3-5dc0-89d0-070d82786f59-attr-2-type" class="er entityLabel">DateTime</text><rect height="22" width="57.6484375" y="46" x="53.6640625" class="er attributeBoxEven"/><text style="dominant-baseline: middle; font-size: 10.2px;" transform="translate(58.6640625,57)" y="0" x="0" id="text-entity-Team-bf3f5416-76e3-5dc0-89d0-070d82786f59-attr-2-name" class="er entityLabel">updatedAt</text><rect height="22" width="21.5625" y="46" x="111.3125" class="er attributeBoxEven"/><text style="dominant-baseline: middle; font-size: 10.2px;" transform="translate(116.3125,57)" y="0" x="0" id="text-entity-Team-bf3f5416-76e3-5dc0-89d0-070d82786f59-attr-2-key" class="er entityLabel"/><rect height="22" width="53.6640625" y="68" x="0" class="er attributeBoxOdd"/><text style="dominant-baseline: middle; font-size: 10.2px;" transform="translate(5,79)" y="0" x="0" id="text-entity-Team-bf3f5416-76e3-5dc0-89d0-070d82786f59-attr-3-type" class="er entityLabel">DateTime</text><rect height="22" width="57.6484375" y="68" x="53.6640625" class="er attributeBoxOdd"/><text style="dominant-baseline: middle; font-size: 10.2px;" transform="translate(58.6640625,79)" y="0" x="0" id="text-entity-Team-bf3f5416-76e3-5dc0-89d0-070d82786f59-attr-3-name" class="er entityLabel">createdAt</text><rect height="22" width="21.5625" y="68" x="111.3125" class="er attributeBoxOdd"/><text style="dominant-baseline: middle; font-size: 10.2px;" transform="translate(116.3125,79)" y="0" x="0" id="text-entity-Team-bf3f5416-76e3-5dc0-89d0-070d82786f59-attr-3-key" class="er entityLabel"/><rect height="22" width="53.6640625" y="90" x="0" class="er attributeBoxEven"/><text style="dominant-baseline: middle; font-size: 10.2px;" transform="translate(5,101)" y="0" x="0" id="text-entity-Team-bf3f5416-76e3-5dc0-89d0-070d82786f59-attr-4-type" class="er entityLabel">String</text><rect height="22" width="57.6484375" y="90" x="53.6640625" class="er attributeBoxEven"/><text style="dominant-baseline: middle; font-size: 10.2px;" transform="translate(58.6640625,101)" y="0" x="0" id="text-entity-Team-bf3f5416-76e3-5dc0-89d0-070d82786f59-attr-4-name" class="er entityLabel">id</text><rect height="22" width="21.5625" y="90" x="111.3125" class="er attributeBoxEven"/><text style="dominant-baseline: middle; font-size: 10.2px;" transform="translate(116.3125,101)" y="0" x="0" id="text-entity-Team-bf3f5416-76e3-5dc0-89d0-070d82786f59-attr-4-key" class="er entityLabel">PK</text></g><g transform="translate(407.80078125,554 )" id="entity-Password-21901b32-bf0e-536e-bcdd-09ed9082306b"><rect height="68" width="110.1015625" y="0" x="0" class="er entityBox"/><text style="dominant-baseline: middle; text-anchor: middle; font-size: 12px;" transform="translate(55.05078125,12)" y="0" x="0" id="text-entity-Password-21901b32-bf0e-536e-bcdd-09ed9082306b" class="er entityLabel">Password</text><rect height="22" width="36.5234375" y="24" x="0" class="er attributeBoxOdd"/><text style="dominant-baseline: middle; font-size: 10.2px;" transform="translate(5,35)" y="0" x="0" id="text-entity-Password-21901b32-bf0e-536e-bcdd-09ed9082306b-attr-1-type" class="er entityLabel">String</text><rect height="22" width="52.015625" y="24" x="36.5234375" class="er attributeBoxOdd"/><text style="dominant-baseline: middle; font-size: 10.2px;" transform="translate(41.5234375,35)" y="0" x="0" id="text-entity-Password-21901b32-bf0e-536e-bcdd-09ed9082306b-attr-1-name" class="er entityLabel">password</text><rect height="22" width="21.5625" y="24" x="88.5390625" class="er attributeBoxOdd"/><text style="dominant-baseline: middle; font-size: 10.2px;" transform="translate(93.5390625,35)" y="0" x="0" id="text-entity-Password-21901b32-bf0e-536e-bcdd-09ed9082306b-attr-1-key" class="er entityLabel"/><rect height="22" width="36.5234375" y="46" x="0" class="er attributeBoxEven"/><text style="dominant-baseline: middle; font-size: 10.2px;" transform="translate(5,57)" y="0" x="0" id="text-entity-Password-21901b32-bf0e-536e-bcdd-09ed9082306b-attr-2-type" class="er entityLabel">String</text><rect height="22" width="52.015625" y="46" x="36.5234375" class="er attributeBoxEven"/><text style="dominant-baseline: middle; font-size: 10.2px;" transform="translate(41.5234375,57)" y="0" x="0" id="text-entity-Password-21901b32-bf0e-536e-bcdd-09ed9082306b-attr-2-name" class="er entityLabel">id</text><rect height="22" width="21.5625" y="46" x="88.5390625" class="er attributeBoxEven"/><text style="dominant-baseline: middle; font-size: 10.2px;" transform="translate(93.5390625,57)" y="0" x="0" id="text-entity-Password-21901b32-bf0e-536e-bcdd-09ed9082306b-attr-2-key" class="er entityLabel">PK</text></g><g transform="translate(617.90234375,521 )" id="entity-LoginToken-c7a39e19-9df2-533a-90f3-2ed3bbae3620"><rect height="134" width="132.875" y="0" x="0" class="er entityBox"/><text style="dominant-baseline: middle; text-anchor: middle; font-size: 12px;" transform="translate(66.4375,12)" y="0" x="0" id="text-entity-LoginToken-c7a39e19-9df2-533a-90f3-2ed3bbae3620" class="er entityLabel">LoginToken</text><rect height="22" width="53.6640625" y="24" x="0" class="er attributeBoxOdd"/><text style="dominant-baseline: middle; font-size: 10.2px;" transform="translate(5,35)" y="0" x="0" id="text-entity-LoginToken-c7a39e19-9df2-533a-90f3-2ed3bbae3620-attr-1-type" class="er entityLabel">String</text><rect height="22" width="57.6484375" y="24" x="53.6640625" class="er attributeBoxOdd"/><text style="dominant-baseline: middle; font-size: 10.2px;" transform="translate(58.6640625,35)" y="0" x="0" id="text-entity-LoginToken-c7a39e19-9df2-533a-90f3-2ed3bbae3620-attr-1-name" class="er entityLabel">token</text><rect height="22" width="21.5625" y="24" x="111.3125" class="er attributeBoxOdd"/><text style="dominant-baseline: middle; font-size: 10.2px;" transform="translate(116.3125,35)" y="0" x="0" id="text-entity-LoginToken-c7a39e19-9df2-533a-90f3-2ed3bbae3620-attr-1-key" class="er entityLabel"/><rect height="22" width="53.6640625" y="46" x="0" class="er attributeBoxEven"/><text style="dominant-baseline: middle; font-size: 10.2px;" transform="translate(5,57)" y="0" x="0" id="text-entity-LoginToken-c7a39e19-9df2-533a-90f3-2ed3bbae3620-attr-2-type" class="er entityLabel">DateTime</text><rect height="22" width="57.6484375" y="46" x="53.6640625" class="er attributeBoxEven"/><text style="dominant-baseline: middle; font-size: 10.2px;" transform="translate(58.6640625,57)" y="0" x="0" id="text-entity-LoginToken-c7a39e19-9df2-533a-90f3-2ed3bbae3620-attr-2-name" class="er entityLabel">updatedAt</text><rect height="22" width="21.5625" y="46" x="111.3125" class="er attributeBoxEven"/><text style="dominant-baseline: middle; font-size: 10.2px;" transform="translate(116.3125,57)" y="0" x="0" id="text-entity-LoginToken-c7a39e19-9df2-533a-90f3-2ed3bbae3620-attr-2-key" class="er entityLabel"/><rect height="22" width="53.6640625" y="68" x="0" class="er attributeBoxOdd"/><text style="dominant-baseline: middle; font-size: 10.2px;" transform="translate(5,79)" y="0" x="0" id="text-entity-LoginToken-c7a39e19-9df2-533a-90f3-2ed3bbae3620-attr-3-type" class="er entityLabel">Boolean</text><rect height="22" width="57.6484375" y="68" x="53.6640625" class="er attributeBoxOdd"/><text style="dominant-baseline: middle; font-size: 10.2px;" transform="translate(58.6640625,79)" y="0" x="0" id="text-entity-LoginToken-c7a39e19-9df2-533a-90f3-2ed3bbae3620-attr-3-name" class="er entityLabel">isActive</text><rect height="22" width="21.5625" y="68" x="111.3125" class="er attributeBoxOdd"/><text style="dominant-baseline: middle; font-size: 10.2px;" transform="translate(116.3125,79)" y="0" x="0" id="text-entity-LoginToken-c7a39e19-9df2-533a-90f3-2ed3bbae3620-attr-3-key" class="er entityLabel"/><rect height="22" width="53.6640625" y="90" x="0" class="er attributeBoxEven"/><text style="dominant-baseline: middle; font-size: 10.2px;" transform="translate(5,101)" y="0" x="0" id="text-entity-LoginToken-c7a39e19-9df2-533a-90f3-2ed3bbae3620-attr-4-type" class="er entityLabel">DateTime</text><rect height="22" width="57.6484375" y="90" x="53.6640625" class="er attributeBoxEven"/><text style="dominant-baseline: middle; font-size: 10.2px;" transform="translate(58.6640625,101)" y="0" x="0" id="text-entity-LoginToken-c7a39e19-9df2-533a-90f3-2ed3bbae3620-attr-4-name" class="er entityLabel">createdAt</text><rect height="22" width="21.5625" y="90" x="111.3125" class="er attributeBoxEven"/><text style="dominant-baseline: middle; font-size: 10.2px;" transform="translate(116.3125,101)" y="0" x="0" id="text-entity-LoginToken-c7a39e19-9df2-533a-90f3-2ed3bbae3620-attr-4-key" class="er entityLabel"/><rect height="22" width="53.6640625" y="112" x="0" class="er attributeBoxOdd"/><text style="dominant-baseline: middle; font-size: 10.2px;" transform="translate(5,123)" y="0" x="0" id="text-entity-LoginToken-c7a39e19-9df2-533a-90f3-2ed3bbae3620-attr-5-type" class="er entityLabel">String</text><rect height="22" width="57.6484375" y="112" x="53.6640625" class="er attributeBoxOdd"/><text style="dominant-baseline: middle; font-size: 10.2px;" transform="translate(58.6640625,123)" y="0" x="0" id="text-entity-LoginToken-c7a39e19-9df2-533a-90f3-2ed3bbae3620-attr-5-name" class="er entityLabel">id</text><rect height="22" width="21.5625" y="112" x="111.3125" class="er attributeBoxOdd"/><text style="dominant-baseline: middle; font-size: 10.2px;" transform="translate(116.3125,123)" y="0" x="0" id="text-entity-LoginToken-c7a39e19-9df2-533a-90f3-2ed3bbae3620-attr-5-key" class="er entityLabel">PK</text></g><rect height="14" width="57.9375" y="727.779296875" x="93.9528579711914" class="er relationshipLabelBox"/><text style="text-anchor: middle; dominant-baseline: middle; font-size: 12px;" y="734.779296875" x="122.9216079711914" id="rel1" class="er relationshipLabel">enum:type</text><rect height="14" width="22.625" y="739.6630859375" x="329.664794921875" class="er relationshipLabelBox"/><text style="text-anchor: middle; dominant-baseline: middle; font-size: 12px;" y="746.6630859375" x="340.977294921875" id="rel2" class="er relationshipLabel">user</text><rect height="14" width="63.1015625" y="458.2983703613281" x="65.05839538574219" class="er relationshipLabelBox"/><text style="text-anchor: middle; dominant-baseline: middle; font-size: 12px;" y="465.2983703613281" x="96.60917663574219" id="rel3" class="er relationshipLabel">tournament</text><rect height="14" width="63.1015625" y="320.8877868652344" x="221.3251190185547" class="er relationshipLabelBox"/><text style="text-anchor: middle; dominant-baseline: middle; font-size: 12px;" y="327.8877868652344" x="252.8759002685547" id="rel4" class="er relationshipLabel">tournament</text><rect height="14" width="33.8671875" y="208.62860107421875" x="374.29217529296875" class="er relationshipLabelBox"/><text style="text-anchor: middle; dominant-baseline: middle; font-size: 12px;" y="215.62860107421875" x="391.22576904296875" id="rel5" class="er relationshipLabel">team1</text><rect height="14" width="33.8671875" y="192.20779418945312" x="449.9783020019531" class="er relationshipLabelBox"/><text style="text-anchor: middle; dominant-baseline: middle; font-size: 12px;" y="199.20779418945312" x="466.9118957519531" id="rel6" class="er relationshipLabel">team2</text><rect height="14" width="63.1015625" y="469.98388671875" x="364.1127624511719" class="er relationshipLabelBox"/><text style="text-anchor: middle; dominant-baseline: middle; font-size: 12px;" y="476.98388671875" x="395.6635437011719" id="rel7" class="er relationshipLabel">tournament</text><rect height="14" width="22.625" y="688.2738037109375" x="453.3721923828125" class="er relationshipLabelBox"/><text style="text-anchor: middle; dominant-baseline: middle; font-size: 12px;" y="695.2738037109375" x="464.6846923828125" id="rel8" class="er relationshipLabel">user</text><rect height="14" width="22.625" y="729.63671875" x="639.7951049804688" class="er relationshipLabelBox"/><text style="text-anchor: middle; dominant-baseline: middle; font-size: 12px;" y="736.63671875" x="651.1076049804688" id="rel9" class="er relationshipLabel">user</text></svg>