<?xml version="1.0" standalone="no"?>
<!DOCTYPE svg PUBLIC "-//W3C//DTD SVG 20010904//EN"
 "http://www.w3.org/TR/2001/REC-SVG-20010904/DTD/svg10.dtd">
<svg version="1.0" xmlns="http://www.w3.org/2000/svg"
 width="1024.000000pt" height="1024.000000pt" viewBox="0 0 1024.000000 1024.000000"
 preserveAspectRatio="xMidYMid meet">
<metadata>
Created by Aigars Peda
</metadata>
<g transform="translate(0.000000,1024.000000) scale(0.100000,-0.100000)"
fill="#000000" stroke="none">
<path d="M0 5120 l0 -5120 5120 0 5120 0 0 5120 0 5120 -5120 0 -5120 0 0
-5120z m1417 3248 c5 -13 126 -305 268 -651 l258 -627 21 37 c12 21 172 314
356 651 215 395 339 612 347 610 8 -2 172 -289 365 -638 193 -349 353 -638
357 -642 3 -4 125 281 271 634 146 352 270 642 275 644 6 3 146 3 312 2 l301
-3 -515 -1110 c-283 -610 -520 -1116 -525 -1122 -6 -7 -30 -13 -54 -13 -54 0
-2 -78 -445 670 -188 319 -344 578 -345 577 -1 -1 -163 -274 -359 -607 -197
-333 -365 -613 -373 -622 -18 -21 -94 -25 -109 -5 -11 13 -1043 2222 -1043
2231 0 3 141 6 313 6 l314 0 10 -22z m4083 -570 c0 -788 11 -942 75 -1068 67
-133 188 -190 400 -191 160 -1 267 34 390 126 100 75 197 214 226 325 9 32 13
240 16 723 l4 677 290 0 289 0 -2 -1122 -3 -1123 -237 -3 c-219 -2 -237 -1
-242 15 -3 10 -17 81 -32 158 -15 77 -28 141 -29 143 -1 1 -44 -40 -96 -91
-204 -203 -421 -276 -789 -264 -190 6 -266 20 -387 67 -264 103 -413 358 -453
775 -5 55 -10 403 -10 773 l0 672 295 0 295 0 0 -592z m-2983 -2563 c245 -15
500 -125 671 -289 210 -200 303 -454 303 -825 0 -333 -101 -588 -318 -807
-212 -214 -496 -324 -838 -324 -255 -1 -438 40 -605 135 -88 50 -124 78 -197
154 l-63 64 0 -726 0 -727 -275 0 -275 0 0 1650 0 1650 275 0 275 0 0 -196 0
-196 43 58 c89 121 240 241 380 302 126 55 359 95 497 85 19 -1 77 -5 127 -8z
m3385 -72 c-10 -16 -255 -374 -542 -798 -288 -423 -550 -806 -582 -849 -32
-44 -58 -82 -58 -85 0 -3 82 -3 182 0 101 4 362 10 581 14 l397 8 0 -211 0
-212 -1025 0 c-564 0 -1025 2 -1025 5 0 8 1091 1588 1143 1655 27 36 54 71 60
77 7 10 -94 11 -482 6 l-491 -6 0 211 0 212 931 0 930 0 -19 -27z m1146 -681
c144 -389 284 -770 311 -847 57 -162 41 -172 127 75 29 85 170 452 313 815
l259 660 307 3 c290 2 307 1 303 -15 -3 -10 -333 -762 -733 -1670 l-728 -1653
-293 0 -293 0 23 53 c13 28 128 277 255 551 127 274 231 505 231 513 0 8 -220
508 -490 1113 -269 604 -490 1101 -490 1104 0 3 143 6 318 6 l317 0 263 -708z
m2199 -1022 c77 -36 146 -104 181 -178 23 -49 27 -70 27 -152 0 -81 -4 -103
-26 -150 -137 -292 -541 -293 -678 -1 -22 48 -26 69 -26 151 0 82 4 103 27
152 47 100 154 185 262 208 68 15 164 2 233 -30z"/>
<path d="M2116 4799 c-238 -25 -449 -164 -545 -359 -57 -117 -74 -205 -68
-355 6 -149 36 -250 105 -356 95 -145 263 -260 431 -295 147 -30 352 -15 481
36 173 68 313 236 367 440 26 97 23 319 -5 423 -50 182 -162 324 -313 397
-128 61 -292 86 -453 69z"/>
</g>
</svg>
