<?xml version="1.0" encoding="UTF-8" standalone="no"?>
<!DOCTYPE svg PUBLIC "-//W3C//DTD SVG 1.1//EN" "http://www.w3.org/Graphics/SVG/1.1/DTD/svg11.dtd">
<svg width="100%" height="100%" viewBox="0 0 2147 1699" version="1.1" xmlns="http://www.w3.org/2000/svg" xmlns:xlink="http://www.w3.org/1999/xlink" xml:space="preserve" xmlns:serif="http://www.serif.com/" style="fill-rule:evenodd;clip-rule:evenodd;stroke-linejoin:round;stroke-miterlimit:2;">
    <g transform="matrix(1,0,0,1,-210.406,-851.93)">
        <g transform="matrix(2.05229,0,0,2.05229,-2003.76,-2582.69)">
            <g transform="matrix(1.67501,0,0,1.29542,-900.401,-703.739)">
                <rect x="1181.65" y="1835.15" width="624.549" height="638.978"/>
            </g>
            <g transform="matrix(1.26124,0,0,1.26124,-345.012,-610.142)">
                <g transform="matrix(0.648926,0,0,0.648926,828.306,1514.45)">
                    <path d="M791.598,755.434L724.359,881.508L714.965,881.508L619.545,654.575L676.896,654.575L725.842,786.582L790.609,654.575L792.587,654.575L857.848,785.593L906.795,654.575L963.157,654.575L868.231,881.508L858.837,881.508L791.598,755.434Z" style="fill:white;stroke:white;stroke-width:0.6px;"/>
                </g>
                <g transform="matrix(0.648926,0,0,0.648926,828.306,1514.45)">
                    <path d="M1078.35,886.452C1047.04,886.452 1025.54,877.223 1013.83,858.765C1002.13,840.307 996.282,814.598 996.282,781.638L996.282,654.575L1049.68,654.575L1049.68,768.289C1049.68,787.076 1050.75,801.661 1052.89,812.043C1055.03,822.426 1059.32,830.089 1065.75,835.033C1072.17,839.977 1081.82,842.449 1094.67,842.449C1103.9,842.449 1112.8,839.813 1121.37,834.539C1129.94,829.265 1136.94,822.096 1142.38,813.032C1147.82,803.968 1150.54,793.998 1150.54,783.121L1150.54,654.575L1203.44,654.575L1203.44,881.508L1159.93,881.508L1154,848.382C1145.76,861.237 1135.46,870.795 1123.1,877.058C1110.74,883.32 1095.82,886.452 1078.35,886.452Z" style="fill:white;stroke:white;stroke-width:0.6px;"/>
                </g>
                <g transform="matrix(1,0,0,1,615.823,101.038)">
                    <path d="M623.234,2031.41L655.275,2031.41L655.275,2057.6C666.571,2037.67 684.235,2027.71 708.265,2027.71C728.188,2027.71 744.311,2034.03 756.635,2046.66C768.958,2059.29 775.12,2077.52 775.12,2101.35C775.12,2116.13 772.09,2129.18 766.031,2140.47C759.972,2151.77 751.757,2160.5 741.384,2166.66C731.012,2172.82 719.459,2175.9 706.725,2175.9C694.812,2175.9 684.492,2173.8 675.763,2169.59C667.034,2165.38 660.204,2159.37 655.275,2151.56L655.583,2247.69L623.234,2247.69L623.234,2031.41ZM699.023,2147.87C712.373,2147.87 722.643,2143.61 729.831,2135.08C737.02,2126.56 740.614,2115.62 740.614,2102.27C740.614,2088.3 737.071,2077.16 729.985,2068.84C722.899,2060.53 712.579,2056.37 699.023,2056.37C691.629,2056.37 684.697,2058.16 678.227,2061.76C671.757,2065.35 666.623,2070.49 662.823,2077.16C659.023,2083.84 657.123,2091.59 657.123,2100.42L657.123,2102.58C657.123,2111.41 659.023,2119.27 662.823,2126.15C666.623,2133.03 671.706,2138.37 678.073,2142.17C684.44,2145.97 691.423,2147.87 699.023,2147.87Z" style="fill:white;stroke:white;stroke-width:0.39px;"/>
                </g>
                <g transform="matrix(1,0,0,1,615.823,101.038)">
                    <path d="M859.227,2069L866.929,2057.91L832.731,2058.83L808.393,2058.83L808.393,2031.41L918.379,2031.41L854.605,2135.54L846.903,2147.25L880.176,2146.02L915.914,2145.4L915.914,2172.82L794.837,2172.82L859.227,2069Z" style="fill:white;stroke:white;stroke-width:0.39px;"/>
                </g>
                <g transform="matrix(1,0,0,1,615.823,101.038)">
                    <path d="M990.47,2177.14L931.934,2031.41L969.521,2031.41L999.713,2121.37L1006.49,2143.25L1013.27,2121.37L1045,2031.41L1081.36,2031.41L994.475,2250.46L959.97,2250.46L990.47,2177.14Z" style="fill:white;stroke:white;stroke-width:0.39px;"/>
                </g>
            </g>
        </g>
    </g>
</svg>